<?xml version="1.0" encoding="UTF-8" standalone="no"?>
<!-- Created with Inkscape (http://www.inkscape.org/) -->

<svg
   xmlns:dc="http://purl.org/dc/elements/1.1/"
   xmlns:cc="http://creativecommons.org/ns#"
   xmlns:rdf="http://www.w3.org/1999/02/22-rdf-syntax-ns#"
   xmlns:svg="http://www.w3.org/2000/svg"
   xmlns="http://www.w3.org/2000/svg"
   xmlns:sodipodi="http://sodipodi.sourceforge.net/DTD/sodipodi-0.dtd"
   xmlns:inkscape="http://www.inkscape.org/namespaces/inkscape"
   width="390.15625"
   height="121.15625"
   id="svg2"
   version="1.1"
   inkscape:version="0.48.4 r9939"
   sodipodi:docname="nerf_rail.svg"
   inkscape:export-filename="D:\nerf_rail.png"
   inkscape:export-xdpi="600"
   inkscape:export-ydpi="600">
  <defs
     id="defs4" />
  <sodipodi:namedview
     id="base"
     pagecolor="#ffffff"
     bordercolor="#666666"
     borderopacity="1.0"
     inkscape:pageopacity="1"
     inkscape:pageshadow="2"
     inkscape:zoom="1.4"
     inkscape:cx="265.29219"
     inkscape:cy="37.821406"
     inkscape:document-units="px"
     inkscape:current-layer="g4096"
     showgrid="false"
     inkscape:window-width="1280"
     inkscape:window-height="975"
     inkscape:window-x="-4"
     inkscape:window-y="-4"
     inkscape:window-maximized="1"
     fit-margin-top="5"
     fit-margin-left="5"
     fit-margin-right="5"
     fit-margin-bottom="5"
     units="mm" />
  <metadata
     id="metadata7">
    <rdf:RDF>
      <cc:Work
         rdf:about="">
        <dc:format>image/svg+xml</dc:format>
        <dc:type
           rdf:resource="http://purl.org/dc/dcmitype/StillImage" />
        <dc:title></dc:title>
      </cc:Work>
    </rdf:RDF>
  </metadata>
  <g
     inkscape:label="Ebene 1"
     inkscape:groupmode="layer"
     id="layer1"
     transform="translate(-359.21875,-557.53125)">
    <g
       id="g4096">
      <g
         id="g4189">
        <path
           style="fill:none;stroke:#000000;stroke-opacity:1"
           d="m 364.71875,563.03125 c 0.0587,36.72203 0,73.43422 0,110.15625 l 8.84375,0 0,-3.6875 363.1875,0 0,3.59375 7.125,0 0,-23.0625 -77.375,-8.84375 -0.625,8.875 -10.34375,0.0312 -9.1875,-8.9375 -256.84375,0 0,-10.84375 0,-24.40625 0,-10.84375 256.84375,0 9.1875,-8.9375 10.34375,0.0312 0.625,8.875 77.375,-8.84375 0,-23.0625 -7.125,0 0,3.59375 -363.1875,0 0,-3.6875 z"
           id="rect4042"
           inkscape:connector-curvature="0"
           sodipodi:nodetypes="ccccccccccccccccccccccccccc" />
        <g
           id="text4071"
           style="font-size:19.12419319px;font-style:normal;font-weight:normal;line-height:125%;letter-spacing:0px;word-spacing:0px;fill:#ff0000;fill-opacity:1;stroke:none;font-family:Sans">
          <path
             inkscape:connector-curvature="0"
             id="path4145"
             d="m 397.64626,581.68124 0,6.31247 -1.71819,0 0,-6.25645 c -10e-6,-0.98982 -0.193,-1.73063 -0.57896,-2.22244 -0.38598,-0.49179 -0.96493,-0.73769 -1.73686,-0.7377 -0.92758,1e-5 -1.65906,0.29571 -2.19443,0.88711 -0.53538,0.59141 -0.80307,1.39759 -0.80307,2.41854 l 0,5.91094 -1.72752,0 0,-10.45854 1.72752,0 0,1.62481 c 0.41087,-0.62875 0.89333,-1.09876 1.44739,-1.41004 0.56027,-0.31125 1.20459,-0.46688 1.93296,-0.4669 1.20148,2e-5 2.11038,0.37353 2.72669,1.12056 0.6163,0.74083 0.92445,1.83337 0.92447,3.27764" />
          <path
             inkscape:connector-curvature="0"
             id="path4147"
             d="m 400.22354,581.98939 5.03317,0 0,1.53143 -5.03317,0 0,-1.53143" />
          <path
             inkscape:connector-curvature="0"
             id="path4149"
             d="m 414.6694,577.84332 0,1.62481 c -0.48558,-0.249 -0.98983,-0.43576 -1.51275,-0.56028 -0.52293,-0.12449 -1.06454,-0.18675 -1.62481,-0.18676 -0.85287,10e-6 -1.49408,0.13075 -1.92363,0.3922 -0.42332,0.26147 -0.63498,0.65367 -0.63498,1.17659 0,0.39842 0.15252,0.7128 0.45756,0.94313 0.30504,0.22412 0.91823,0.43889 1.83959,0.64432 l 0.58829,0.13074 c 1.22016,0.26146 2.08547,0.63187 2.59596,1.11122 0.51669,0.47312 0.77504,1.13612 0.77505,1.98899 -10e-6,0.97115 -0.38598,1.73998 -1.15791,2.30648 -0.76572,0.5665 -1.82091,0.84975 -3.16558,0.84975 -0.56028,0 -1.14546,-0.056 -1.75554,-0.16808 -0.60386,-0.10583 -1.24195,-0.26769 -1.91428,-0.48557 l 0,-1.77422 c 0.63498,0.32994 1.26062,0.57896 1.87693,0.74704 0.6163,0.16186 1.22639,0.24279 1.83025,0.24279 0.80928,0 1.43181,-0.13696 1.86759,-0.41088 0.43577,-0.28013 0.65366,-0.67233 0.65366,-1.17658 0,-0.4669 -0.15875,-0.82485 -0.47623,-1.07387 -0.31128,-0.24901 -0.99918,-0.48868 -2.0637,-0.71903 l -0.59763,-0.14007 c -1.06453,-0.2241 -1.83336,-0.56649 -2.30648,-1.02717 -0.47313,-0.4669 -0.70969,-1.10499 -0.70969,-1.91429 0,-0.98359 0.34862,-1.74308 1.04585,-2.27847 0.69724,-0.53537 1.68706,-0.80305 2.96948,-0.80307 0.63498,2e-5 1.23261,0.0467 1.7929,0.14007 0.56027,0.0934 1.07697,0.23346 1.5501,0.42021" />
          <path
             inkscape:connector-curvature="0"
             id="path4151"
             d="m 419.67456,574.56569 0,2.96948 3.5391,0 0,1.33533 -3.5391,0 0,5.6775 c 0,0.85287 0.11517,1.4007 0.34551,1.64348 0.23656,0.24279 0.71279,0.36419 1.42871,0.36418 l 1.76488,0 0,1.43805 -1.76488,0 c -1.326,0 -2.24112,-0.2459 -2.74537,-0.7377 -0.50425,-0.49802 -0.75638,-1.40069 -0.75638,-2.70801 l 0,-5.6775 -1.26062,0 0,-1.33533 1.26062,0 0,-2.96948 1.72753,0" />
          <path
             inkscape:connector-curvature="0"
             id="path4153"
             d="m 431.54314,579.1413 c -0.19299,-0.11204 -0.40465,-0.19297 -0.63498,-0.24278 -0.22412,-0.056 -0.47313,-0.084 -0.74704,-0.084 -0.97116,10e-6 -1.7182,0.3175 -2.24112,0.95248 -0.5167,0.62876 -0.77505,1.53455 -0.77505,2.71735 l 0,5.50941 -1.72753,0 0,-10.45854 1.72753,0 0,1.62481 c 0.36106,-0.63497 0.83108,-1.10499 1.41004,-1.41004 0.57895,-0.31125 1.28241,-0.46688 2.11038,-0.4669 0.11827,2e-5 0.24901,0.009 0.3922,0.028 0.14317,0.0125 0.30192,0.0343 0.47623,0.0654 l 0.009,1.76488" />
          <path
             inkscape:connector-curvature="0"
             id="path4155"
             d="m 433.36405,577.53517 1.71819,0 0,10.45854 -1.71819,0 0,-10.45854 m 0,-4.07136 1.71819,0 0,2.17575 -1.71819,0 0,-2.17575" />
          <path
             inkscape:connector-curvature="0"
             id="path4157"
             d="m 438.60266,573.46381 1.72752,0 0,8.58161 5.12656,-4.51025 2.19442,0 -5.54676,4.8931 5.78021,5.56544 -2.24111,0 -5.31332,-5.10787 0,5.10787 -1.72752,0 0,-14.5299" />
          <path
             inkscape:connector-curvature="0"
             id="path4159"
             d="m 458.035,582.33489 0,0.84042 -7.89993,0 c 0.0747,1.18282 0.42954,2.08549 1.06453,2.70802 0.6412,0.61631 1.53142,0.92446 2.67066,0.92446 0.65988,0 1.29797,-0.0809 1.91429,-0.24279 0.62252,-0.16186 1.23883,-0.40464 1.84892,-0.72836 l 0,1.62481 c -0.61632,0.26146 -1.24819,0.46067 -1.89561,0.59763 -0.64744,0.13696 -1.30421,0.20543 -1.97031,0.20543 -1.6684,0 -2.99128,-0.48557 -3.96865,-1.45672 -0.97115,-0.97115 -1.45673,-2.28469 -1.45672,-3.94063 -10e-6,-1.71196 0.46067,-3.06908 1.38202,-4.07136 0.92757,-1.00849 2.17574,-1.51274 3.74453,-1.51276 1.40692,2e-5 2.51813,0.45446 3.33366,1.36335 0.82173,0.90268 1.2326,2.13218 1.23261,3.6885 m -1.71819,-0.50425 c -0.0125,-0.94001 -0.27703,-1.69016 -0.79372,-2.25045 -0.51049,-0.56027 -1.18905,-0.84041 -2.03568,-0.84042 -0.95871,10e-6 -1.72754,0.27081 -2.30649,0.8124 -0.57273,0.54162 -0.90267,1.30422 -0.98982,2.28781 l 6.12571,-0.009" />
          <path
             inkscape:connector-curvature="0"
             id="path4161"
             d="m 473.0038,579.1413 c -0.193,-0.11204 -0.40466,-0.19297 -0.63499,-0.24278 -0.22412,-0.056 -0.47313,-0.084 -0.74704,-0.084 -0.97115,10e-6 -1.71819,0.3175 -2.24111,0.95248 -0.51671,0.62876 -0.77506,1.53455 -0.77506,2.71735 l 0,5.50941 -1.72752,0 0,-10.45854 1.72752,0 0,1.62481 c 0.36107,-0.63497 0.83108,-1.10499 1.41004,-1.41004 0.57895,-0.31125 1.28241,-0.46688 2.11039,-0.4669 0.11827,2e-5 0.249,0.009 0.39219,0.028 0.14318,0.0125 0.30192,0.0343 0.47624,0.0654 l 0.009,1.76488" />
          <path
             inkscape:connector-curvature="0"
             id="path4163"
             d="m 479.57773,582.73643 c -1.38825,0 -2.35006,0.15875 -2.88543,0.47624 -0.53538,0.31749 -0.80307,0.85909 -0.80307,1.6248 0,0.61009 0.19921,1.09566 0.59763,1.45673 0.40464,0.35484 0.95247,0.53227 1.64349,0.53227 0.95246,0 1.71507,-0.33617 2.2878,-1.00851 0.57895,-0.67855 0.86843,-1.57811 0.86844,-2.69867 l 0,-0.38286 -1.70886,0 m 3.42704,-0.70969 0,5.96697 -1.71818,0 0,-1.58745 c -0.39221,0.63498 -0.8809,1.10499 -1.46607,1.41003 -0.58518,0.29882 -1.3011,0.44822 -2.14773,0.44822 -1.07076,0 -1.92363,-0.29881 -2.55861,-0.89644 -0.62876,-0.60386 -0.94314,-1.41004 -0.94314,-2.41854 0,-1.17658 0.39219,-2.06369 1.17659,-2.66133 0.79061,-0.59762 1.96719,-0.89644 3.52976,-0.89644 l 2.4092,0 0,-0.16809 c -10e-6,-0.7906 -0.26148,-1.40069 -0.7844,-1.83024 -0.5167,-0.43576 -1.24507,-0.65365 -2.18508,-0.65366 -0.59764,10e-6 -1.17971,0.0716 -1.74621,0.21477 -0.5665,0.1432 -1.11122,0.35797 -1.63414,0.64432 l 0,-1.58745 c 0.62875,-0.24278 1.23883,-0.42331 1.83024,-0.54161 0.5914,-0.12449 1.16724,-0.18674 1.72753,-0.18676 1.51274,2e-5 2.64264,0.39221 3.38969,1.17659 0.74703,0.7844 1.12054,1.97344 1.12055,3.56711" />
          <path
             inkscape:connector-curvature="0"
             id="path4165"
             d="m 486.55321,577.53517 1.71819,0 0,10.45854 -1.71819,0 0,-10.45854 m 0,-4.07136 1.71819,0 0,2.17575 -1.71819,0 0,-2.17575" />
          <path
             inkscape:connector-curvature="0"
             id="path4167"
             d="m 491.85719,573.46381 1.71818,0 0,14.5299 -1.71818,0 0,-14.5299" />
          <path
             inkscape:connector-curvature="0"
             id="path4169"
             d="m 508.00256,582.73643 c -1.38825,0 -2.35006,0.15875 -2.88544,0.47624 -0.53538,0.31749 -0.80307,0.85909 -0.80306,1.6248 -10e-6,0.61009 0.1992,1.09566 0.59763,1.45673 0.40464,0.35484 0.95247,0.53227 1.64348,0.53227 0.95247,0 1.71507,-0.33617 2.28781,-1.00851 0.57895,-0.67855 0.86842,-1.57811 0.86843,-2.69867 l 0,-0.38286 -1.70885,0 m 3.42704,-0.70969 0,5.96697 -1.71819,0 0,-1.58745 c -0.3922,0.63498 -0.88089,1.10499 -1.46606,1.41003 -0.58519,0.29882 -1.3011,0.44822 -2.14774,0.44822 -1.07076,0 -1.92362,-0.29881 -2.55861,-0.89644 -0.62875,-0.60386 -0.94313,-1.41004 -0.94313,-2.41854 0,-1.17658 0.39219,-2.06369 1.17658,-2.66133 0.79062,-0.59762 1.9672,-0.89644 3.52976,-0.89644 l 2.4092,0 0,-0.16809 c -10e-6,-0.7906 -0.26147,-1.40069 -0.78439,-1.83024 -0.51671,-0.43576 -1.24507,-0.65365 -2.18509,-0.65366 -0.59763,10e-6 -1.1797,0.0716 -1.7462,0.21477 -0.56651,0.1432 -1.11122,0.35797 -1.63415,0.64432 l 0,-1.58745 c 0.62876,-0.24278 1.23884,-0.42331 1.83025,-0.54161 0.5914,-0.12449 1.16724,-0.18674 1.72753,-0.18676 1.51274,2e-5 2.64264,0.39221 3.38968,1.17659 0.74703,0.7844 1.12055,1.97344 1.12056,3.56711" />
          <path
             inkscape:connector-curvature="0"
             id="path4171"
             d="m 521.86013,579.12263 0,-5.65882 1.71819,0 0,14.5299 -1.71819,0 0,-1.56878 c -0.36108,0.62254 -0.81864,1.08632 -1.37268,1.39136 -0.54784,0.29882 -1.20772,0.44822 -1.97966,0.44822 -1.26374,0 -2.29403,-0.50425 -3.09087,-1.51275 -0.79062,-1.0085 -1.18592,-2.33449 -1.18592,-3.97798 0,-1.64348 0.3953,-2.96947 1.18592,-3.97798 0.79684,-1.00849 1.82713,-1.51274 3.09087,-1.51276 0.77194,2e-5 1.43182,0.15254 1.97966,0.45757 0.55404,0.29882 1.0116,0.75949 1.37268,1.38202 m -5.85492,3.65115 c 0,1.26374 0.25835,2.25668 0.77506,2.97882 0.52292,0.71591 1.23883,1.07387 2.14773,1.07387 0.90889,0 1.6248,-0.35796 2.14774,-1.07387 0.52292,-0.72214 0.78438,-1.71508 0.78439,-2.97882 -10e-6,-1.26373 -0.26147,-2.25356 -0.78439,-2.96948 -0.52294,-0.72213 -1.23885,-1.0832 -2.14774,-1.08321 -0.9089,10e-6 -1.62481,0.36108 -2.14773,1.08321 -0.51671,0.71592 -0.77506,1.70575 -0.77506,2.96948" />
          <path
             inkscape:connector-curvature="0"
             id="path4173"
             d="m 531.87045,582.73643 c -1.38825,0 -2.35006,0.15875 -2.88544,0.47624 -0.53538,0.31749 -0.80307,0.85909 -0.80306,1.6248 -10e-6,0.61009 0.1992,1.09566 0.59763,1.45673 0.40464,0.35484 0.95247,0.53227 1.64348,0.53227 0.95247,0 1.71507,-0.33617 2.28781,-1.00851 0.57895,-0.67855 0.86842,-1.57811 0.86843,-2.69867 l 0,-0.38286 -1.70885,0 m 3.42704,-0.70969 0,5.96697 -1.71819,0 0,-1.58745 c -0.3922,0.63498 -0.88089,1.10499 -1.46606,1.41003 -0.58519,0.29882 -1.3011,0.44822 -2.14774,0.44822 -1.07076,0 -1.92363,-0.29881 -2.55861,-0.89644 -0.62875,-0.60386 -0.94313,-1.41004 -0.94313,-2.41854 0,-1.17658 0.39219,-2.06369 1.17658,-2.66133 0.79062,-0.59762 1.9672,-0.89644 3.52976,-0.89644 l 2.4092,0 0,-0.16809 c -10e-6,-0.7906 -0.26147,-1.40069 -0.78439,-1.83024 -0.51671,-0.43576 -1.24507,-0.65365 -2.18509,-0.65366 -0.59763,10e-6 -1.1797,0.0716 -1.7462,0.21477 -0.56651,0.1432 -1.11122,0.35797 -1.63415,0.64432 l 0,-1.58745 c 0.62876,-0.24278 1.23884,-0.42331 1.83025,-0.54161 0.5914,-0.12449 1.16724,-0.18674 1.72752,-0.18676 1.51275,2e-5 2.64265,0.39221 3.38969,1.17659 0.74703,0.7844 1.12055,1.97344 1.12056,3.56711" />
          <path
             inkscape:connector-curvature="0"
             id="path4175"
             d="m 540.50809,586.42493 0,5.54676 -1.72752,0 0,-14.43652 1.72752,0 0,1.58746 c 0.36107,-0.62253 0.81552,-1.0832 1.36335,-1.38202 0.55405,-0.30503 1.21393,-0.45755 1.97965,-0.45757 1.26996,2e-5 2.30025,0.50427 3.09088,1.51276 0.79683,1.00851 1.19525,2.3345 1.19526,3.97798 -1e-5,1.64349 -0.39843,2.96948 -1.19526,3.97798 -0.79063,1.0085 -1.82092,1.51275 -3.09088,1.51275 -0.76572,0 -1.4256,-0.1494 -1.97965,-0.44822 -0.54783,-0.30504 -1.00228,-0.76882 -1.36335,-1.39136 m 5.84558,-3.65115 c -10e-6,-1.26373 -0.26147,-2.25356 -0.78439,-2.96948 -0.51671,-0.72213 -1.22951,-1.0832 -2.1384,-1.08321 -0.9089,10e-6 -1.62481,0.36108 -2.14773,1.08321 -0.51671,0.71592 -0.77506,1.70575 -0.77506,2.96948 0,1.26374 0.25835,2.25668 0.77506,2.97882 0.52292,0.71591 1.23883,1.07387 2.14773,1.07387 0.90889,0 1.62169,-0.35796 2.1384,-1.07387 0.52292,-0.72214 0.78438,-1.71508 0.78439,-2.97882" />
          <path
             inkscape:connector-curvature="0"
             id="path4177"
             d="m 552.68482,574.56569 0,2.96948 3.5391,0 0,1.33533 -3.5391,0 0,5.6775 c 0,0.85287 0.11516,1.4007 0.3455,1.64348 0.23656,0.24279 0.7128,0.36419 1.42872,0.36418 l 1.76488,0 0,1.43805 -1.76488,0 c -1.326,0 -2.24112,-0.2459 -2.74537,-0.7377 -0.50425,-0.49802 -0.75638,-1.40069 -0.75638,-2.70801 l 0,-5.6775 -1.26063,0 0,-1.33533 1.26063,0 0,-2.96948 1.72753,0" />
          <path
             inkscape:connector-curvature="0"
             id="path4179"
             d="m 567.43883,582.33489 0,0.84042 -7.89993,0 c 0.0747,1.18282 0.42954,2.08549 1.06453,2.70802 0.6412,0.61631 1.53142,0.92446 2.67066,0.92446 0.65988,0 1.29797,-0.0809 1.91429,-0.24279 0.62252,-0.16186 1.23883,-0.40464 1.84892,-0.72836 l 0,1.62481 c -0.61632,0.26146 -1.24819,0.46067 -1.89561,0.59763 -0.64744,0.13696 -1.30421,0.20543 -1.97032,0.20543 -1.66839,0 -2.99127,-0.48557 -3.96864,-1.45672 -0.97115,-0.97115 -1.45673,-2.28469 -1.45673,-3.94063 0,-1.71196 0.46068,-3.06908 1.38203,-4.07136 0.92757,-1.00849 2.17574,-1.51274 3.74453,-1.51276 1.40691,2e-5 2.51813,0.45446 3.33366,1.36335 0.82173,0.90268 1.2326,2.13218 1.23261,3.6885 m -1.71819,-0.50425 c -0.0125,-0.94001 -0.27703,-1.69016 -0.79373,-2.25045 -0.51048,-0.56027 -1.18904,-0.84041 -2.03568,-0.84042 -0.9587,10e-6 -1.72753,0.27081 -2.30648,0.8124 -0.57273,0.54162 -0.90267,1.30422 -0.98983,2.28781 l 6.12572,-0.009" />
          <path
             inkscape:connector-curvature="0"
             id="path4181"
             d="m 576.31926,579.1413 c -0.19299,-0.11204 -0.40465,-0.19297 -0.63498,-0.24278 -0.22412,-0.056 -0.47313,-0.084 -0.74704,-0.084 -0.97115,10e-6 -1.71819,0.3175 -2.24111,0.95248 -0.51671,0.62876 -0.77506,1.53455 -0.77506,2.71735 l 0,5.50941 -1.72752,0 0,-10.45854 1.72752,0 0,1.62481 c 0.36107,-0.63497 0.83108,-1.10499 1.41004,-1.41004 0.57895,-0.31125 1.28241,-0.46688 2.11038,-0.4669 0.11828,2e-5 0.24901,0.009 0.3922,0.028 0.14317,0.0125 0.30192,0.0343 0.47624,0.0654 l 0.009,1.76488" />
          <path
             inkscape:connector-curvature="0"
             id="path4183"
             d="m 592.37125,579.54284 c 0.42954,-0.77193 0.94313,-1.34155 1.54077,-1.70885 0.59762,-0.36729 1.30108,-0.55093 2.11039,-0.55095 1.08941,2e-5 1.92983,0.38287 2.52125,1.14858 0.59139,0.7595 0.88709,1.8427 0.88711,3.24962 l 0,6.31247 -1.72753,0 0,-6.25645 c -1e-5,-1.00227 -0.17743,-1.74619 -0.53226,-2.23177 -0.35486,-0.48557 -0.89646,-0.72836 -1.62481,-0.72837 -0.89023,1e-5 -1.5937,0.29571 -2.11039,0.88711 -0.51671,0.59141 -0.77506,1.39759 -0.77505,2.41854 l 0,5.91094 -1.72753,0 0,-6.25645 c 0,-1.00849 -0.17743,-1.75242 -0.53226,-2.23177 -0.35485,-0.48557 -0.90268,-0.72836 -1.64349,-0.72837 -0.87777,1e-5 -1.57501,0.29883 -2.0917,0.89645 -0.51671,0.59141 -0.77506,1.39448 -0.77506,2.4092 l 0,5.91094 -1.72752,0 0,-10.45854 1.72752,0 0,1.62481 c 0.39219,-0.6412 0.86221,-1.11432 1.41004,-1.41937 0.54782,-0.30503 1.19837,-0.45755 1.95164,-0.45757 0.75948,2e-5 1.4038,0.193 1.93296,0.57896 0.53537,0.38598 0.93068,0.94626 1.18592,1.68084" />
          <path
             inkscape:connector-curvature="0"
             id="path4185"
             d="m 602.80179,573.46381 1.72753,0 0,8.58161 5.12655,-4.51025 2.19443,0 -5.54676,4.8931 5.78021,5.56544 -2.24112,0 -5.31331,-5.10787 0,5.10787 -1.72753,0 0,-14.5299" />
          <path
             inkscape:connector-curvature="0"
             id="path4187"
             d="m 619.91831,580.47664 c 0.90267,0.19299 1.60613,0.59452 2.11039,1.2046 0.51046,0.61008 0.7657,1.36335 0.76571,2.25979 -10e-6,1.3758 -0.47313,2.44033 -1.41937,3.19359 -0.94626,0.75326 -2.29093,1.12989 -4.03401,1.12989 -0.58519,0 -1.18904,-0.0591 -1.81157,-0.17742 -0.61631,-0.11205 -1.2544,-0.28325 -1.91429,-0.51359 l 0,-1.8209 c 0.52293,0.30504 1.09566,0.53538 1.71819,0.69101 0.62253,0.15563 1.27308,0.23345 1.95164,0.23345 1.18281,0 2.08236,-0.23345 2.69868,-0.70035 0.62252,-0.4669 0.93379,-1.14546 0.9338,-2.03568 -10e-6,-0.82174 -0.28949,-1.46295 -0.86844,-1.92363 -0.57273,-0.46689 -1.37269,-0.70034 -2.39986,-0.70035 l -1.62481,0 0,-1.5501 1.69952,0 c 0.92756,1e-5 1.63725,-0.18364 2.12906,-0.55094 0.49179,-0.37351 0.73769,-0.90889 0.7377,-1.60614 -10e-6,-0.7159 -0.25525,-1.26372 -0.76572,-1.64348 -0.50426,-0.38596 -1.2295,-0.57894 -2.17575,-0.57896 -0.5167,2e-5 -1.07076,0.056 -1.66216,0.16809 -0.59141,0.11207 -1.24195,0.28637 -1.95164,0.52292 l 0,-1.68083 c 0.71591,-0.1992 1.38513,-0.34861 2.00767,-0.44823 0.62875,-0.0996 1.22016,-0.14939 1.77422,-0.1494 1.43181,10e-6 2.56482,0.32684 3.39902,0.98048 0.83419,0.64745 1.25128,1.52522 1.25129,2.63332 -10e-6,0.77195 -0.22101,1.4256 -0.66299,1.96097 -0.44201,0.52916 -1.07077,0.89646 -1.88628,1.10189" />
        </g>
        <g
           id="text4071-8"
           style="font-size:19.12419319px;font-style:normal;font-weight:normal;line-height:125%;letter-spacing:0px;word-spacing:0px;fill:#ff0000;fill-opacity:1;stroke:none;font-family:Sans">
          <path
             inkscape:connector-curvature="0"
             id="path4108"
             d="m 394.6207,647.4654 0,1.42871 -1.64348,0 c -0.61631,1e-5 -1.04586,0.12452 -1.28864,0.37352 -0.23657,0.24902 -0.35485,0.69725 -0.35485,1.34467 l 0,0.92446 2.82941,0 0,1.33533 -2.82941,0 0,9.12321 -1.72753,0 0,-9.12321 -1.64348,0 0,-1.33533 1.64348,0 0,-0.72837 c 0,-1.16412 0.2708,-2.01076 0.81241,-2.53993 0.5416,-0.53536 1.40069,-0.80305 2.57728,-0.80306 l 1.62481,0" />
          <path
             inkscape:connector-curvature="0"
             id="path4110"
             d="m 400.1021,652.74136 c -0.92135,10e-6 -1.64971,0.36107 -2.18509,1.0832 -0.53538,0.71592 -0.80307,1.69952 -0.80307,2.95081 0,1.25129 0.26458,2.238 0.79373,2.96014 0.53538,0.71591 1.26685,1.07387 2.19443,1.07387 0.91512,0 1.64037,-0.36107 2.17575,-1.08321 0.53537,-0.72213 0.80306,-1.70573 0.80307,-2.9508 -10e-6,-1.23884 -0.2677,-2.21932 -0.80307,-2.94147 -0.53538,-0.72835 -1.26063,-1.09253 -2.17575,-1.09254 m 0,-1.45673 c 1.49407,10e-6 2.66754,0.48559 3.52042,1.45673 0.85286,0.97116 1.27929,2.31582 1.2793,4.03401 -10e-6,1.71196 -0.42644,3.05663 -1.2793,4.03401 -0.85288,0.97115 -2.02635,1.45672 -3.52042,1.45672 -1.50031,0 -2.67689,-0.48557 -3.52976,-1.45672 -0.84664,-0.97738 -1.26997,-2.32205 -1.26996,-4.03401 -1e-5,-1.71819 0.42332,-3.06285 1.26996,-4.03401 0.85287,-0.97114 2.02945,-1.45672 3.52976,-1.45673" />
          <path
             inkscape:connector-curvature="0"
             id="path4112"
             d="m 407.74057,647.4654 1.71819,0 0,14.5299 -1.71819,0 0,-14.5299" />
          <path
             inkscape:connector-curvature="0"
             id="path4114"
             d="m 413.04455,647.4654 1.71819,0 0,14.5299 -1.71819,0 0,-14.5299" />
          <path
             inkscape:connector-curvature="0"
             id="path4116"
             d="m 417.11591,651.53676 1.82091,0 3.26829,8.7777 3.26829,-8.7777 1.82091,0 -3.92195,10.45854 -2.3345,0 -3.92195,-10.45854" />
          <path
             inkscape:connector-curvature="0"
             id="path4118"
             d="m 434.4192,656.73801 c -1.38826,10e-6 -2.35007,0.15876 -2.88544,0.47624 -0.53538,0.3175 -0.80307,0.8591 -0.80307,1.62481 0,0.61009 0.19921,1.09566 0.59763,1.45673 0.40464,0.35484 0.95247,0.53226 1.64349,0.53226 0.95247,0 1.71507,-0.33616 2.2878,-1.0085 0.57895,-0.67856 0.86843,-1.57812 0.86844,-2.69868 l 0,-0.38286 -1.70885,0 m 3.42704,-0.70968 0,5.96697 -1.71819,0 0,-1.58746 c -0.39221,0.63499 -0.88089,1.105 -1.46607,1.41004 -0.58518,0.29881 -1.3011,0.44822 -2.14773,0.44822 -1.07076,0 -1.92363,-0.29881 -2.55861,-0.89644 -0.62876,-0.60386 -0.94314,-1.41004 -0.94314,-2.41854 0,-1.17658 0.3922,-2.06369 1.17659,-2.66133 0.79061,-0.59762 1.9672,-0.89644 3.52976,-0.89645 l 2.4092,0 0,-0.16808 c -10e-6,-0.79061 -0.26148,-1.40069 -0.78439,-1.83024 -0.51671,-0.43577 -1.24508,-0.65365 -2.18509,-0.65366 -0.59764,10e-6 -1.17971,0.0716 -1.74621,0.21477 -0.5665,0.14319 -1.11122,0.35797 -1.63414,0.64432 l 0,-1.58746 c 0.62875,-0.24277 1.23883,-0.42331 1.83024,-0.5416 0.5914,-0.12449 1.16724,-0.18675 1.72753,-0.18676 1.51275,10e-6 2.64264,0.39221 3.38969,1.17659 0.74703,0.7844 1.12055,1.97343 1.12056,3.56711" />
          <path
             inkscape:connector-curvature="0"
             id="path4120"
             d="m 441.39467,647.4654 1.71819,0 0,14.5299 -1.71819,0 0,-14.5299" />
          <path
             inkscape:connector-curvature="0"
             id="path4122"
             d="m 453.36597,651.84491 0,1.62481 c -0.48559,-0.249 -0.98984,-0.43576 -1.51276,-0.56028 -0.52293,-0.1245 -1.06453,-0.18675 -1.6248,-0.18676 -0.85288,10e-6 -1.49409,0.13074 -1.92363,0.3922 -0.42332,0.26147 -0.63499,0.65366 -0.63498,1.17658 -1e-5,0.39843 0.15251,0.71281 0.45756,0.94314 0.30504,0.22412 0.91823,0.43889 1.83958,0.64432 l 0.58829,0.13073 c 1.22016,0.26147 2.08548,0.63188 2.59596,1.11122 0.5167,0.47313 0.77505,1.13613 0.77506,1.98899 -10e-6,0.97116 -0.38598,1.73998 -1.15791,2.30649 -0.76572,0.5665 -1.82092,0.84975 -3.16558,0.84975 -0.56028,0 -1.14546,-0.056 -1.75554,-0.16808 -0.60386,-0.10583 -1.24195,-0.26769 -1.91429,-0.48558 l 0,-1.77421 c 0.63498,0.32994 1.26063,0.57895 1.87694,0.74703 0.6163,0.16186 1.22638,0.24279 1.83024,0.24279 0.80929,0 1.43182,-0.13695 1.8676,-0.41087 0.43576,-0.28014 0.65365,-0.67233 0.65366,-1.17659 -10e-6,-0.46689 -0.15875,-0.82485 -0.47624,-1.07386 -0.31127,-0.24901 -0.99917,-0.48869 -2.06369,-0.71903 l -0.59763,-0.14007 c -1.06454,-0.2241 -1.83336,-0.5665 -2.30649,-1.02718 -0.47312,-0.46689 -0.70969,-1.10498 -0.70968,-1.91428 -10e-6,-0.9836 0.34861,-1.74308 1.04585,-2.27847 0.69723,-0.53537 1.68706,-0.80306 2.96948,-0.80307 0.63498,10e-6 1.23261,0.0467 1.79289,0.14007 0.56027,0.0934 1.07698,0.23346 1.55011,0.42021" />
          <path
             inkscape:connector-curvature="0"
             id="path4124"
             d="m 464.19803,651.93829 0,1.60613 c -0.48558,-0.26768 -0.97427,-0.46689 -1.46606,-0.59763 -0.48558,-0.13695 -0.97738,-0.20542 -1.4754,-0.20543 -1.11434,10e-6 -1.97966,0.35485 -2.59596,1.06453 -0.61631,0.70347 -0.92447,1.69329 -0.92446,2.96948 -1e-5,1.27619 0.30815,2.26913 0.92446,2.97881 0.6163,0.70347 1.48162,1.0552 2.59596,1.0552 0.49802,0 0.98982,-0.0654 1.4754,-0.1961 0.49179,-0.13696 0.98048,-0.33928 1.46606,-0.60697 l 0,1.58746 c -0.47936,0.22411 -0.97738,0.39219 -1.49408,0.50425 -0.51048,0.11205 -1.05519,0.16808 -1.63414,0.16808 -1.57501,0 -2.8263,-0.49491 -3.75387,-1.48474 -0.92758,-0.98982 -1.39136,-2.32515 -1.39136,-4.00599 0,-1.70573 0.46689,-3.04729 1.40069,-4.02467 0.94003,-0.97737 2.22555,-1.46606 3.85659,-1.46607 0.52915,10e-6 1.04585,0.056 1.55011,0.16809 0.50424,0.10584 0.99293,0.26769 1.46606,0.48557" />
          <path
             inkscape:connector-curvature="0"
             id="path4126"
             d="m 475.89852,655.68282 0,6.31248 -1.71819,0 0,-6.25645 c -1e-5,-0.98982 -0.19299,-1.73063 -0.57895,-2.22244 -0.38598,-0.49179 -0.96494,-0.73769 -1.73687,-0.7377 -0.92758,10e-6 -1.65905,0.29571 -2.19442,0.88711 -0.53539,0.59141 -0.80308,1.39759 -0.80307,2.41854 l 0,5.91094 -1.72753,0 0,-14.5299 1.72753,0 0,5.69617 c 0.41087,-0.62875 0.89333,-1.09876 1.44739,-1.41004 0.56027,-0.31125 1.20459,-0.46689 1.93296,-0.4669 1.20148,10e-6 2.11037,0.37353 2.72669,1.12056 0.6163,0.74082 0.92445,1.83337 0.92446,3.27763" />
          <path
             inkscape:connector-curvature="0"
             id="path4128"
             d="m 479.58703,659.62345 1.97031,0 0,2.37185 -1.97031,0 0,-2.37185" />
          <path
             inkscape:connector-curvature="0"
             id="path4130"
             d="m 492.3147,653.12421 0,-5.65881 1.71819,0 0,14.5299 -1.71819,0 0,-1.56878 c -0.36107,0.62253 -0.81863,1.08632 -1.37268,1.39136 -0.54783,0.29881 -1.20772,0.44822 -1.97965,0.44822 -1.26375,0 -2.29404,-0.50425 -3.09087,-1.51275 -0.79062,-1.0085 -1.18593,-2.33449 -1.18593,-3.97798 0,-1.64348 0.39531,-2.96947 1.18593,-3.97798 0.79683,-1.0085 1.82712,-1.51275 3.09087,-1.51276 0.77193,10e-6 1.43182,0.15253 1.97965,0.45756 0.55405,0.29883 1.01161,0.7595 1.37268,1.38202 m -5.85491,3.65116 c 0,1.26374 0.25835,2.25668 0.77505,2.97881 0.52292,0.71592 1.23884,1.07387 2.14774,1.07387 0.90889,0 1.6248,-0.35795 2.14773,-1.07387 0.52292,-0.72213 0.78439,-1.71507 0.78439,-2.97881 0,-1.26374 -0.26147,-2.25356 -0.78439,-2.96948 -0.52293,-0.72213 -1.23884,-1.0832 -2.14773,-1.08321 -0.9089,10e-6 -1.62482,0.36108 -2.14774,1.08321 -0.5167,0.71592 -0.77505,1.70574 -0.77505,2.96948" />
          <path
             inkscape:connector-curvature="0"
             id="path4132"
             d="m 506.51777,656.33648 0,0.84042 -7.89993,0 c 0.0747,1.18282 0.42954,2.08549 1.06453,2.70802 0.6412,0.6163 1.53142,0.92446 2.67066,0.92446 0.65988,0 1.29797,-0.0809 1.91429,-0.24279 0.62252,-0.16186 1.23883,-0.40465 1.84892,-0.72836 l 0,1.62481 c -0.61632,0.26146 -1.24819,0.46067 -1.89561,0.59763 -0.64744,0.13695 -1.30421,0.20543 -1.97032,0.20543 -1.66839,0 -2.99127,-0.48557 -3.96864,-1.45672 -0.97115,-0.97115 -1.45673,-2.28469 -1.45673,-3.94063 0,-1.71196 0.46068,-3.06908 1.38203,-4.07136 0.92757,-1.0085 2.17574,-1.51275 3.74453,-1.51276 1.40691,10e-6 2.51813,0.45446 3.33366,1.36335 0.82173,0.90268 1.2326,2.13218 1.23261,3.6885 m -1.71819,-0.50425 c -0.0125,-0.94002 -0.27703,-1.69017 -0.79372,-2.25045 -0.51049,-0.56027 -1.18905,-0.84041 -2.03569,-0.84042 -0.9587,10e-6 -1.72753,0.27081 -2.30648,0.8124 -0.57273,0.54161 -0.90267,1.30421 -0.98982,2.28781 l 6.12571,-0.009" />
          <path
             inkscape:connector-curvature="0"
             id="path4134"
             d="m 512.39137,648.05369 1.58745,0 -4.85575,15.71583 -1.58746,0 4.85576,-15.71583" />
          <path
             inkscape:connector-curvature="0"
             id="path4136"
             d="m 521.86009,653.14289 c -0.19299,-0.11205 -0.40465,-0.19298 -0.63498,-0.24279 -0.22412,-0.056 -0.47314,-0.084 -0.74704,-0.084 -0.97116,10e-6 -1.7182,0.3175 -2.24112,0.95248 -0.51671,0.62876 -0.77506,1.53454 -0.77505,2.71735 l 0,5.50941 -1.72753,0 0,-10.45854 1.72753,0 0,1.62481 c 0.36106,-0.63498 0.83107,-1.10499 1.41003,-1.41004 0.57895,-0.31125 1.28241,-0.46689 2.11039,-0.4669 0.11827,10e-6 0.249,0.009 0.39219,0.028 0.14318,0.0125 0.30192,0.0343 0.47624,0.0654 l 0.009,1.76488" />
          <path
             inkscape:connector-curvature="0"
             id="path4138"
             d="m 528.43403,656.73801 c -1.38825,10e-6 -2.35006,0.15876 -2.88543,0.47624 -0.53538,0.3175 -0.80307,0.8591 -0.80307,1.62481 0,0.61009 0.19921,1.09566 0.59763,1.45673 0.40464,0.35484 0.95247,0.53226 1.64349,0.53226 0.95247,0 1.71507,-0.33616 2.2878,-1.0085 0.57895,-0.67856 0.86843,-1.57812 0.86844,-2.69868 l 0,-0.38286 -1.70886,0 m 3.42704,-0.70968 0,5.96697 -1.71818,0 0,-1.58746 c -0.39221,0.63499 -0.8809,1.105 -1.46607,1.41004 -0.58518,0.29881 -1.3011,0.44822 -2.14773,0.44822 -1.07076,0 -1.92363,-0.29881 -2.55861,-0.89644 -0.62876,-0.60386 -0.94314,-1.41004 -0.94314,-2.41854 0,-1.17658 0.39219,-2.06369 1.17659,-2.66133 0.79061,-0.59762 1.9672,-0.89644 3.52976,-0.89645 l 2.4092,0 0,-0.16808 c -10e-6,-0.79061 -0.26148,-1.40069 -0.7844,-1.83024 -0.5167,-0.43577 -1.24507,-0.65365 -2.18508,-0.65366 -0.59764,10e-6 -1.17971,0.0716 -1.74621,0.21477 -0.5665,0.14319 -1.11122,0.35797 -1.63414,0.64432 l 0,-1.58746 c 0.62875,-0.24277 1.23883,-0.42331 1.83024,-0.5416 0.5914,-0.12449 1.16724,-0.18675 1.72753,-0.18676 1.51274,10e-6 2.64264,0.39221 3.38969,1.17659 0.74703,0.7844 1.12054,1.97343 1.12055,3.56711" />
          <path
             inkscape:connector-curvature="0"
             id="path4140"
             d="m 535.4095,651.53676 1.71819,0 0,10.45854 -1.71819,0 0,-10.45854 m 0,-4.07136 1.71819,0 0,2.17575 -1.71819,0 0,-2.17575" />
          <path
             inkscape:connector-curvature="0"
             id="path4142"
             d="m 540.71347,647.4654 1.71819,0 0,14.5299 -1.71819,0 0,-14.5299" />
        </g>
      </g>
    </g>
  </g>
</svg>
