  0
SECTION
  2
HEADER
  9
$ACADVER
  1
AC1014
  9
$HANDSEED
  5
FFFF
  9
$MEASUREMENT
 70
     1
  0
ENDSEC
  0
SECTION
  2
TABLES
  0
TABLE
  2
VPORT
  5
8
330
0
100
AcDbSymbolTable
 70
     4
  0
VPORT
  5
2E
330
8
100
AcDbSymbolTableRecord
100
AcDbViewportTableRecord
  2
*ACTIVE
 70
     0
 10
0.0
 20
0.0
 11
1.0
 21
1.0
 12
210.0
 22
148.5
 13
0.0
 23
0.0
 14
10.0
 24
10.0
 15
10.0
 25
10.0
 16
0.0
 26
0.0
 36
1.0
 17
0.0
 27
0.0
 37
0.0
 40
341.0
 41
1.24
 42
50.0
 43
0.0
 44
0.0
 50
0.0
 51
0.0
 71
     0
 72
   100
 73
     1
 74
     3
 75
     0
 76
     0
 77
     0
 78
     0
  0
ENDTAB
  0
TABLE
  2
LTYPE
  5
5
330
0
100
AcDbSymbolTable
 70
     1
  0
LTYPE
  5
14
330
5
100
AcDbSymbolTableRecord
100
AcDbLinetypeTableRecord
  2
BYBLOCK
 70
     0
  3

 72
    65
 73
     0
 40
0.0
  0
LTYPE
  5
15
330
5
100
AcDbSymbolTableRecord
100
AcDbLinetypeTableRecord
  2
BYLAYER
 70
     0
  3

 72
    65
 73
     0
 40
0.0
  0
LTYPE
  5
16
330
5
100
AcDbSymbolTableRecord
100
AcDbLinetypeTableRecord
  2
CONTINUOUS
 70
     0
  3
Solid line
 72
    65
 73
     0
 40
0.0
  0
ENDTAB
  0
TABLE
  2
LAYER
  5
2
100
AcDbSymbolTable
 70
2
  0
LAYER
  5
50
100
AcDbSymbolTableRecord
100
AcDbLayerTableRecord
  2
0
 70
0
  6
CONTINUOUS
  0
LAYER
  5
51
100
AcDbSymbolTableRecord
100
AcDbLayerTableRecord
  2
Ebene_1
 70
0
  6
CONTINUOUS
  0
ENDTAB
  0
TABLE
  2
STYLE
  5
3
330
0
100
AcDbSymbolTable
 70
     1
  0
STYLE
  5
11
330
3
100
AcDbSymbolTableRecord
100
AcDbTextStyleTableRecord
  2
STANDARD
 70
     0
 40
0.0
 41
1.0
 50
0.0
 71
     0
 42
2.5
  3
txt
  4

  0
ENDTAB
  0
TABLE
  2
VIEW
  5
6
330
0
100
AcDbSymbolTable
 70
     0
  0
ENDTAB
  0
TABLE
  2
UCS
  5
7
330
0
100
AcDbSymbolTable
 70
     0
  0
ENDTAB
  0
TABLE
  2
APPID
  5
9
330
0
100
AcDbSymbolTable
 70
     2
  0
APPID
  5
12
330
9
100
AcDbSymbolTableRecord
100
AcDbRegAppTableRecord
  2
ACAD
 70
     0
  0
ENDTAB
  0
TABLE
  2
DIMSTYLE
  5
A
330
0
100
AcDbSymbolTable
 70
     1
  0
DIMSTYLE
105
27
330
A
100
AcDbSymbolTableRecord
100
AcDbDimStyleTableRecord
  2
ISO-25
 70
     0
  3

  4

  5

  6

  7

 40
1.0
 41
2.5
 42
0.625
 43
3.75
 44
1.25
 45
0.0
 46
0.0
 47
0.0
 48
0.0
140
2.5
141
2.5
142
0.0
143
0.03937007874016
144
1.0
145
0.0
146
1.0
147
0.625
 71
     0
 72
     0
 73
     0
 74
     0
 75
     0
 76
     0
 77
     1
 78
     8
170
     0
171
     3
172
     1
173
     0
174
     0
175
     0
176
     0
177
     0
178
     0
270
     2
271
     2
272
     2
273
     2
274
     3
340
11
275
     0
280
     0
281
     0
282
     0
283
     0
284
     8
285
     0
286
     0
287
     3
288
     0
  0
ENDTAB
  0
TABLE
  2
BLOCK_RECORD
  5
1
330
0
100
AcDbSymbolTable
 70
     1
  0
BLOCK_RECORD
  5
1F
330
1
100
AcDbSymbolTableRecord
100
AcDbBlockTableRecord
  2
*MODEL_SPACE
  0
BLOCK_RECORD
  5
1B
330
1
100
AcDbSymbolTableRecord
100
AcDbBlockTableRecord
  2
*PAPER_SPACE
  0
ENDTAB
  0
ENDSEC
  0
SECTION
  2
BLOCKS
  0
BLOCK
  5
20
330
1F
100
AcDbEntity
  8
0
100
AcDbBlockBegin
  2
*MODEL_SPACE
 70
     0
 10
0.0
 20
0.0
 30
0.0
  3
*MODEL_SPACE
  1

  0
ENDBLK
  5
21
330
1F
100
AcDbEntity
  8
0
100
AcDbBlockEnd
  0
BLOCK
  5
1C
330
1B
100
AcDbEntity
 67
     1
  8
0
100
AcDbBlockBegin
  2
*PAPER_SPACE
  1

  0
ENDBLK
  5
1D
330
1B
100
AcDbEntity
 67
     1
  8
0
100
AcDbBlockEnd
  0
ENDSEC
  0
SECTION
  2
ENTITIES
  0
SPLINE
  5
100
100
AcDbEntity
  8
Ebene_1
 62
7
100
AcDbSpline
 70
8
 71
3
 72
8
 73
4
 74
0
 40
0
 40
0
 40
0
 40
0
 40
1
 40
1
 40
1
 40
1
 10
1.552222
 20
32.640764
 30
0.0
 10
1.568789
 20
22.276991
 30
0.0
 10
1.552222
 20
11.915995
 30
0.0
 10
1.552222
 20
1.552222
 30
0.0
  0
LWPOLYLINE
  5
101
100
AcDbEntity
  8
Ebene_1
 62
7
100
AcDbPolyline
 90
26
 70
0
 10
1.552222
 20
1.552222
 30
0.0
 10
4.048125
 20
1.552222
 30
0.0
 10
4.048125
 20
2.592917
 30
0.0
 10
106.547708
 20
2.592917
 30
0.0
 10
106.547708
 20
1.578681
 30
0.0
 10
108.558542
 20
1.578681
 30
0.0
 10
108.558542
 20
8.087431
 30
0.0
 10
86.721597
 20
10.583333
 30
0.0
 10
86.545208
 20
8.078611
 30
0.0
 10
83.625972
 20
8.069806
 30
0.0
 10
81.033056
 20
10.592167
 30
0.0
 10
8.546042
 20
10.592167
 30
0.0
 10
8.546042
 20
13.652514
 30
0.0
 10
8.546042
 20
20.540500
 30
0.0
 10
8.546042
 20
23.600847
 30
0.0
 10
81.033056
 20
23.600847
 30
0.0
 10
83.625972
 20
26.123209
 30
0.0
 10
86.545208
 20
26.114403
 30
0.0
 10
86.721597
 20
23.609681
 30
0.0
 10
108.558542
 20
26.105584
 30
0.0
 10
108.558542
 20
32.614334
 30
0.0
 10
106.547708
 20
32.614334
 30
0.0
 10
106.547708
 20
31.600098
 30
0.0
 10
4.048125
 20
31.600098
 30
0.0
 10
4.048125
 20
32.640792
 30
0.0
 10
1.552222
 20
32.640764
 30
0.0
  0
SPLINE
  5
102
100
AcDbEntity
  8
Ebene_1
 62
7
100
AcDbSpline
 70
8
 71
3
 72
8
 73
4
 74
0
 40
0
 40
0
 40
0
 40
0
 40
1
 40
1
 40
1
 40
1
 10
10.360186
 20
27.361512
 30
0.0
 10
10.360183
 20
27.640861
 30
0.0
 10
10.305717
 20
27.849934
 30
0.0
 10
10.196790
 20
27.988734
 30
0.0
  0
SPLINE
  5
103
100
AcDbEntity
  8
Ebene_1
 62
7
100
AcDbSpline
 70
8
 71
3
 72
8
 73
4
 74
0
 40
0
 40
0
 40
0
 40
0
 40
1
 40
1
 40
1
 40
1
 10
10.196790
 20
27.988734
 30
0.0
 10
10.087858
 20
28.127528
 30
0.0
 10
9.924466
 20
28.196927
 30
0.0
 10
9.706610
 20
28.196929
 30
0.0
  0
SPLINE
  5
104
100
AcDbEntity
  8
Ebene_1
 62
7
100
AcDbSpline
 70
8
 71
3
 72
8
 73
4
 74
0
 40
0
 40
0
 40
0
 40
0
 40
1
 40
1
 40
1
 40
1
 10
9.706610
 20
28.196929
 30
0.0
 10
9.444826
 20
28.196927
 30
0.0
 10
9.238386
 20
28.113474
 30
0.0
 10
9.087293
 20
27.946567
 30
0.0
  0
SPLINE
  5
105
100
AcDbEntity
  8
Ebene_1
 62
7
100
AcDbSpline
 70
8
 71
3
 72
8
 73
4
 74
0
 40
0
 40
0
 40
0
 40
0
 40
1
 40
1
 40
1
 40
1
 10
9.087293
 20
27.946567
 30
0.0
 10
8.936197
 20
27.779658
 30
0.0
 10
8.860649
 20
27.552136
 30
0.0
 10
8.860649
 20
27.264002
 30
0.0
  0
LWPOLYLINE
  5
106
100
AcDbEntity
  8
Ebene_1
 62
7
100
AcDbPolyline
 90
4
 70
0
 10
10.845097
 20
27.377322
 30
0.0
 10
10.845097
 20
25.595803
 30
0.0
 10
10.360186
 20
25.595803
 30
0.0
 10
10.360186
 20
27.361512
 30
0.0
  0
SPLINE
  5
107
100
AcDbEntity
  8
Ebene_1
 62
7
100
AcDbSpline
 70
8
 71
3
 72
8
 73
4
 74
0
 40
0
 40
0
 40
0
 40
0
 40
1
 40
1
 40
1
 40
1
 10
8.860649
 20
28.088878
 30
0.0
 10
8.976606
 20
28.266325
 30
0.0
 10
9.112766
 20
28.398972
 30
0.0
 10
9.269135
 20
28.486822
 30
0.0
  0
SPLINE
  5
108
100
AcDbEntity
  8
Ebene_1
 62
7
100
AcDbSpline
 70
8
 71
3
 72
8
 73
4
 74
0
 40
0
 40
0
 40
0
 40
0
 40
1
 40
1
 40
1
 40
1
 10
9.269135
 20
28.486822
 30
0.0
 10
9.427255
 20
28.574664
 30
0.0
 10
9.609097
 20
28.618586
 30
0.0
 10
9.814659
 20
28.618592
 30
0.0
  0
SPLINE
  5
109
100
AcDbEntity
  8
Ebene_1
 62
7
100
AcDbSpline
 70
8
 71
3
 72
8
 73
4
 74
0
 40
0
 40
0
 40
0
 40
0
 40
1
 40
1
 40
1
 40
1
 10
9.814659
 20
28.618592
 30
0.0
 10
10.153743
 20
28.618586
 30
0.0
 10
10.410255
 20
28.513174
 30
0.0
 10
10.584191
 20
28.302345
 30
0.0
  0
SPLINE
  5
10a
100
AcDbEntity
  8
Ebene_1
 62
7
100
AcDbSpline
 70
8
 71
3
 72
8
 73
4
 74
0
 40
0
 40
0
 40
0
 40
0
 40
1
 40
1
 40
1
 40
1
 10
10.584191
 20
28.302345
 30
0.0
 10
10.758125
 20
28.093266
 30
0.0
 10
10.845092
 20
27.784927
 30
0.0
 10
10.845097
 20
27.377322
 30
0.0
  0
LWPOLYLINE
  5
10b
100
AcDbEntity
  8
Ebene_1
 62
7
100
AcDbPolyline
 90
6
 70
0
 10
8.860649
 20
27.264002
 30
0.0
 10
8.860649
 20
25.595803
 30
0.0
 10
8.373104
 20
25.595803
 30
0.0
 10
8.373104
 20
28.547435
 30
0.0
 10
8.860649
 20
28.547435
 30
0.0
 10
8.860649
 20
28.088878
 30
0.0
  0
LWPOLYLINE
  5
10c
100
AcDbEntity
  8
Ebene_1
 62
7
100
AcDbPolyline
 90
5
 70
0
 10
11.572463
 20
27.290355
 30
0.0
 10
12.992935
 20
27.290355
 30
0.0
 10
12.992935
 20
26.858152
 30
0.0
 10
11.572463
 20
26.858152
 30
0.0
 10
11.572463
 20
27.290355
 30
0.0
  0
SPLINE
  5
10d
100
AcDbEntity
  8
Ebene_1
 62
7
100
AcDbSpline
 70
8
 71
3
 72
8
 73
4
 74
0
 40
0
 40
0
 40
0
 40
0
 40
1
 40
1
 40
1
 40
1
 10
15.649406
 20
28.001911
 30
0.0
 10
15.512364
 20
28.072184
 30
0.0
 10
15.370054
 20
28.124892
 30
0.0
 10
15.222474
 20
28.160035
 30
0.0
  0
SPLINE
  5
10e
100
AcDbEntity
  8
Ebene_1
 62
7
100
AcDbSpline
 70
8
 71
3
 72
8
 73
4
 74
0
 40
0
 40
0
 40
0
 40
0
 40
1
 40
1
 40
1
 40
1
 10
15.222474
 20
28.160035
 30
0.0
 10
15.074892
 20
28.195168
 30
0.0
 10
14.922037
 20
28.212740
 30
0.0
 10
14.763917
 20
28.212742
 30
0.0
  0
SPLINE
  5
10f
100
AcDbEntity
  8
Ebene_1
 62
7
100
AcDbSpline
 70
8
 71
3
 72
8
 73
4
 74
0
 40
0
 40
0
 40
0
 40
0
 40
1
 40
1
 40
1
 40
1
 10
14.763917
 20
28.212742
 30
0.0
 10
14.523218
 20
28.212740
 30
0.0
 10
14.342254
 20
28.175842
 30
0.0
 10
14.221025
 20
28.102055
 30
0.0
  0
SPLINE
  5
110
100
AcDbEntity
  8
Ebene_1
 62
7
100
AcDbSpline
 70
8
 71
3
 72
8
 73
4
 74
0
 40
0
 40
0
 40
0
 40
0
 40
1
 40
1
 40
1
 40
1
 10
14.221025
 20
28.102055
 30
0.0
 10
14.101555
 20
28.028262
 30
0.0
 10
14.041820
 20
27.917575
 30
0.0
 10
14.041820
 20
27.769995
 30
0.0
  0
SPLINE
  5
111
100
AcDbEntity
  8
Ebene_1
 62
7
100
AcDbSpline
 70
8
 71
3
 72
8
 73
4
 74
0
 40
0
 40
0
 40
0
 40
0
 40
1
 40
1
 40
1
 40
1
 10
14.041820
 20
27.769995
 30
0.0
 10
14.041820
 20
27.657552
 30
0.0
 10
14.084864
 20
27.568827
 30
0.0
 10
14.170954
 20
27.503823
 30
0.0
  0
SPLINE
  5
112
100
AcDbEntity
  8
Ebene_1
 62
7
100
AcDbSpline
 70
8
 71
3
 72
8
 73
4
 74
0
 40
0
 40
0
 40
0
 40
0
 40
1
 40
1
 40
1
 40
1
 10
14.170954
 20
27.503823
 30
0.0
 10
14.257043
 20
27.440571
 30
0.0
 10
14.430098
 20
27.379958
 30
0.0
 10
14.690127
 20
27.321981
 30
0.0
  0
LWPOLYLINE
  5
113
100
AcDbEntity
  8
Ebene_1
 62
7
100
AcDbPolyline
 90
2
 70
0
 10
15.649406
 20
28.460469
 30
0.0
 10
15.649406
 20
28.001911
 30
0.0
  0
SPLINE
  5
114
100
AcDbEntity
  8
Ebene_1
 62
7
100
AcDbSpline
 70
8
 71
3
 72
8
 73
4
 74
0
 40
0
 40
0
 40
0
 40
0
 40
1
 40
1
 40
1
 40
1
 10
14.856155
 20
27.285084
 30
0.0
 10
15.200511
 20
27.211294
 30
0.0
 10
15.444721
 20
27.106756
 30
0.0
 10
15.588793
 20
26.971473
 30
0.0
  0
SPLINE
  5
115
100
AcDbEntity
  8
Ebene_1
 62
7
100
AcDbSpline
 70
8
 71
3
 72
8
 73
4
 74
0
 40
0
 40
0
 40
0
 40
0
 40
1
 40
1
 40
1
 40
1
 10
15.588793
 20
26.971473
 30
0.0
 10
15.734614
 20
26.837948
 30
0.0
 10
15.807526
 20
26.650834
 30
0.0
 10
15.807529
 20
26.410135
 30
0.0
  0
SPLINE
  5
116
100
AcDbEntity
  8
Ebene_1
 62
7
100
AcDbSpline
 70
8
 71
3
 72
8
 73
4
 74
0
 40
0
 40
0
 40
0
 40
0
 40
1
 40
1
 40
1
 40
1
 10
15.807529
 20
26.410135
 30
0.0
 10
15.807526
 20
26.136055
 30
0.0
 10
15.698597
 20
25.919074
 30
0.0
 10
15.480741
 20
25.759196
 30
0.0
  0
SPLINE
  5
117
100
AcDbEntity
  8
Ebene_1
 62
7
100
AcDbSpline
 70
8
 71
3
 72
8
 73
4
 74
0
 40
0
 40
0
 40
0
 40
0
 40
1
 40
1
 40
1
 40
1
 10
15.480741
 20
25.759196
 30
0.0
 10
15.264638
 20
25.599317
 30
0.0
 10
14.966840
 20
25.519377
 30
0.0
 10
14.587344
 20
25.519377
 30
0.0
  0
SPLINE
  5
118
100
AcDbEntity
  8
Ebene_1
 62
7
100
AcDbSpline
 70
8
 71
3
 72
8
 73
4
 74
0
 40
0
 40
0
 40
0
 40
0
 40
1
 40
1
 40
1
 40
1
 10
14.587344
 20
25.519377
 30
0.0
 10
14.429221
 20
25.519377
 30
0.0
 10
14.264070
 20
25.535182
 30
0.0
 10
14.091892
 20
25.566813
 30
0.0
  0
SPLINE
  5
119
100
AcDbEntity
  8
Ebene_1
 62
7
100
AcDbSpline
 70
8
 71
3
 72
8
 73
4
 74
0
 40
0
 40
0
 40
0
 40
0
 40
1
 40
1
 40
1
 40
1
 10
14.091892
 20
25.566813
 30
0.0
 10
13.921469
 20
25.596681
 30
0.0
 10
13.741386
 20
25.642361
 30
0.0
 10
13.551639
 20
25.703852
 30
0.0
  0
LWPOLYLINE
  5
11a
100
AcDbEntity
  8
Ebene_1
 62
7
100
AcDbPolyline
 90
2
 70
0
 10
14.690127
 20
27.321981
 30
0.0
 10
14.856155
 20
27.285084
 30
0.0
  0
SPLINE
  5
11b
100
AcDbEntity
  8
Ebene_1
 62
7
100
AcDbSpline
 70
8
 71
3
 72
8
 73
4
 74
0
 40
0
 40
0
 40
0
 40
0
 40
1
 40
1
 40
1
 40
1
 10
13.551639
 20
26.204576
 30
0.0
 10
13.730845
 20
26.111460
 30
0.0
 10
13.907414
 20
26.041181
 30
0.0
 10
14.081351
 20
25.993745
 30
0.0
  0
SPLINE
  5
11c
100
AcDbEntity
  8
Ebene_1
 62
7
100
AcDbSpline
 70
8
 71
3
 72
8
 73
4
 74
0
 40
0
 40
0
 40
0
 40
0
 40
1
 40
1
 40
1
 40
1
 10
14.081351
 20
25.993745
 30
0.0
 10
14.255284
 20
25.948064
 30
0.0
 10
14.427465
 20
25.925224
 30
0.0
 10
14.597888
 20
25.925224
 30
0.0
  0
SPLINE
  5
11d
100
AcDbEntity
  8
Ebene_1
 62
7
100
AcDbSpline
 70
8
 71
3
 72
8
 73
4
 74
0
 40
0
 40
0
 40
0
 40
0
 40
1
 40
1
 40
1
 40
1
 10
14.597888
 20
25.925224
 30
0.0
 10
14.826285
 20
25.925224
 30
0.0
 10
15.001977
 20
25.963877
 30
0.0
 10
15.124963
 20
26.041183
 30
0.0
  0
SPLINE
  5
11e
100
AcDbEntity
  8
Ebene_1
 62
7
100
AcDbSpline
 70
8
 71
3
 72
8
 73
4
 74
0
 40
0
 40
0
 40
0
 40
0
 40
1
 40
1
 40
1
 40
1
 10
15.124963
 20
26.041183
 30
0.0
 10
15.247947
 20
26.120242
 30
0.0
 10
15.309441
 20
26.230930
 30
0.0
 10
15.309441
 20
26.373241
 30
0.0
  0
SPLINE
  5
11f
100
AcDbEntity
  8
Ebene_1
 62
7
100
AcDbSpline
 70
8
 71
3
 72
8
 73
4
 74
0
 40
0
 40
0
 40
0
 40
0
 40
1
 40
1
 40
1
 40
1
 10
15.309441
 20
26.373241
 30
0.0
 10
15.309441
 20
26.505010
 30
0.0
 10
15.264638
 20
26.606032
 30
0.0
 10
15.175038
 20
26.676310
 30
0.0
  0
SPLINE
  5
120
100
AcDbEntity
  8
Ebene_1
 62
7
100
AcDbSpline
 70
8
 71
3
 72
8
 73
4
 74
0
 40
0
 40
0
 40
0
 40
0
 40
1
 40
1
 40
1
 40
1
 10
15.175038
 20
26.676310
 30
0.0
 10
15.087188
 20
26.746587
 30
0.0
 10
14.893047
 20
26.814227
 30
0.0
 10
14.592616
 20
26.879237
 30
0.0
  0
LWPOLYLINE
  5
121
100
AcDbEntity
  8
Ebene_1
 62
7
100
AcDbPolyline
 90
2
 70
0
 10
13.551639
 20
25.703852
 30
0.0
 10
13.551639
 20
26.204576
 30
0.0
  0
SPLINE
  5
122
100
AcDbEntity
  8
Ebene_1
 62
7
100
AcDbSpline
 70
8
 71
3
 72
8
 73
4
 74
0
 40
0
 40
0
 40
0
 40
0
 40
1
 40
1
 40
1
 40
1
 10
14.423952
 20
26.918768
 30
0.0
 10
14.123518
 20
26.982014
 30
0.0
 10
13.906537
 20
27.078644
 30
0.0
 10
13.773012
 20
27.208658
 30
0.0
  0
SPLINE
  5
123
100
AcDbEntity
  8
Ebene_1
 62
7
100
AcDbSpline
 70
8
 71
3
 72
8
 73
4
 74
0
 40
0
 40
0
 40
0
 40
0
 40
1
 40
1
 40
1
 40
1
 10
13.773012
 20
27.208658
 30
0.0
 10
13.639484
 20
27.340427
 30
0.0
 10
13.572721
 20
27.520511
 30
0.0
 10
13.572721
 20
27.748913
 30
0.0
  0
SPLINE
  5
124
100
AcDbEntity
  8
Ebene_1
 62
7
100
AcDbSpline
 70
8
 71
3
 72
8
 73
4
 74
0
 40
0
 40
0
 40
0
 40
0
 40
1
 40
1
 40
1
 40
1
 10
13.572721
 20
27.748913
 30
0.0
 10
13.572721
 20
28.026504
 30
0.0
 10
13.671110
 20
28.240849
 30
0.0
 10
13.867884
 20
28.391948
 30
0.0
  0
SPLINE
  5
125
100
AcDbEntity
  8
Ebene_1
 62
7
100
AcDbSpline
 70
8
 71
3
 72
8
 73
4
 74
0
 40
0
 40
0
 40
0
 40
0
 40
1
 40
1
 40
1
 40
1
 10
13.867884
 20
28.391948
 30
0.0
 10
14.064660
 20
28.543041
 30
0.0
 10
14.344009
 20
28.618586
 30
0.0
 10
14.705937
 20
28.618592
 30
0.0
  0
SPLINE
  5
126
100
AcDbEntity
  8
Ebene_1
 62
7
100
AcDbSpline
 70
8
 71
3
 72
8
 73
4
 74
0
 40
0
 40
0
 40
0
 40
0
 40
1
 40
1
 40
1
 40
1
 10
14.705937
 20
28.618592
 30
0.0
 10
14.885142
 20
28.618586
 30
0.0
 10
15.053807
 20
28.605412
 30
0.0
 10
15.211933
 20
28.579061
 30
0.0
  0
SPLINE
  5
127
100
AcDbEntity
  8
Ebene_1
 62
7
100
AcDbSpline
 70
8
 71
3
 72
8
 73
4
 74
0
 40
0
 40
0
 40
0
 40
0
 40
1
 40
1
 40
1
 40
1
 10
15.211933
 20
28.579061
 30
0.0
 10
15.370054
 20
28.552702
 30
0.0
 10
15.515878
 20
28.513174
 30
0.0
 10
15.649406
 20
28.460469
 30
0.0
  0
LWPOLYLINE
  5
128
100
AcDbEntity
  8
Ebene_1
 62
7
100
AcDbPolyline
 90
2
 70
0
 10
14.592616
 20
26.879237
 30
0.0
 10
14.423952
 20
26.918768
 30
0.0
  0
SPLINE
  5
129
100
AcDbEntity
  8
Ebene_1
 62
7
100
AcDbSpline
 70
8
 71
3
 72
8
 73
4
 74
0
 40
0
 40
0
 40
0
 40
0
 40
1
 40
1
 40
1
 40
1
 10
17.061973
 20
26.568259
 30
0.0
 10
17.061973
 20
26.327560
 30
0.0
 10
17.094477
 20
26.172950
 30
0.0
 10
17.159484
 20
26.104432
 30
0.0
  0
SPLINE
  5
12a
100
AcDbEntity
  8
Ebene_1
 62
7
100
AcDbSpline
 70
8
 71
3
 72
8
 73
4
 74
0
 40
0
 40
0
 40
0
 40
0
 40
1
 40
1
 40
1
 40
1
 10
17.159484
 20
26.104432
 30
0.0
 10
17.226246
 20
26.035912
 30
0.0
 10
17.360649
 20
26.001650
 30
0.0
 10
17.562697
 20
26.001653
 30
0.0
  0
LWPOLYLINE
  5
12b
100
AcDbEntity
  8
Ebene_1
 62
7
100
AcDbPolyline
 90
6
 70
0
 10
17.061973
 20
29.385489
 30
0.0
 10
17.061973
 20
28.547435
 30
0.0
 10
18.060786
 20
28.547435
 30
0.0
 10
18.060786
 20
28.170576
 30
0.0
 10
17.061973
 20
28.170576
 30
0.0
 10
17.061973
 20
26.568259
 30
0.0
  0
SPLINE
  5
12c
100
AcDbEntity
  8
Ebene_1
 62
7
100
AcDbSpline
 70
8
 71
3
 72
8
 73
4
 74
0
 40
0
 40
0
 40
0
 40
0
 40
1
 40
1
 40
1
 40
1
 10
17.562697
 20
25.595803
 30
0.0
 10
17.188471
 20
25.595803
 30
0.0
 10
16.930203
 20
25.665201
 30
0.0
 10
16.787893
 20
25.803998
 30
0.0
  0
SPLINE
  5
12d
100
AcDbEntity
  8
Ebene_1
 62
7
100
AcDbSpline
 70
8
 71
3
 72
8
 73
4
 74
0
 40
0
 40
0
 40
0
 40
0
 40
1
 40
1
 40
1
 40
1
 10
16.787893
 20
25.803998
 30
0.0
 10
16.645582
 20
25.944551
 30
0.0
 10
16.574426
 20
26.199304
 30
0.0
 10
16.574426
 20
26.568259
 30
0.0
  0
LWPOLYLINE
  5
12e
100
AcDbEntity
  8
Ebene_1
 62
7
100
AcDbPolyline
 90
4
 70
0
 10
17.562697
 20
26.001653
 30
0.0
 10
18.060786
 20
26.001653
 30
0.0
 10
18.060786
 20
25.595803
 30
0.0
 10
17.562697
 20
25.595803
 30
0.0
  0
SPLINE
  5
12f
100
AcDbEntity
  8
Ebene_1
 62
7
100
AcDbSpline
 70
8
 71
3
 72
8
 73
4
 74
0
 40
0
 40
0
 40
0
 40
0
 40
1
 40
1
 40
1
 40
1
 10
20.411550
 20
28.094150
 30
0.0
 10
20.357084
 20
28.125770
 30
0.0
 10
20.297349
 20
28.148610
 30
0.0
 10
20.232345
 20
28.162668
 30
0.0
  0
SPLINE
  5
130
100
AcDbEntity
  8
Ebene_1
 62
7
100
AcDbSpline
 70
8
 71
3
 72
8
 73
4
 74
0
 40
0
 40
0
 40
0
 40
0
 40
1
 40
1
 40
1
 40
1
 10
20.232345
 20
28.162668
 30
0.0
 10
20.169093
 20
28.178472
 30
0.0
 10
20.098817
 20
28.186374
 30
0.0
 10
20.021513
 20
28.186374
 30
0.0
  0
SPLINE
  5
131
100
AcDbEntity
  8
Ebene_1
 62
7
100
AcDbSpline
 70
8
 71
3
 72
8
 73
4
 74
0
 40
0
 40
0
 40
0
 40
0
 40
1
 40
1
 40
1
 40
1
 10
20.021513
 20
28.186374
 30
0.0
 10
19.747430
 20
28.186372
 30
0.0
 10
19.536599
 20
28.096769
 30
0.0
 10
19.389019
 20
27.917563
 30
0.0
  0
SPLINE
  5
132
100
AcDbEntity
  8
Ebene_1
 62
7
100
AcDbSpline
 70
8
 71
3
 72
8
 73
4
 74
0
 40
0
 40
0
 40
0
 40
0
 40
1
 40
1
 40
1
 40
1
 10
19.389019
 20
27.917563
 30
0.0
 10
19.243195
 20
27.740113
 30
0.0
 10
19.170283
 20
27.484479
 30
0.0
 10
19.170283
 20
27.150667
 30
0.0
  0
LWPOLYLINE
  5
133
100
AcDbEntity
  8
Ebene_1
 62
7
100
AcDbPolyline
 90
7
 70
0
 10
16.574426
 20
26.568259
 30
0.0
 10
16.574426
 20
28.170576
 30
0.0
 10
16.218651
 20
28.170576
 30
0.0
 10
16.218651
 20
28.547435
 30
0.0
 10
16.574426
 20
28.547435
 30
0.0
 10
16.574426
 20
29.385489
 30
0.0
 10
17.061973
 20
29.385489
 30
0.0
  0
SPLINE
  5
134
100
AcDbEntity
  8
Ebene_1
 62
7
100
AcDbSpline
 70
8
 71
3
 72
8
 73
4
 74
0
 40
0
 40
0
 40
0
 40
0
 40
1
 40
1
 40
1
 40
1
 10
19.170283
 20
28.088864
 30
0.0
 10
19.272182
 20
28.268066
 30
0.0
 10
19.404832
 20
28.400716
 30
0.0
 10
19.568228
 20
28.486808
 30
0.0
  0
SPLINE
  5
135
100
AcDbEntity
  8
Ebene_1
 62
7
100
AcDbSpline
 70
8
 71
3
 72
8
 73
4
 74
0
 40
0
 40
0
 40
0
 40
0
 40
1
 40
1
 40
1
 40
1
 10
19.568228
 20
28.486808
 30
0.0
 10
19.731620
 20
28.574650
 30
0.0
 10
19.930152
 20
28.618572
 30
0.0
 10
20.163824
 20
28.618578
 30
0.0
  0
SPLINE
  5
136
100
AcDbEntity
  8
Ebene_1
 62
7
100
AcDbSpline
 70
8
 71
3
 72
8
 73
4
 74
0
 40
0
 40
0
 40
0
 40
0
 40
1
 40
1
 40
1
 40
1
 10
20.163824
 20
28.618578
 30
0.0
 10
20.197202
 20
28.618572
 30
0.0
 10
20.234100
 20
28.616038
 30
0.0
 10
20.274511
 20
28.610676
 30
0.0
  0
SPLINE
  5
137
100
AcDbEntity
  8
Ebene_1
 62
7
100
AcDbSpline
 70
8
 71
3
 72
8
 73
4
 74
0
 40
0
 40
0
 40
0
 40
0
 40
1
 40
1
 40
1
 40
1
 10
20.274511
 20
28.610676
 30
0.0
 10
20.314917
 20
28.607148
 30
0.0
 10
20.359720
 20
28.600995
 30
0.0
 10
20.408914
 20
28.592218
 30
0.0
  0
LWPOLYLINE
  5
138
100
AcDbEntity
  8
Ebene_1
 62
7
100
AcDbPolyline
 90
6
 70
0
 10
19.170283
 20
27.150667
 30
0.0
 10
19.170283
 20
25.595789
 30
0.0
 10
18.682736
 20
25.595789
 30
0.0
 10
18.682736
 20
28.547421
 30
0.0
 10
19.170283
 20
28.547421
 30
0.0
 10
19.170283
 20
28.088864
 30
0.0
  0
LWPOLYLINE
  5
139
100
AcDbEntity
  8
Ebene_1
 62
7
100
AcDbPolyline
 90
2
 70
0
 10
20.408914
 20
28.592218
 30
0.0
 10
20.411454
 20
28.094130
 30
0.0
  0
LWPOLYLINE
  5
13a
100
AcDbEntity
  8
Ebene_1
 62
7
100
AcDbPolyline
 90
5
 70
0
 10
20.925451
 20
28.547435
 30
0.0
 10
21.410363
 20
28.547435
 30
0.0
 10
21.410363
 20
25.595803
 30
0.0
 10
20.925451
 20
25.595803
 30
0.0
 10
20.925451
 20
28.547435
 30
0.0
  0
LWPOLYLINE
  5
13b
100
AcDbEntity
  8
Ebene_1
 62
7
100
AcDbPolyline
 90
5
 70
0
 10
20.925451
 20
29.696464
 30
0.0
 10
21.410363
 20
29.696464
 30
0.0
 10
21.410363
 20
29.082419
 30
0.0
 10
20.925451
 20
29.082419
 30
0.0
 10
20.925451
 20
29.696464
 30
0.0
  0
LWPOLYLINE
  5
13c
100
AcDbEntity
  8
Ebene_1
 62
7
100
AcDbPolyline
 90
12
 70
0
 10
22.403903
 20
29.696464
 30
0.0
 10
22.891448
 20
29.696464
 30
0.0
 10
22.891448
 20
27.274543
 30
0.0
 10
24.338277
 20
28.547435
 30
0.0
 10
24.957591
 20
28.547435
 30
0.0
 10
23.392172
 20
27.166494
 30
0.0
 10
25.023476
 20
25.595803
 30
0.0
 10
24.390985
 20
25.595803
 30
0.0
 10
22.891448
 20
27.037357
 30
0.0
 10
22.891448
 20
25.595803
 30
0.0
 10
22.403903
 20
25.595803
 30
0.0
 10
22.403903
 20
29.696464
 30
0.0
  0
SPLINE
  5
13d
100
AcDbEntity
  8
Ebene_1
 62
7
100
AcDbSpline
 70
8
 71
3
 72
8
 73
4
 74
0
 40
0
 40
0
 40
0
 40
0
 40
1
 40
1
 40
1
 40
1
 10
25.658606
 20
26.955663
 30
0.0
 10
25.679688
 20
26.621844
 30
0.0
 10
25.779832
 20
26.367091
 30
0.0
 10
25.959040
 20
26.191399
 30
0.0
  0
SPLINE
  5
13e
100
AcDbEntity
  8
Ebene_1
 62
7
100
AcDbSpline
 70
8
 71
3
 72
8
 73
4
 74
0
 40
0
 40
0
 40
0
 40
0
 40
1
 40
1
 40
1
 40
1
 10
25.959040
 20
26.191399
 30
0.0
 10
26.140001
 20
26.017463
 30
0.0
 10
26.391241
 20
25.930496
 30
0.0
 10
26.712759
 20
25.930496
 30
0.0
  0
SPLINE
  5
13f
100
AcDbEntity
  8
Ebene_1
 62
7
100
AcDbSpline
 70
8
 71
3
 72
8
 73
4
 74
0
 40
0
 40
0
 40
0
 40
0
 40
1
 40
1
 40
1
 40
1
 10
26.712759
 20
25.930496
 30
0.0
 10
26.898992
 20
25.930496
 30
0.0
 10
27.079075
 20
25.953328
 30
0.0
 10
27.253015
 20
25.999017
 30
0.0
  0
SPLINE
  5
140
100
AcDbEntity
  8
Ebene_1
 62
7
100
AcDbSpline
 70
8
 71
3
 72
8
 73
4
 74
0
 40
0
 40
0
 40
0
 40
0
 40
1
 40
1
 40
1
 40
1
 10
27.253015
 20
25.999017
 30
0.0
 10
27.428704
 20
26.044697
 30
0.0
 10
27.602640
 20
26.113215
 30
0.0
 10
27.774821
 20
26.204576
 30
0.0
  0
LWPOLYLINE
  5
141
100
AcDbEntity
  8
Ebene_1
 62
7
100
AcDbPolyline
 90
3
 70
0
 10
27.888142
 20
27.192848
 30
0.0
 10
27.888142
 20
26.955663
 30
0.0
 10
25.658606
 20
26.955663
 30
0.0
  0
SPLINE
  5
142
100
AcDbEntity
  8
Ebene_1
 62
7
100
AcDbSpline
 70
8
 71
3
 72
8
 73
4
 74
0
 40
0
 40
0
 40
0
 40
0
 40
1
 40
1
 40
1
 40
1
 10
27.774821
 20
25.746019
 30
0.0
 10
27.600882
 20
25.672229
 30
0.0
 10
27.422554
 20
25.616007
 30
0.0
 10
27.239838
 20
25.577354
 30
0.0
  0
SPLINE
  5
143
100
AcDbEntity
  8
Ebene_1
 62
7
100
AcDbSpline
 70
8
 71
3
 72
8
 73
4
 74
0
 40
0
 40
0
 40
0
 40
0
 40
1
 40
1
 40
1
 40
1
 10
27.239838
 20
25.577354
 30
0.0
 10
27.057116
 20
25.538701
 30
0.0
 10
26.871761
 20
25.519377
 30
0.0
 10
26.683772
 20
25.519377
 30
0.0
  0
SPLINE
  5
144
100
AcDbEntity
  8
Ebene_1
 62
7
100
AcDbSpline
 70
8
 71
3
 72
8
 73
4
 74
0
 40
0
 40
0
 40
0
 40
0
 40
1
 40
1
 40
1
 40
1
 10
26.683772
 20
25.519377
 30
0.0
 10
26.212913
 20
25.519377
 30
0.0
 10
25.839567
 20
25.656416
 30
0.0
 10
25.563731
 20
25.930496
 30
0.0
  0
SPLINE
  5
145
100
AcDbEntity
  8
Ebene_1
 62
7
100
AcDbSpline
 70
8
 71
3
 72
8
 73
4
 74
0
 40
0
 40
0
 40
0
 40
0
 40
1
 40
1
 40
1
 40
1
 10
25.563731
 20
25.930496
 30
0.0
 10
25.289651
 20
26.204576
 30
0.0
 10
25.152610
 20
26.575286
 30
0.0
 10
25.152612
 20
27.042629
 30
0.0
  0
SPLINE
  5
146
100
AcDbEntity
  8
Ebene_1
 62
7
100
AcDbSpline
 70
8
 71
3
 72
8
 73
4
 74
0
 40
0
 40
0
 40
0
 40
0
 40
1
 40
1
 40
1
 40
1
 10
25.152612
 20
27.042629
 30
0.0
 10
25.152610
 20
27.525782
 30
0.0
 10
25.282624
 20
27.908792
 30
0.0
 10
25.542649
 20
28.191658
 30
0.0
  0
SPLINE
  5
147
100
AcDbEntity
  8
Ebene_1
 62
7
100
AcDbSpline
 70
8
 71
3
 72
8
 73
4
 74
0
 40
0
 40
0
 40
0
 40
0
 40
1
 40
1
 40
1
 40
1
 10
25.542649
 20
28.191658
 30
0.0
 10
25.804430
 20
28.476276
 30
0.0
 10
26.156691
 20
28.618586
 30
0.0
 10
26.599439
 20
28.618592
 30
0.0
  0
SPLINE
  5
148
100
AcDbEntity
  8
Ebene_1
 62
7
100
AcDbSpline
 70
8
 71
3
 72
8
 73
4
 74
0
 40
0
 40
0
 40
0
 40
0
 40
1
 40
1
 40
1
 40
1
 10
26.599439
 20
28.618592
 30
0.0
 10
26.996503
 20
28.618586
 30
0.0
 10
27.310111
 20
28.490333
 30
0.0
 10
27.540272
 20
28.233824
 30
0.0
  0
SPLINE
  5
149
100
AcDbEntity
  8
Ebene_1
 62
7
100
AcDbSpline
 70
8
 71
3
 72
8
 73
4
 74
0
 40
0
 40
0
 40
0
 40
0
 40
1
 40
1
 40
1
 40
1
 10
27.540272
 20
28.233824
 30
0.0
 10
27.772182
 20
27.979068
 30
0.0
 10
27.888139
 20
27.632076
 30
0.0
 10
27.888142
 20
27.192848
 30
0.0
  0
SPLINE
  5
14a
100
AcDbEntity
  8
Ebene_1
 62
7
100
AcDbSpline
 70
8
 71
3
 72
8
 73
4
 74
0
 40
0
 40
0
 40
0
 40
0
 40
1
 40
1
 40
1
 40
1
 10
27.403230
 20
27.335158
 30
0.0
 10
27.399702
 20
27.600450
 30
0.0
 10
27.325046
 20
27.812159
 30
0.0
 10
27.179225
 20
27.970285
 30
0.0
  0
SPLINE
  5
14b
100
AcDbEntity
  8
Ebene_1
 62
7
100
AcDbSpline
 70
8
 71
3
 72
8
 73
4
 74
0
 40
0
 40
0
 40
0
 40
0
 40
1
 40
1
 40
1
 40
1
 10
27.179225
 20
27.970285
 30
0.0
 10
27.035153
 20
28.128406
 30
0.0
 10
26.843649
 20
28.207468
 30
0.0
 10
26.604711
 20
28.207470
 30
0.0
  0
SPLINE
  5
14c
100
AcDbEntity
  8
Ebene_1
 62
7
100
AcDbSpline
 70
8
 71
3
 72
8
 73
4
 74
0
 40
0
 40
0
 40
0
 40
0
 40
1
 40
1
 40
1
 40
1
 10
26.604711
 20
28.207470
 30
0.0
 10
26.334141
 20
28.207468
 30
0.0
 10
26.117161
 20
28.131042
 30
0.0
 10
25.953768
 20
27.978193
 30
0.0
  0
SPLINE
  5
14d
100
AcDbEntity
  8
Ebene_1
 62
7
100
AcDbSpline
 70
8
 71
3
 72
8
 73
4
 74
0
 40
0
 40
0
 40
0
 40
0
 40
1
 40
1
 40
1
 40
1
 10
25.953768
 20
27.978193
 30
0.0
 10
25.792131
 20
27.825336
 30
0.0
 10
25.699014
 20
27.610113
 30
0.0
 10
25.674419
 20
27.332522
 30
0.0
  0
LWPOLYLINE
  5
14e
100
AcDbEntity
  8
Ebene_1
 62
7
100
AcDbPolyline
 90
2
 70
0
 10
27.774821
 20
26.204576
 30
0.0
 10
27.774821
 20
25.746019
 30
0.0
  0
SPLINE
  5
14f
100
AcDbEntity
  8
Ebene_1
 62
7
100
AcDbSpline
 70
8
 71
3
 72
8
 73
4
 74
0
 40
0
 40
0
 40
0
 40
0
 40
1
 40
1
 40
1
 40
1
 10
32.112670
 20
28.094150
 30
0.0
 10
32.058201
 20
28.125770
 30
0.0
 10
31.998466
 20
28.148610
 30
0.0
 10
31.933461
 20
28.162668
 30
0.0
  0
SPLINE
  5
150
100
AcDbEntity
  8
Ebene_1
 62
7
100
AcDbSpline
 70
8
 71
3
 72
8
 73
4
 74
0
 40
0
 40
0
 40
0
 40
0
 40
1
 40
1
 40
1
 40
1
 10
31.933461
 20
28.162668
 30
0.0
 10
31.870210
 20
28.178472
 30
0.0
 10
31.799934
 20
28.186374
 30
0.0
 10
31.722630
 20
28.186374
 30
0.0
  0
SPLINE
  5
151
100
AcDbEntity
  8
Ebene_1
 62
7
100
AcDbSpline
 70
8
 71
3
 72
8
 73
4
 74
0
 40
0
 40
0
 40
0
 40
0
 40
1
 40
1
 40
1
 40
1
 10
31.722630
 20
28.186374
 30
0.0
 10
31.448550
 20
28.186372
 30
0.0
 10
31.237719
 20
28.096769
 30
0.0
 10
31.090139
 20
27.917563
 30
0.0
  0
SPLINE
  5
152
100
AcDbEntity
  8
Ebene_1
 62
7
100
AcDbSpline
 70
8
 71
3
 72
8
 73
4
 74
0
 40
0
 40
0
 40
0
 40
0
 40
1
 40
1
 40
1
 40
1
 10
31.090139
 20
27.917563
 30
0.0
 10
30.944312
 20
27.740113
 30
0.0
 10
30.871400
 20
27.484479
 30
0.0
 10
30.871400
 20
27.150667
 30
0.0
  0
LWPOLYLINE
  5
153
100
AcDbEntity
  8
Ebene_1
 62
7
100
AcDbPolyline
 90
2
 70
0
 10
25.674419
 20
27.332522
 30
0.0
 10
27.403230
 20
27.335062
 30
0.0
  0
SPLINE
  5
154
100
AcDbEntity
  8
Ebene_1
 62
7
100
AcDbSpline
 70
8
 71
3
 72
8
 73
4
 74
0
 40
0
 40
0
 40
0
 40
0
 40
1
 40
1
 40
1
 40
1
 10
30.871400
 20
28.088864
 30
0.0
 10
30.973302
 20
28.268066
 30
0.0
 10
31.105949
 20
28.400716
 30
0.0
 10
31.269345
 20
28.486808
 30
0.0
  0
SPLINE
  5
155
100
AcDbEntity
  8
Ebene_1
 62
7
100
AcDbSpline
 70
8
 71
3
 72
8
 73
4
 74
0
 40
0
 40
0
 40
0
 40
0
 40
1
 40
1
 40
1
 40
1
 10
31.269345
 20
28.486808
 30
0.0
 10
31.432737
 20
28.574650
 30
0.0
 10
31.631269
 20
28.618572
 30
0.0
 10
31.864943
 20
28.618578
 30
0.0
  0
SPLINE
  5
156
100
AcDbEntity
  8
Ebene_1
 62
7
100
AcDbSpline
 70
8
 71
3
 72
8
 73
4
 74
0
 40
0
 40
0
 40
0
 40
0
 40
1
 40
1
 40
1
 40
1
 10
31.864943
 20
28.618578
 30
0.0
 10
31.898322
 20
28.618572
 30
0.0
 10
31.935217
 20
28.616038
 30
0.0
 10
31.975628
 20
28.610676
 30
0.0
  0
SPLINE
  5
157
100
AcDbEntity
  8
Ebene_1
 62
7
100
AcDbSpline
 70
8
 71
3
 72
8
 73
4
 74
0
 40
0
 40
0
 40
0
 40
0
 40
1
 40
1
 40
1
 40
1
 10
31.975628
 20
28.610676
 30
0.0
 10
32.016037
 20
28.607148
 30
0.0
 10
32.060837
 20
28.600995
 30
0.0
 10
32.110034
 20
28.592218
 30
0.0
  0
LWPOLYLINE
  5
158
100
AcDbEntity
  8
Ebene_1
 62
7
100
AcDbPolyline
 90
6
 70
0
 10
30.871400
 20
27.150667
 30
0.0
 10
30.871400
 20
25.595789
 30
0.0
 10
30.383855
 20
25.595789
 30
0.0
 10
30.383855
 20
28.547421
 30
0.0
 10
30.871400
 20
28.547421
 30
0.0
 10
30.871400
 20
28.088864
 30
0.0
  0
SPLINE
  5
159
100
AcDbEntity
  8
Ebene_1
 62
7
100
AcDbSpline
 70
8
 71
3
 72
8
 73
4
 74
0
 40
0
 40
0
 40
0
 40
0
 40
1
 40
1
 40
1
 40
1
 10
33.967979
 20
27.079524
 30
0.0
 10
33.576184
 20
27.079524
 30
0.0
 10
33.304740
 20
27.034721
 30
0.0
 10
33.153646
 20
26.945119
 30
0.0
  0
SPLINE
  5
15a
100
AcDbEntity
  8
Ebene_1
 62
7
100
AcDbSpline
 70
8
 71
3
 72
8
 73
4
 74
0
 40
0
 40
0
 40
0
 40
0
 40
1
 40
1
 40
1
 40
1
 10
33.153646
 20
26.945119
 30
0.0
 10
33.002550
 20
26.855516
 30
0.0
 10
32.927002
 20
26.702664
 30
0.0
 10
32.927002
 20
26.486564
 30
0.0
  0
SPLINE
  5
15b
100
AcDbEntity
  8
Ebene_1
 62
7
100
AcDbSpline
 70
8
 71
3
 72
8
 73
4
 74
0
 40
0
 40
0
 40
0
 40
0
 40
1
 40
1
 40
1
 40
1
 10
32.927002
 20
26.486564
 30
0.0
 10
32.927002
 20
26.314383
 30
0.0
 10
32.983224
 20
26.177344
 30
0.0
 10
33.095667
 20
26.075442
 30
0.0
  0
SPLINE
  5
15c
100
AcDbEntity
  8
Ebene_1
 62
7
100
AcDbSpline
 70
8
 71
3
 72
8
 73
4
 74
0
 40
0
 40
0
 40
0
 40
0
 40
1
 40
1
 40
1
 40
1
 10
33.095667
 20
26.075442
 30
0.0
 10
33.209865
 20
25.975299
 30
0.0
 10
33.364475
 20
25.925224
 30
0.0
 10
33.559496
 20
25.925224
 30
0.0
  0
SPLINE
  5
15d
100
AcDbEntity
  8
Ebene_1
 62
7
100
AcDbSpline
 70
8
 71
3
 72
8
 73
4
 74
0
 40
0
 40
0
 40
0
 40
0
 40
1
 40
1
 40
1
 40
1
 10
33.559496
 20
25.925224
 30
0.0
 10
33.828301
 20
25.925224
 30
0.0
 10
34.043527
 20
26.020099
 30
0.0
 10
34.205164
 20
26.209848
 30
0.0
  0
SPLINE
  5
15e
100
AcDbEntity
  8
Ebene_1
 62
7
100
AcDbSpline
 70
8
 71
3
 72
8
 73
4
 74
0
 40
0
 40
0
 40
0
 40
0
 40
1
 40
1
 40
1
 40
1
 10
34.205164
 20
26.209848
 30
0.0
 10
34.368557
 20
26.401350
 30
0.0
 10
34.450254
 20
26.655226
 30
0.0
 10
34.450257
 20
26.971473
 30
0.0
  0
LWPOLYLINE
  5
15f
100
AcDbEntity
  8
Ebene_1
 62
7
100
AcDbPolyline
 90
2
 70
0
 10
32.110034
 20
28.592218
 30
0.0
 10
32.112574
 20
28.094130
 30
0.0
  0
LWPOLYLINE
  5
160
100
AcDbEntity
  8
Ebene_1
 62
7
100
AcDbPolyline
 90
3
 70
0
 10
34.450257
 20
26.971473
 30
0.0
 10
34.450257
 20
27.079524
 30
0.0
 10
33.967979
 20
27.079524
 30
0.0
  0
SPLINE
  5
161
100
AcDbEntity
  8
Ebene_1
 62
7
100
AcDbSpline
 70
8
 71
3
 72
8
 73
4
 74
0
 40
0
 40
0
 40
0
 40
0
 40
1
 40
1
 40
1
 40
1
 10
34.450257
 20
26.043817
 30
0.0
 10
34.339567
 20
25.864611
 30
0.0
 10
34.201648
 20
25.731964
 30
0.0
 10
34.036500
 20
25.645875
 30
0.0
  0
SPLINE
  5
162
100
AcDbEntity
  8
Ebene_1
 62
7
100
AcDbSpline
 70
8
 71
3
 72
8
 73
4
 74
0
 40
0
 40
0
 40
0
 40
0
 40
1
 40
1
 40
1
 40
1
 10
34.036500
 20
25.645875
 30
0.0
 10
33.871349
 20
25.561541
 30
0.0
 10
33.669300
 20
25.519377
 30
0.0
 10
33.430362
 20
25.519377
 30
0.0
  0
SPLINE
  5
163
100
AcDbEntity
  8
Ebene_1
 62
7
100
AcDbSpline
 70
8
 71
3
 72
8
 73
4
 74
0
 40
0
 40
0
 40
0
 40
0
 40
1
 40
1
 40
1
 40
1
 10
33.430362
 20
25.519377
 30
0.0
 10
33.128170
 20
25.519377
 30
0.0
 10
32.887471
 20
25.603708
 30
0.0
 10
32.708266
 20
25.772372
 30
0.0
  0
SPLINE
  5
164
100
AcDbEntity
  8
Ebene_1
 62
7
100
AcDbSpline
 70
8
 71
3
 72
8
 73
4
 74
0
 40
0
 40
0
 40
0
 40
0
 40
1
 40
1
 40
1
 40
1
 10
32.708266
 20
25.772372
 30
0.0
 10
32.530816
 20
25.942795
 30
0.0
 10
32.442091
 20
26.170317
 30
0.0
 10
32.442091
 20
26.454938
 30
0.0
  0
SPLINE
  5
165
100
AcDbEntity
  8
Ebene_1
 62
7
100
AcDbSpline
 70
8
 71
3
 72
8
 73
4
 74
0
 40
0
 40
0
 40
0
 40
0
 40
1
 40
1
 40
1
 40
1
 10
32.442091
 20
26.454938
 30
0.0
 10
32.442091
 20
26.786995
 30
0.0
 10
32.552775
 20
27.037357
 30
0.0
 10
32.774151
 20
27.206025
 30
0.0
  0
SPLINE
  5
166
100
AcDbEntity
  8
Ebene_1
 62
7
100
AcDbSpline
 70
8
 71
3
 72
8
 73
4
 74
0
 40
0
 40
0
 40
0
 40
0
 40
1
 40
1
 40
1
 40
1
 10
32.774151
 20
27.206025
 30
0.0
 10
32.997278
 20
27.374686
 30
0.0
 10
33.329335
 20
27.459020
 30
0.0
 10
33.770327
 20
27.459020
 30
0.0
  0
LWPOLYLINE
  5
167
100
AcDbEntity
  8
Ebene_1
 62
7
100
AcDbPolyline
 90
4
 70
0
 10
34.935166
 20
27.279814
 30
0.0
 10
34.935166
 20
25.595803
 30
0.0
 10
34.450257
 20
25.595803
 30
0.0
 10
34.450257
 20
26.043817
 30
0.0
  0
SPLINE
  5
168
100
AcDbEntity
  8
Ebene_1
 62
7
100
AcDbSpline
 70
8
 71
3
 72
8
 73
4
 74
0
 40
0
 40
0
 40
0
 40
0
 40
1
 40
1
 40
1
 40
1
 10
34.450257
 20
27.506459
 30
0.0
 10
34.450254
 20
27.729584
 30
0.0
 10
34.376462
 20
27.901765
 30
0.0
 10
34.228882
 20
28.022993
 30
0.0
  0
SPLINE
  5
169
100
AcDbEntity
  8
Ebene_1
 62
7
100
AcDbSpline
 70
8
 71
3
 72
8
 73
4
 74
0
 40
0
 40
0
 40
0
 40
0
 40
1
 40
1
 40
1
 40
1
 10
34.228882
 20
28.022993
 30
0.0
 10
34.083058
 20
28.145974
 30
0.0
 10
33.877496
 20
28.207468
 30
0.0
 10
33.612204
 20
28.207470
 30
0.0
  0
SPLINE
  5
16a
100
AcDbEntity
  8
Ebene_1
 62
7
100
AcDbSpline
 70
8
 71
3
 72
8
 73
4
 74
0
 40
0
 40
0
 40
0
 40
0
 40
1
 40
1
 40
1
 40
1
 10
33.612204
 20
28.207470
 30
0.0
 10
33.443537
 20
28.207468
 30
0.0
 10
33.279263
 20
28.187263
 30
0.0
 10
33.119385
 20
28.146858
 30
0.0
  0
SPLINE
  5
16b
100
AcDbEntity
  8
Ebene_1
 62
7
100
AcDbSpline
 70
8
 71
3
 72
8
 73
4
 74
0
 40
0
 40
0
 40
0
 40
0
 40
1
 40
1
 40
1
 40
1
 10
33.119385
 20
28.146858
 30
0.0
 10
32.959506
 20
28.106443
 30
0.0
 10
32.805774
 20
28.045831
 30
0.0
 10
32.658194
 20
27.965016
 30
0.0
  0
LWPOLYLINE
  5
16c
100
AcDbEntity
  8
Ebene_1
 62
7
100
AcDbPolyline
 90
3
 70
0
 10
33.770327
 20
27.459020
 30
0.0
 10
34.450257
 20
27.459020
 30
0.0
 10
34.450257
 20
27.506459
 30
0.0
  0
SPLINE
  5
16d
100
AcDbEntity
  8
Ebene_1
 62
7
100
AcDbSpline
 70
8
 71
3
 72
8
 73
4
 74
0
 40
0
 40
0
 40
0
 40
0
 40
1
 40
1
 40
1
 40
1
 10
32.658194
 20
28.413030
 30
0.0
 10
32.835641
 20
28.481548
 30
0.0
 10
33.007819
 20
28.532497
 30
0.0
 10
33.174728
 20
28.565884
 30
0.0
  0
SPLINE
  5
16e
100
AcDbEntity
  8
Ebene_1
 62
7
100
AcDbSpline
 70
8
 71
3
 72
8
 73
4
 74
0
 40
0
 40
0
 40
0
 40
0
 40
1
 40
1
 40
1
 40
1
 10
33.174728
 20
28.565884
 30
0.0
 10
33.341635
 20
28.601018
 30
0.0
 10
33.504149
 20
28.618586
 30
0.0
 10
33.662276
 20
28.618592
 30
0.0
  0
SPLINE
  5
16f
100
AcDbEntity
  8
Ebene_1
 62
7
100
AcDbSpline
 70
8
 71
3
 72
8
 73
4
 74
0
 40
0
 40
0
 40
0
 40
0
 40
1
 40
1
 40
1
 40
1
 10
33.662276
 20
28.618592
 30
0.0
 10
34.089205
 20
28.618586
 30
0.0
 10
34.408087
 20
28.507902
 30
0.0
 10
34.618922
 20
28.286532
 30
0.0
  0
SPLINE
  5
170
100
AcDbEntity
  8
Ebene_1
 62
7
100
AcDbSpline
 70
8
 71
3
 72
8
 73
4
 74
0
 40
0
 40
0
 40
0
 40
0
 40
1
 40
1
 40
1
 40
1
 10
34.618922
 20
28.286532
 30
0.0
 10
34.829750
 20
28.065157
 30
0.0
 10
34.935163
 20
27.729584
 30
0.0
 10
34.935166
 20
27.279814
 30
0.0
  0
LWPOLYLINE
  5
171
100
AcDbEntity
  8
Ebene_1
 62
7
100
AcDbPolyline
 90
2
 70
0
 10
32.658194
 20
27.965016
 30
0.0
 10
32.658194
 20
28.413030
 30
0.0
  0
LWPOLYLINE
  5
172
100
AcDbEntity
  8
Ebene_1
 62
7
100
AcDbPolyline
 90
5
 70
0
 10
35.936614
 20
28.547435
 30
0.0
 10
36.421526
 20
28.547435
 30
0.0
 10
36.421526
 20
25.595803
 30
0.0
 10
35.936614
 20
25.595803
 30
0.0
 10
35.936614
 20
28.547435
 30
0.0
  0
LWPOLYLINE
  5
173
100
AcDbEntity
  8
Ebene_1
 62
7
100
AcDbPolyline
 90
5
 70
0
 10
35.936614
 20
29.696464
 30
0.0
 10
36.421526
 20
29.696464
 30
0.0
 10
36.421526
 20
29.082419
 30
0.0
 10
35.936614
 20
29.082419
 30
0.0
 10
35.936614
 20
29.696464
 30
0.0
  0
SPLINE
  5
174
100
AcDbEntity
  8
Ebene_1
 62
7
100
AcDbSpline
 70
8
 71
3
 72
8
 73
4
 74
0
 40
0
 40
0
 40
0
 40
0
 40
1
 40
1
 40
1
 40
1
 10
41.990097
 20
27.079524
 30
0.0
 10
41.598302
 20
27.079524
 30
0.0
 10
41.326858
 20
27.034721
 30
0.0
 10
41.175762
 20
26.945119
 30
0.0
  0
SPLINE
  5
175
100
AcDbEntity
  8
Ebene_1
 62
7
100
AcDbSpline
 70
8
 71
3
 72
8
 73
4
 74
0
 40
0
 40
0
 40
0
 40
0
 40
1
 40
1
 40
1
 40
1
 10
41.175762
 20
26.945119
 30
0.0
 10
41.024666
 20
26.855516
 30
0.0
 10
40.949118
 20
26.702664
 30
0.0
 10
40.949121
 20
26.486564
 30
0.0
  0
SPLINE
  5
176
100
AcDbEntity
  8
Ebene_1
 62
7
100
AcDbSpline
 70
8
 71
3
 72
8
 73
4
 74
0
 40
0
 40
0
 40
0
 40
0
 40
1
 40
1
 40
1
 40
1
 10
40.949121
 20
26.486564
 30
0.0
 10
40.949118
 20
26.314383
 30
0.0
 10
41.005339
 20
26.177344
 30
0.0
 10
41.117785
 20
26.075442
 30
0.0
  0
SPLINE
  5
177
100
AcDbEntity
  8
Ebene_1
 62
7
100
AcDbSpline
 70
8
 71
3
 72
8
 73
4
 74
0
 40
0
 40
0
 40
0
 40
0
 40
1
 40
1
 40
1
 40
1
 10
41.117785
 20
26.075442
 30
0.0
 10
41.231984
 20
25.975299
 30
0.0
 10
41.386593
 20
25.925224
 30
0.0
 10
41.581612
 20
25.925224
 30
0.0
  0
SPLINE
  5
178
100
AcDbEntity
  8
Ebene_1
 62
7
100
AcDbSpline
 70
8
 71
3
 72
8
 73
4
 74
0
 40
0
 40
0
 40
0
 40
0
 40
1
 40
1
 40
1
 40
1
 10
41.581612
 20
25.925224
 30
0.0
 10
41.850420
 20
25.925224
 30
0.0
 10
42.065643
 20
26.020099
 30
0.0
 10
42.227283
 20
26.209848
 30
0.0
  0
SPLINE
  5
179
100
AcDbEntity
  8
Ebene_1
 62
7
100
AcDbSpline
 70
8
 71
3
 72
8
 73
4
 74
0
 40
0
 40
0
 40
0
 40
0
 40
1
 40
1
 40
1
 40
1
 10
42.227283
 20
26.209848
 30
0.0
 10
42.390675
 20
26.401350
 30
0.0
 10
42.472370
 20
26.655226
 30
0.0
 10
42.472373
 20
26.971473
 30
0.0
  0
LWPOLYLINE
  5
17a
100
AcDbEntity
  8
Ebene_1
 62
7
100
AcDbPolyline
 90
5
 70
0
 10
37.433515
 20
29.696464
 30
0.0
 10
37.918424
 20
29.696464
 30
0.0
 10
37.918424
 20
25.595803
 30
0.0
 10
37.433515
 20
25.595803
 30
0.0
 10
37.433515
 20
29.696464
 30
0.0
  0
LWPOLYLINE
  5
17b
100
AcDbEntity
  8
Ebene_1
 62
7
100
AcDbPolyline
 90
3
 70
0
 10
42.472373
 20
26.971473
 30
0.0
 10
42.472373
 20
27.079524
 30
0.0
 10
41.990097
 20
27.079524
 30
0.0
  0
SPLINE
  5
17c
100
AcDbEntity
  8
Ebene_1
 62
7
100
AcDbSpline
 70
8
 71
3
 72
8
 73
4
 74
0
 40
0
 40
0
 40
0
 40
0
 40
1
 40
1
 40
1
 40
1
 10
42.472373
 20
26.043817
 30
0.0
 10
42.361685
 20
25.864611
 30
0.0
 10
42.223766
 20
25.731964
 30
0.0
 10
42.058618
 20
25.645875
 30
0.0
  0
SPLINE
  5
17d
100
AcDbEntity
  8
Ebene_1
 62
7
100
AcDbSpline
 70
8
 71
3
 72
8
 73
4
 74
0
 40
0
 40
0
 40
0
 40
0
 40
1
 40
1
 40
1
 40
1
 10
42.058618
 20
25.645875
 30
0.0
 10
41.893465
 20
25.561541
 30
0.0
 10
41.691419
 20
25.519377
 30
0.0
 10
41.452478
 20
25.519377
 30
0.0
  0
SPLINE
  5
17e
100
AcDbEntity
  8
Ebene_1
 62
7
100
AcDbSpline
 70
8
 71
3
 72
8
 73
4
 74
0
 40
0
 40
0
 40
0
 40
0
 40
1
 40
1
 40
1
 40
1
 10
41.452478
 20
25.519377
 30
0.0
 10
41.150286
 20
25.519377
 30
0.0
 10
40.909590
 20
25.603708
 30
0.0
 10
40.730382
 20
25.772372
 30
0.0
  0
SPLINE
  5
17f
100
AcDbEntity
  8
Ebene_1
 62
7
100
AcDbSpline
 70
8
 71
3
 72
8
 73
4
 74
0
 40
0
 40
0
 40
0
 40
0
 40
1
 40
1
 40
1
 40
1
 10
40.730382
 20
25.772372
 30
0.0
 10
40.552934
 20
25.942795
 30
0.0
 10
40.464209
 20
26.170317
 30
0.0
 10
40.464209
 20
26.454938
 30
0.0
  0
SPLINE
  5
180
100
AcDbEntity
  8
Ebene_1
 62
7
100
AcDbSpline
 70
8
 71
3
 72
8
 73
4
 74
0
 40
0
 40
0
 40
0
 40
0
 40
1
 40
1
 40
1
 40
1
 10
40.464209
 20
26.454938
 30
0.0
 10
40.464209
 20
26.786995
 30
0.0
 10
40.574894
 20
27.037357
 30
0.0
 10
40.796266
 20
27.206025
 30
0.0
  0
SPLINE
  5
181
100
AcDbEntity
  8
Ebene_1
 62
7
100
AcDbSpline
 70
8
 71
3
 72
8
 73
4
 74
0
 40
0
 40
0
 40
0
 40
0
 40
1
 40
1
 40
1
 40
1
 10
40.796266
 20
27.206025
 30
0.0
 10
41.019397
 20
27.374686
 30
0.0
 10
41.351454
 20
27.459020
 30
0.0
 10
41.792443
 20
27.459020
 30
0.0
  0
LWPOLYLINE
  5
182
100
AcDbEntity
  8
Ebene_1
 62
7
100
AcDbPolyline
 90
4
 70
0
 10
42.957284
 20
27.279814
 30
0.0
 10
42.957284
 20
25.595803
 30
0.0
 10
42.472373
 20
25.595803
 30
0.0
 10
42.472373
 20
26.043817
 30
0.0
  0
SPLINE
  5
183
100
AcDbEntity
  8
Ebene_1
 62
7
100
AcDbSpline
 70
8
 71
3
 72
8
 73
4
 74
0
 40
0
 40
0
 40
0
 40
0
 40
1
 40
1
 40
1
 40
1
 10
42.472373
 20
27.506459
 30
0.0
 10
42.472370
 20
27.729584
 30
0.0
 10
42.398580
 20
27.901765
 30
0.0
 10
42.251001
 20
28.022993
 30
0.0
  0
SPLINE
  5
184
100
AcDbEntity
  8
Ebene_1
 62
7
100
AcDbSpline
 70
8
 71
3
 72
8
 73
4
 74
0
 40
0
 40
0
 40
0
 40
0
 40
1
 40
1
 40
1
 40
1
 10
42.251001
 20
28.022993
 30
0.0
 10
42.105174
 20
28.145974
 30
0.0
 10
41.899614
 20
28.207468
 30
0.0
 10
41.634320
 20
28.207470
 30
0.0
  0
SPLINE
  5
185
100
AcDbEntity
  8
Ebene_1
 62
7
100
AcDbSpline
 70
8
 71
3
 72
8
 73
4
 74
0
 40
0
 40
0
 40
0
 40
0
 40
1
 40
1
 40
1
 40
1
 10
41.634320
 20
28.207470
 30
0.0
 10
41.465655
 20
28.207468
 30
0.0
 10
41.301382
 20
28.187263
 30
0.0
 10
41.141503
 20
28.146858
 30
0.0
  0
SPLINE
  5
186
100
AcDbEntity
  8
Ebene_1
 62
7
100
AcDbSpline
 70
8
 71
3
 72
8
 73
4
 74
0
 40
0
 40
0
 40
0
 40
0
 40
1
 40
1
 40
1
 40
1
 10
41.141503
 20
28.146858
 30
0.0
 10
40.981622
 20
28.106443
 30
0.0
 10
40.827892
 20
28.045831
 30
0.0
 10
40.680310
 20
27.965016
 30
0.0
  0
LWPOLYLINE
  5
187
100
AcDbEntity
  8
Ebene_1
 62
7
100
AcDbPolyline
 90
3
 70
0
 10
41.792443
 20
27.459020
 30
0.0
 10
42.472373
 20
27.459020
 30
0.0
 10
42.472373
 20
27.506459
 30
0.0
  0
SPLINE
  5
188
100
AcDbEntity
  8
Ebene_1
 62
7
100
AcDbSpline
 70
8
 71
3
 72
8
 73
4
 74
0
 40
0
 40
0
 40
0
 40
0
 40
1
 40
1
 40
1
 40
1
 10
40.680310
 20
28.413030
 30
0.0
 10
40.857760
 20
28.481548
 30
0.0
 10
41.029938
 20
28.532497
 30
0.0
 10
41.196847
 20
28.565884
 30
0.0
  0
SPLINE
  5
189
100
AcDbEntity
  8
Ebene_1
 62
7
100
AcDbSpline
 70
8
 71
3
 72
8
 73
4
 74
0
 40
0
 40
0
 40
0
 40
0
 40
1
 40
1
 40
1
 40
1
 10
41.196847
 20
28.565884
 30
0.0
 10
41.363753
 20
28.601018
 30
0.0
 10
41.526268
 20
28.618586
 30
0.0
 10
41.684394
 20
28.618592
 30
0.0
  0
SPLINE
  5
18a
100
AcDbEntity
  8
Ebene_1
 62
7
100
AcDbSpline
 70
8
 71
3
 72
8
 73
4
 74
0
 40
0
 40
0
 40
0
 40
0
 40
1
 40
1
 40
1
 40
1
 10
41.684394
 20
28.618592
 30
0.0
 10
42.111323
 20
28.618586
 30
0.0
 10
42.430206
 20
28.507902
 30
0.0
 10
42.641037
 20
28.286532
 30
0.0
  0
SPLINE
  5
18b
100
AcDbEntity
  8
Ebene_1
 62
7
100
AcDbSpline
 70
8
 71
3
 72
8
 73
4
 74
0
 40
0
 40
0
 40
0
 40
0
 40
1
 40
1
 40
1
 40
1
 10
42.641037
 20
28.286532
 30
0.0
 10
42.851866
 20
28.065157
 30
0.0
 10
42.957282
 20
27.729584
 30
0.0
 10
42.957284
 20
27.279814
 30
0.0
  0
LWPOLYLINE
  5
18c
100
AcDbEntity
  8
Ebene_1
 62
7
100
AcDbPolyline
 90
2
 70
0
 10
40.680310
 20
27.965016
 30
0.0
 10
40.680310
 20
28.413030
 30
0.0
  0
SPLINE
  5
18d
100
AcDbEntity
  8
Ebene_1
 62
7
100
AcDbSpline
 70
8
 71
3
 72
8
 73
4
 74
0
 40
0
 40
0
 40
0
 40
0
 40
1
 40
1
 40
1
 40
1
 10
45.901012
 20
26.038548
 30
0.0
 10
45.799107
 20
25.862853
 30
0.0
 10
45.669973
 20
25.731964
 30
0.0
 10
45.513611
 20
25.645875
 30
0.0
  0
SPLINE
  5
18e
100
AcDbEntity
  8
Ebene_1
 62
7
100
AcDbSpline
 70
8
 71
3
 72
8
 73
4
 74
0
 40
0
 40
0
 40
0
 40
0
 40
1
 40
1
 40
1
 40
1
 10
45.513611
 20
25.645875
 30
0.0
 10
45.358998
 20
25.561541
 30
0.0
 10
45.172765
 20
25.519377
 30
0.0
 10
44.954907
 20
25.519377
 30
0.0
  0
SPLINE
  5
18f
100
AcDbEntity
  8
Ebene_1
 62
7
100
AcDbSpline
 70
8
 71
3
 72
8
 73
4
 74
0
 40
0
 40
0
 40
0
 40
0
 40
1
 40
1
 40
1
 40
1
 10
44.954907
 20
25.519377
 30
0.0
 10
44.598251
 20
25.519377
 30
0.0
 10
44.307481
 20
25.661688
 30
0.0
 10
44.082595
 20
25.946309
 30
0.0
  0
SPLINE
  5
190
100
AcDbEntity
  8
Ebene_1
 62
7
100
AcDbSpline
 70
8
 71
3
 72
8
 73
4
 74
0
 40
0
 40
0
 40
0
 40
0
 40
1
 40
1
 40
1
 40
1
 10
44.082595
 20
25.946309
 30
0.0
 10
43.859464
 20
26.230930
 30
0.0
 10
43.747902
 20
26.605154
 30
0.0
 10
43.747902
 20
27.068983
 30
0.0
  0
SPLINE
  5
191
100
AcDbEntity
  8
Ebene_1
 62
7
100
AcDbSpline
 70
8
 71
3
 72
8
 73
4
 74
0
 40
0
 40
0
 40
0
 40
0
 40
1
 40
1
 40
1
 40
1
 10
43.747902
 20
27.068983
 30
0.0
 10
43.747902
 20
27.532810
 30
0.0
 10
43.859464
 20
27.907034
 30
0.0
 10
44.082595
 20
28.191658
 30
0.0
  0
SPLINE
  5
192
100
AcDbEntity
  8
Ebene_1
 62
7
100
AcDbSpline
 70
8
 71
3
 72
8
 73
4
 74
0
 40
0
 40
0
 40
0
 40
0
 40
1
 40
1
 40
1
 40
1
 10
44.082595
 20
28.191658
 30
0.0
 10
44.307481
 20
28.476276
 30
0.0
 10
44.598251
 20
28.618586
 30
0.0
 10
44.954907
 20
28.618592
 30
0.0
  0
SPLINE
  5
193
100
AcDbEntity
  8
Ebene_1
 62
7
100
AcDbSpline
 70
8
 71
3
 72
8
 73
4
 74
0
 40
0
 40
0
 40
0
 40
0
 40
1
 40
1
 40
1
 40
1
 10
44.954907
 20
28.618592
 30
0.0
 10
45.172765
 20
28.618586
 30
0.0
 10
45.358998
 20
28.575542
 30
0.0
 10
45.513611
 20
28.489456
 30
0.0
  0
SPLINE
  5
194
100
AcDbEntity
  8
Ebene_1
 62
7
100
AcDbSpline
 70
8
 71
3
 72
8
 73
4
 74
0
 40
0
 40
0
 40
0
 40
0
 40
1
 40
1
 40
1
 40
1
 10
45.513611
 20
28.489456
 30
0.0
 10
45.669973
 20
28.405122
 30
0.0
 10
45.799107
 20
28.275111
 30
0.0
 10
45.901012
 20
28.099419
 30
0.0
  0
SPLINE
  5
195
100
AcDbEntity
  8
Ebene_1
 62
7
100
AcDbSpline
 70
8
 71
3
 72
8
 73
4
 74
0
 40
0
 40
0
 40
0
 40
0
 40
1
 40
1
 40
1
 40
1
 10
44.248623
 20
27.068983
 30
0.0
 10
44.248623
 20
26.712328
 30
0.0
 10
44.321535
 20
26.432098
 30
0.0
 10
44.467362
 20
26.228294
 30
0.0
  0
SPLINE
  5
196
100
AcDbEntity
  8
Ebene_1
 62
7
100
AcDbSpline
 70
8
 71
3
 72
8
 73
4
 74
0
 40
0
 40
0
 40
0
 40
0
 40
1
 40
1
 40
1
 40
1
 10
44.467362
 20
26.228294
 30
0.0
 10
44.614942
 20
26.026248
 30
0.0
 10
44.816988
 20
25.925224
 30
0.0
 10
45.073499
 20
25.925224
 30
0.0
  0
SPLINE
  5
197
100
AcDbEntity
  8
Ebene_1
 62
7
100
AcDbSpline
 70
8
 71
3
 72
8
 73
4
 74
0
 40
0
 40
0
 40
0
 40
0
 40
1
 40
1
 40
1
 40
1
 10
45.073499
 20
25.925224
 30
0.0
 10
45.330008
 20
25.925224
 30
0.0
 10
45.532054
 20
26.026248
 30
0.0
 10
45.679639
 20
26.228294
 30
0.0
  0
SPLINE
  5
198
100
AcDbEntity
  8
Ebene_1
 62
7
100
AcDbSpline
 70
8
 71
3
 72
8
 73
4
 74
0
 40
0
 40
0
 40
0
 40
0
 40
1
 40
1
 40
1
 40
1
 10
45.679639
 20
26.228294
 30
0.0
 10
45.827219
 20
26.432098
 30
0.0
 10
45.901009
 20
26.712328
 30
0.0
 10
45.901012
 20
27.068983
 30
0.0
  0
SPLINE
  5
199
100
AcDbEntity
  8
Ebene_1
 62
7
100
AcDbSpline
 70
8
 71
3
 72
8
 73
4
 74
0
 40
0
 40
0
 40
0
 40
0
 40
1
 40
1
 40
1
 40
1
 10
45.901012
 20
27.068983
 30
0.0
 10
45.901009
 20
27.425636
 30
0.0
 10
45.827219
 20
27.704988
 30
0.0
 10
45.679639
 20
27.907036
 30
0.0
  0
SPLINE
  5
19a
100
AcDbEntity
  8
Ebene_1
 62
7
100
AcDbSpline
 70
8
 71
3
 72
8
 73
4
 74
0
 40
0
 40
0
 40
0
 40
0
 40
1
 40
1
 40
1
 40
1
 10
45.679639
 20
27.907036
 30
0.0
 10
45.532054
 20
28.110838
 30
0.0
 10
45.330008
 20
28.212740
 30
0.0
 10
45.073499
 20
28.212742
 30
0.0
  0
SPLINE
  5
19b
100
AcDbEntity
  8
Ebene_1
 62
7
100
AcDbSpline
 70
8
 71
3
 72
8
 73
4
 74
0
 40
0
 40
0
 40
0
 40
0
 40
1
 40
1
 40
1
 40
1
 10
45.073499
 20
28.212742
 30
0.0
 10
44.816988
 20
28.212740
 30
0.0
 10
44.614942
 20
28.110838
 30
0.0
 10
44.467362
 20
27.907036
 30
0.0
  0
SPLINE
  5
19c
100
AcDbEntity
  8
Ebene_1
 62
7
100
AcDbSpline
 70
8
 71
3
 72
8
 73
4
 74
0
 40
0
 40
0
 40
0
 40
0
 40
1
 40
1
 40
1
 40
1
 10
44.467362
 20
27.907036
 30
0.0
 10
44.321535
 20
27.704988
 30
0.0
 10
44.248623
 20
27.425636
 30
0.0
 10
44.248623
 20
27.068983
 30
0.0
  0
SPLINE
  5
19d
100
AcDbEntity
  8
Ebene_1
 62
7
100
AcDbSpline
 70
8
 71
3
 72
8
 73
4
 74
0
 40
0
 40
0
 40
0
 40
0
 40
1
 40
1
 40
1
 40
1
 10
48.726146
 20
27.079524
 30
0.0
 10
48.334351
 20
27.079524
 30
0.0
 10
48.062907
 20
27.034721
 30
0.0
 10
47.911811
 20
26.945119
 30
0.0
  0
SPLINE
  5
19e
100
AcDbEntity
  8
Ebene_1
 62
7
100
AcDbSpline
 70
8
 71
3
 72
8
 73
4
 74
0
 40
0
 40
0
 40
0
 40
0
 40
1
 40
1
 40
1
 40
1
 10
47.911811
 20
26.945119
 30
0.0
 10
47.760715
 20
26.855516
 30
0.0
 10
47.685167
 20
26.702664
 30
0.0
 10
47.685170
 20
26.486564
 30
0.0
  0
SPLINE
  5
19f
100
AcDbEntity
  8
Ebene_1
 62
7
100
AcDbSpline
 70
8
 71
3
 72
8
 73
4
 74
0
 40
0
 40
0
 40
0
 40
0
 40
1
 40
1
 40
1
 40
1
 10
47.685170
 20
26.486564
 30
0.0
 10
47.685167
 20
26.314383
 30
0.0
 10
47.741388
 20
26.177344
 30
0.0
 10
47.853834
 20
26.075442
 30
0.0
  0
SPLINE
  5
1a0
100
AcDbEntity
  8
Ebene_1
 62
7
100
AcDbSpline
 70
8
 71
3
 72
8
 73
4
 74
0
 40
0
 40
0
 40
0
 40
0
 40
1
 40
1
 40
1
 40
1
 10
47.853834
 20
26.075442
 30
0.0
 10
47.968033
 20
25.975299
 30
0.0
 10
48.122642
 20
25.925224
 30
0.0
 10
48.317661
 20
25.925224
 30
0.0
  0
SPLINE
  5
1a1
100
AcDbEntity
  8
Ebene_1
 62
7
100
AcDbSpline
 70
8
 71
3
 72
8
 73
4
 74
0
 40
0
 40
0
 40
0
 40
0
 40
1
 40
1
 40
1
 40
1
 10
48.317661
 20
25.925224
 30
0.0
 10
48.586469
 20
25.925224
 30
0.0
 10
48.801692
 20
26.020099
 30
0.0
 10
48.963332
 20
26.209848
 30
0.0
  0
SPLINE
  5
1a2
100
AcDbEntity
  8
Ebene_1
 62
7
100
AcDbSpline
 70
8
 71
3
 72
8
 73
4
 74
0
 40
0
 40
0
 40
0
 40
0
 40
1
 40
1
 40
1
 40
1
 10
48.963332
 20
26.209848
 30
0.0
 10
49.126724
 20
26.401350
 30
0.0
 10
49.208419
 20
26.655226
 30
0.0
 10
49.208422
 20
26.971473
 30
0.0
  0
LWPOLYLINE
  5
1a3
100
AcDbEntity
  8
Ebene_1
 62
7
100
AcDbPolyline
 90
6
 70
0
 10
45.901012
 20
28.099419
 30
0.0
 10
45.901012
 20
29.696464
 30
0.0
 10
46.385923
 20
29.696464
 30
0.0
 10
46.385923
 20
25.595803
 30
0.0
 10
45.901012
 20
25.595803
 30
0.0
 10
45.901012
 20
26.038548
 30
0.0
  0
LWPOLYLINE
  5
1a4
100
AcDbEntity
  8
Ebene_1
 62
7
100
AcDbPolyline
 90
3
 70
0
 10
49.208422
 20
26.971473
 30
0.0
 10
49.208422
 20
27.079524
 30
0.0
 10
48.726146
 20
27.079524
 30
0.0
  0
SPLINE
  5
1a5
100
AcDbEntity
  8
Ebene_1
 62
7
100
AcDbSpline
 70
8
 71
3
 72
8
 73
4
 74
0
 40
0
 40
0
 40
0
 40
0
 40
1
 40
1
 40
1
 40
1
 10
49.208422
 20
26.043817
 30
0.0
 10
49.097734
 20
25.864611
 30
0.0
 10
48.959815
 20
25.731964
 30
0.0
 10
48.794667
 20
25.645875
 30
0.0
  0
SPLINE
  5
1a6
100
AcDbEntity
  8
Ebene_1
 62
7
100
AcDbSpline
 70
8
 71
3
 72
8
 73
4
 74
0
 40
0
 40
0
 40
0
 40
0
 40
1
 40
1
 40
1
 40
1
 10
48.794667
 20
25.645875
 30
0.0
 10
48.629514
 20
25.561541
 30
0.0
 10
48.427468
 20
25.519377
 30
0.0
 10
48.188527
 20
25.519377
 30
0.0
  0
SPLINE
  5
1a7
100
AcDbEntity
  8
Ebene_1
 62
7
100
AcDbSpline
 70
8
 71
3
 72
8
 73
4
 74
0
 40
0
 40
0
 40
0
 40
0
 40
1
 40
1
 40
1
 40
1
 10
48.188527
 20
25.519377
 30
0.0
 10
47.886335
 20
25.519377
 30
0.0
 10
47.645636
 20
25.603708
 30
0.0
 10
47.466431
 20
25.772372
 30
0.0
  0
SPLINE
  5
1a8
100
AcDbEntity
  8
Ebene_1
 62
7
100
AcDbSpline
 70
8
 71
3
 72
8
 73
4
 74
0
 40
0
 40
0
 40
0
 40
0
 40
1
 40
1
 40
1
 40
1
 10
47.466431
 20
25.772372
 30
0.0
 10
47.288983
 20
25.942795
 30
0.0
 10
47.200258
 20
26.170317
 30
0.0
 10
47.200258
 20
26.454938
 30
0.0
  0
SPLINE
  5
1a9
100
AcDbEntity
  8
Ebene_1
 62
7
100
AcDbSpline
 70
8
 71
3
 72
8
 73
4
 74
0
 40
0
 40
0
 40
0
 40
0
 40
1
 40
1
 40
1
 40
1
 10
47.200258
 20
26.454938
 30
0.0
 10
47.200258
 20
26.786995
 30
0.0
 10
47.310943
 20
27.037357
 30
0.0
 10
47.532315
 20
27.206025
 30
0.0
  0
SPLINE
  5
1aa
100
AcDbEntity
  8
Ebene_1
 62
7
100
AcDbSpline
 70
8
 71
3
 72
8
 73
4
 74
0
 40
0
 40
0
 40
0
 40
0
 40
1
 40
1
 40
1
 40
1
 10
47.532315
 20
27.206025
 30
0.0
 10
47.755446
 20
27.374686
 30
0.0
 10
48.087503
 20
27.459020
 30
0.0
 10
48.528492
 20
27.459020
 30
0.0
  0
LWPOLYLINE
  5
1ab
100
AcDbEntity
  8
Ebene_1
 62
7
100
AcDbPolyline
 90
4
 70
0
 10
49.693333
 20
27.279814
 30
0.0
 10
49.693333
 20
25.595803
 30
0.0
 10
49.208422
 20
25.595803
 30
0.0
 10
49.208422
 20
26.043817
 30
0.0
  0
SPLINE
  5
1ac
100
AcDbEntity
  8
Ebene_1
 62
7
100
AcDbSpline
 70
8
 71
3
 72
8
 73
4
 74
0
 40
0
 40
0
 40
0
 40
0
 40
1
 40
1
 40
1
 40
1
 10
49.208422
 20
27.506459
 30
0.0
 10
49.208419
 20
27.729584
 30
0.0
 10
49.134629
 20
27.901765
 30
0.0
 10
48.987050
 20
28.022993
 30
0.0
  0
SPLINE
  5
1ad
100
AcDbEntity
  8
Ebene_1
 62
7
100
AcDbSpline
 70
8
 71
3
 72
8
 73
4
 74
0
 40
0
 40
0
 40
0
 40
0
 40
1
 40
1
 40
1
 40
1
 10
48.987050
 20
28.022993
 30
0.0
 10
48.841223
 20
28.145974
 30
0.0
 10
48.635663
 20
28.207468
 30
0.0
 10
48.370369
 20
28.207470
 30
0.0
  0
SPLINE
  5
1ae
100
AcDbEntity
  8
Ebene_1
 62
7
100
AcDbSpline
 70
8
 71
3
 72
8
 73
4
 74
0
 40
0
 40
0
 40
0
 40
0
 40
1
 40
1
 40
1
 40
1
 10
48.370369
 20
28.207470
 30
0.0
 10
48.201704
 20
28.207468
 30
0.0
 10
48.037431
 20
28.187263
 30
0.0
 10
47.877552
 20
28.146858
 30
0.0
  0
SPLINE
  5
1af
100
AcDbEntity
  8
Ebene_1
 62
7
100
AcDbSpline
 70
8
 71
3
 72
8
 73
4
 74
0
 40
0
 40
0
 40
0
 40
0
 40
1
 40
1
 40
1
 40
1
 10
47.877552
 20
28.146858
 30
0.0
 10
47.717670
 20
28.106443
 30
0.0
 10
47.563941
 20
28.045831
 30
0.0
 10
47.416359
 20
27.965016
 30
0.0
  0
LWPOLYLINE
  5
1b0
100
AcDbEntity
  8
Ebene_1
 62
7
100
AcDbPolyline
 90
3
 70
0
 10
48.528492
 20
27.459020
 30
0.0
 10
49.208422
 20
27.459020
 30
0.0
 10
49.208422
 20
27.506459
 30
0.0
  0
SPLINE
  5
1b1
100
AcDbEntity
  8
Ebene_1
 62
7
100
AcDbSpline
 70
8
 71
3
 72
8
 73
4
 74
0
 40
0
 40
0
 40
0
 40
0
 40
1
 40
1
 40
1
 40
1
 10
47.416359
 20
28.413030
 30
0.0
 10
47.593809
 20
28.481548
 30
0.0
 10
47.765987
 20
28.532497
 30
0.0
 10
47.932896
 20
28.565884
 30
0.0
  0
SPLINE
  5
1b2
100
AcDbEntity
  8
Ebene_1
 62
7
100
AcDbSpline
 70
8
 71
3
 72
8
 73
4
 74
0
 40
0
 40
0
 40
0
 40
0
 40
1
 40
1
 40
1
 40
1
 10
47.932896
 20
28.565884
 30
0.0
 10
48.099802
 20
28.601018
 30
0.0
 10
48.262317
 20
28.618586
 30
0.0
 10
48.420441
 20
28.618592
 30
0.0
  0
SPLINE
  5
1b3
100
AcDbEntity
  8
Ebene_1
 62
7
100
AcDbSpline
 70
8
 71
3
 72
8
 73
4
 74
0
 40
0
 40
0
 40
0
 40
0
 40
1
 40
1
 40
1
 40
1
 10
48.420441
 20
28.618592
 30
0.0
 10
48.847372
 20
28.618586
 30
0.0
 10
49.166255
 20
28.507902
 30
0.0
 10
49.377086
 20
28.286532
 30
0.0
  0
SPLINE
  5
1b4
100
AcDbEntity
  8
Ebene_1
 62
7
100
AcDbSpline
 70
8
 71
3
 72
8
 73
4
 74
0
 40
0
 40
0
 40
0
 40
0
 40
1
 40
1
 40
1
 40
1
 10
49.377086
 20
28.286532
 30
0.0
 10
49.587915
 20
28.065157
 30
0.0
 10
49.693330
 20
27.729584
 30
0.0
 10
49.693333
 20
27.279814
 30
0.0
  0
LWPOLYLINE
  5
1b5
100
AcDbEntity
  8
Ebene_1
 62
7
100
AcDbPolyline
 90
2
 70
0
 10
47.416359
 20
27.965016
 30
0.0
 10
47.416359
 20
28.413030
 30
0.0
  0
SPLINE
  5
1b6
100
AcDbEntity
  8
Ebene_1
 62
7
100
AcDbSpline
 70
8
 71
3
 72
8
 73
4
 74
0
 40
0
 40
0
 40
0
 40
0
 40
1
 40
1
 40
1
 40
1
 10
51.163880
 20
28.099419
 30
0.0
 10
51.265782
 20
28.275111
 30
0.0
 10
51.394038
 20
28.405122
 30
0.0
 10
51.548648
 20
28.489456
 30
0.0
  0
SPLINE
  5
1b7
100
AcDbEntity
  8
Ebene_1
 62
7
100
AcDbSpline
 70
8
 71
3
 72
8
 73
4
 74
0
 40
0
 40
0
 40
0
 40
0
 40
1
 40
1
 40
1
 40
1
 10
51.548648
 20
28.489456
 30
0.0
 10
51.705013
 20
28.575542
 30
0.0
 10
51.891246
 20
28.618586
 30
0.0
 10
52.107349
 20
28.618592
 30
0.0
  0
SPLINE
  5
1b8
100
AcDbEntity
  8
Ebene_1
 62
7
100
AcDbSpline
 70
8
 71
3
 72
8
 73
4
 74
0
 40
0
 40
0
 40
0
 40
0
 40
1
 40
1
 40
1
 40
1
 10
52.107349
 20
28.618592
 30
0.0
 10
52.465760
 20
28.618586
 30
0.0
 10
52.756531
 20
28.476276
 30
0.0
 10
52.979664
 20
28.191658
 30
0.0
  0
SPLINE
  5
1b9
100
AcDbEntity
  8
Ebene_1
 62
7
100
AcDbSpline
 70
8
 71
3
 72
8
 73
4
 74
0
 40
0
 40
0
 40
0
 40
0
 40
1
 40
1
 40
1
 40
1
 10
52.979664
 20
28.191658
 30
0.0
 10
53.204547
 20
27.907034
 30
0.0
 10
53.316990
 20
27.532810
 30
0.0
 10
53.316993
 20
27.068983
 30
0.0
  0
SPLINE
  5
1ba
100
AcDbEntity
  8
Ebene_1
 62
7
100
AcDbSpline
 70
8
 71
3
 72
8
 73
4
 74
0
 40
0
 40
0
 40
0
 40
0
 40
1
 40
1
 40
1
 40
1
 10
53.316993
 20
27.068983
 30
0.0
 10
53.316990
 20
26.605154
 30
0.0
 10
53.204547
 20
26.230930
 30
0.0
 10
52.979664
 20
25.946309
 30
0.0
  0
SPLINE
  5
1bb
100
AcDbEntity
  8
Ebene_1
 62
7
100
AcDbSpline
 70
8
 71
3
 72
8
 73
4
 74
0
 40
0
 40
0
 40
0
 40
0
 40
1
 40
1
 40
1
 40
1
 10
52.979664
 20
25.946309
 30
0.0
 10
52.756531
 20
25.661688
 30
0.0
 10
52.465760
 20
25.519377
 30
0.0
 10
52.107349
 20
25.519377
 30
0.0
  0
SPLINE
  5
1bc
100
AcDbEntity
  8
Ebene_1
 62
7
100
AcDbSpline
 70
8
 71
3
 72
8
 73
4
 74
0
 40
0
 40
0
 40
0
 40
0
 40
1
 40
1
 40
1
 40
1
 10
52.107349
 20
25.519377
 30
0.0
 10
51.891246
 20
25.519377
 30
0.0
 10
51.705013
 20
25.561541
 30
0.0
 10
51.548648
 20
25.645875
 30
0.0
  0
SPLINE
  5
1bd
100
AcDbEntity
  8
Ebene_1
 62
7
100
AcDbSpline
 70
8
 71
3
 72
8
 73
4
 74
0
 40
0
 40
0
 40
0
 40
0
 40
1
 40
1
 40
1
 40
1
 10
51.548648
 20
25.645875
 30
0.0
 10
51.394038
 20
25.731964
 30
0.0
 10
51.265782
 20
25.862853
 30
0.0
 10
51.163880
 20
26.038548
 30
0.0
  0
SPLINE
  5
1be
100
AcDbEntity
  8
Ebene_1
 62
7
100
AcDbSpline
 70
8
 71
3
 72
8
 73
4
 74
0
 40
0
 40
0
 40
0
 40
0
 40
1
 40
1
 40
1
 40
1
 10
52.813633
 20
27.068983
 30
0.0
 10
52.813630
 20
27.425636
 30
0.0
 10
52.739840
 20
27.704988
 30
0.0
 10
52.592261
 20
27.907036
 30
0.0
  0
SPLINE
  5
1bf
100
AcDbEntity
  8
Ebene_1
 62
7
100
AcDbSpline
 70
8
 71
3
 72
8
 73
4
 74
0
 40
0
 40
0
 40
0
 40
0
 40
1
 40
1
 40
1
 40
1
 10
52.592261
 20
27.907036
 30
0.0
 10
52.446434
 20
28.110838
 30
0.0
 10
52.245266
 20
28.212740
 30
0.0
 10
51.988757
 20
28.212742
 30
0.0
  0
SPLINE
  5
1c0
100
AcDbEntity
  8
Ebene_1
 62
7
100
AcDbSpline
 70
8
 71
3
 72
8
 73
4
 74
0
 40
0
 40
0
 40
0
 40
0
 40
1
 40
1
 40
1
 40
1
 10
51.988757
 20
28.212742
 30
0.0
 10
51.732245
 20
28.212740
 30
0.0
 10
51.530199
 20
28.110838
 30
0.0
 10
51.382620
 20
27.907036
 30
0.0
  0
SPLINE
  5
1c1
100
AcDbEntity
  8
Ebene_1
 62
7
100
AcDbSpline
 70
8
 71
3
 72
8
 73
4
 74
0
 40
0
 40
0
 40
0
 40
0
 40
1
 40
1
 40
1
 40
1
 10
51.382620
 20
27.907036
 30
0.0
 10
51.236793
 20
27.704988
 30
0.0
 10
51.163880
 20
27.425636
 30
0.0
 10
51.163880
 20
27.068983
 30
0.0
  0
SPLINE
  5
1c2
100
AcDbEntity
  8
Ebene_1
 62
7
100
AcDbSpline
 70
8
 71
3
 72
8
 73
4
 74
0
 40
0
 40
0
 40
0
 40
0
 40
1
 40
1
 40
1
 40
1
 10
51.163880
 20
27.068983
 30
0.0
 10
51.163880
 20
26.712328
 30
0.0
 10
51.236793
 20
26.432098
 30
0.0
 10
51.382620
 20
26.228294
 30
0.0
  0
SPLINE
  5
1c3
100
AcDbEntity
  8
Ebene_1
 62
7
100
AcDbSpline
 70
8
 71
3
 72
8
 73
4
 74
0
 40
0
 40
0
 40
0
 40
0
 40
1
 40
1
 40
1
 40
1
 10
51.382620
 20
26.228294
 30
0.0
 10
51.530199
 20
26.026248
 30
0.0
 10
51.732245
 20
25.925224
 30
0.0
 10
51.988757
 20
25.925224
 30
0.0
  0
SPLINE
  5
1c4
100
AcDbEntity
  8
Ebene_1
 62
7
100
AcDbSpline
 70
8
 71
3
 72
8
 73
4
 74
0
 40
0
 40
0
 40
0
 40
0
 40
1
 40
1
 40
1
 40
1
 10
51.988757
 20
25.925224
 30
0.0
 10
52.245266
 20
25.925224
 30
0.0
 10
52.446434
 20
26.026248
 30
0.0
 10
52.592261
 20
26.228294
 30
0.0
  0
SPLINE
  5
1c5
100
AcDbEntity
  8
Ebene_1
 62
7
100
AcDbSpline
 70
8
 71
3
 72
8
 73
4
 74
0
 40
0
 40
0
 40
0
 40
0
 40
1
 40
1
 40
1
 40
1
 10
52.592261
 20
26.228294
 30
0.0
 10
52.739840
 20
26.432098
 30
0.0
 10
52.813630
 20
26.712328
 30
0.0
 10
52.813633
 20
27.068983
 30
0.0
  0
LWPOLYLINE
  5
1c6
100
AcDbEntity
  8
Ebene_1
 62
7
100
AcDbPolyline
 90
6
 70
0
 10
51.163880
 20
26.038548
 30
0.0
 10
51.163880
 20
24.473129
 30
0.0
 10
50.676336
 20
24.473129
 30
0.0
 10
50.676336
 20
28.547435
 30
0.0
 10
51.163880
 20
28.547435
 30
0.0
 10
51.163880
 20
28.099419
 30
0.0
  0
SPLINE
  5
1c7
100
AcDbEntity
  8
Ebene_1
 62
7
100
AcDbSpline
 70
8
 71
3
 72
8
 73
4
 74
0
 40
0
 40
0
 40
0
 40
0
 40
1
 40
1
 40
1
 40
1
 10
54.600424
 20
26.568259
 30
0.0
 10
54.600424
 20
26.327560
 30
0.0
 10
54.632925
 20
26.172950
 30
0.0
 10
54.697932
 20
26.104432
 30
0.0
  0
SPLINE
  5
1c8
100
AcDbEntity
  8
Ebene_1
 62
7
100
AcDbSpline
 70
8
 71
3
 72
8
 73
4
 74
0
 40
0
 40
0
 40
0
 40
0
 40
1
 40
1
 40
1
 40
1
 10
54.697932
 20
26.104432
 30
0.0
 10
54.764694
 20
26.035912
 30
0.0
 10
54.899100
 20
26.001650
 30
0.0
 10
55.101149
 20
26.001653
 30
0.0
  0
LWPOLYLINE
  5
1c9
100
AcDbEntity
  8
Ebene_1
 62
7
100
AcDbPolyline
 90
6
 70
0
 10
54.600424
 20
29.385489
 30
0.0
 10
54.600424
 20
28.547435
 30
0.0
 10
55.599237
 20
28.547435
 30
0.0
 10
55.599237
 20
28.170576
 30
0.0
 10
54.600424
 20
28.170576
 30
0.0
 10
54.600424
 20
26.568259
 30
0.0
  0
SPLINE
  5
1ca
100
AcDbEntity
  8
Ebene_1
 62
7
100
AcDbSpline
 70
8
 71
3
 72
8
 73
4
 74
0
 40
0
 40
0
 40
0
 40
0
 40
1
 40
1
 40
1
 40
1
 10
55.101149
 20
25.595803
 30
0.0
 10
54.726922
 20
25.595803
 30
0.0
 10
54.468655
 20
25.665201
 30
0.0
 10
54.326344
 20
25.803998
 30
0.0
  0
SPLINE
  5
1cb
100
AcDbEntity
  8
Ebene_1
 62
7
100
AcDbSpline
 70
8
 71
3
 72
8
 73
4
 74
0
 40
0
 40
0
 40
0
 40
0
 40
1
 40
1
 40
1
 40
1
 10
54.326344
 20
25.803998
 30
0.0
 10
54.184034
 20
25.944551
 30
0.0
 10
54.112877
 20
26.199304
 30
0.0
 10
54.112877
 20
26.568259
 30
0.0
  0
LWPOLYLINE
  5
1cc
100
AcDbEntity
  8
Ebene_1
 62
7
100
AcDbPolyline
 90
4
 70
0
 10
55.101149
 20
26.001653
 30
0.0
 10
55.599237
 20
26.001653
 30
0.0
 10
55.599237
 20
25.595803
 30
0.0
 10
55.101149
 20
25.595803
 30
0.0
  0
LWPOLYLINE
  5
1cd
100
AcDbEntity
  8
Ebene_1
 62
7
100
AcDbPolyline
 90
7
 70
0
 10
54.112877
 20
26.568259
 30
0.0
 10
54.112877
 20
28.170576
 30
0.0
 10
53.757099
 20
28.170576
 30
0.0
 10
53.757099
 20
28.547435
 30
0.0
 10
54.112877
 20
28.547435
 30
0.0
 10
54.112877
 20
29.385489
 30
0.0
 10
54.600424
 20
29.385489
 30
0.0
  0
SPLINE
  5
1ce
100
AcDbEntity
  8
Ebene_1
 62
7
100
AcDbSpline
 70
8
 71
3
 72
8
 73
4
 74
0
 40
0
 40
0
 40
0
 40
0
 40
1
 40
1
 40
1
 40
1
 10
56.534798
 20
26.955663
 30
0.0
 10
56.555880
 20
26.621844
 30
0.0
 10
56.656024
 20
26.367091
 30
0.0
 10
56.835232
 20
26.191399
 30
0.0
  0
SPLINE
  5
1cf
100
AcDbEntity
  8
Ebene_1
 62
7
100
AcDbSpline
 70
8
 71
3
 72
8
 73
4
 74
0
 40
0
 40
0
 40
0
 40
0
 40
1
 40
1
 40
1
 40
1
 10
56.835232
 20
26.191399
 30
0.0
 10
57.016193
 20
26.017463
 30
0.0
 10
57.267433
 20
25.930496
 30
0.0
 10
57.588952
 20
25.930496
 30
0.0
  0
SPLINE
  5
1d0
100
AcDbEntity
  8
Ebene_1
 62
7
100
AcDbSpline
 70
8
 71
3
 72
8
 73
4
 74
0
 40
0
 40
0
 40
0
 40
0
 40
1
 40
1
 40
1
 40
1
 10
57.588952
 20
25.930496
 30
0.0
 10
57.775184
 20
25.930496
 30
0.0
 10
57.955267
 20
25.953328
 30
0.0
 10
58.129207
 20
25.999017
 30
0.0
  0
SPLINE
  5
1d1
100
AcDbEntity
  8
Ebene_1
 62
7
100
AcDbSpline
 70
8
 71
3
 72
8
 73
4
 74
0
 40
0
 40
0
 40
0
 40
0
 40
1
 40
1
 40
1
 40
1
 10
58.129207
 20
25.999017
 30
0.0
 10
58.304896
 20
26.044697
 30
0.0
 10
58.478832
 20
26.113215
 30
0.0
 10
58.651013
 20
26.204576
 30
0.0
  0
LWPOLYLINE
  5
1d2
100
AcDbEntity
  8
Ebene_1
 62
7
100
AcDbPolyline
 90
3
 70
0
 10
58.764334
 20
27.192848
 30
0.0
 10
58.764334
 20
26.955663
 30
0.0
 10
56.534798
 20
26.955663
 30
0.0
  0
SPLINE
  5
1d3
100
AcDbEntity
  8
Ebene_1
 62
7
100
AcDbSpline
 70
8
 71
3
 72
8
 73
4
 74
0
 40
0
 40
0
 40
0
 40
0
 40
1
 40
1
 40
1
 40
1
 10
58.651013
 20
25.746019
 30
0.0
 10
58.477074
 20
25.672229
 30
0.0
 10
58.298746
 20
25.616007
 30
0.0
 10
58.116030
 20
25.577354
 30
0.0
  0
SPLINE
  5
1d4
100
AcDbEntity
  8
Ebene_1
 62
7
100
AcDbSpline
 70
8
 71
3
 72
8
 73
4
 74
0
 40
0
 40
0
 40
0
 40
0
 40
1
 40
1
 40
1
 40
1
 10
58.116030
 20
25.577354
 30
0.0
 10
57.933308
 20
25.538701
 30
0.0
 10
57.747953
 20
25.519377
 30
0.0
 10
57.559962
 20
25.519377
 30
0.0
  0
SPLINE
  5
1d5
100
AcDbEntity
  8
Ebene_1
 62
7
100
AcDbSpline
 70
8
 71
3
 72
8
 73
4
 74
0
 40
0
 40
0
 40
0
 40
0
 40
1
 40
1
 40
1
 40
1
 10
57.559962
 20
25.519377
 30
0.0
 10
57.089105
 20
25.519377
 30
0.0
 10
56.715759
 20
25.656416
 30
0.0
 10
56.439923
 20
25.930496
 30
0.0
  0
SPLINE
  5
1d6
100
AcDbEntity
  8
Ebene_1
 62
7
100
AcDbSpline
 70
8
 71
3
 72
8
 73
4
 74
0
 40
0
 40
0
 40
0
 40
0
 40
1
 40
1
 40
1
 40
1
 10
56.439923
 20
25.930496
 30
0.0
 10
56.165843
 20
26.204576
 30
0.0
 10
56.028802
 20
26.575286
 30
0.0
 10
56.028802
 20
27.042629
 30
0.0
  0
SPLINE
  5
1d7
100
AcDbEntity
  8
Ebene_1
 62
7
100
AcDbSpline
 70
8
 71
3
 72
8
 73
4
 74
0
 40
0
 40
0
 40
0
 40
0
 40
1
 40
1
 40
1
 40
1
 10
56.028802
 20
27.042629
 30
0.0
 10
56.028802
 20
27.525782
 30
0.0
 10
56.158816
 20
27.908792
 30
0.0
 10
56.418841
 20
28.191658
 30
0.0
  0
SPLINE
  5
1d8
100
AcDbEntity
  8
Ebene_1
 62
7
100
AcDbSpline
 70
8
 71
3
 72
8
 73
4
 74
0
 40
0
 40
0
 40
0
 40
0
 40
1
 40
1
 40
1
 40
1
 10
56.418841
 20
28.191658
 30
0.0
 10
56.680622
 20
28.476276
 30
0.0
 10
57.032883
 20
28.618586
 30
0.0
 10
57.475631
 20
28.618592
 30
0.0
  0
SPLINE
  5
1d9
100
AcDbEntity
  8
Ebene_1
 62
7
100
AcDbSpline
 70
8
 71
3
 72
8
 73
4
 74
0
 40
0
 40
0
 40
0
 40
0
 40
1
 40
1
 40
1
 40
1
 10
57.475631
 20
28.618592
 30
0.0
 10
57.872692
 20
28.618586
 30
0.0
 10
58.186303
 20
28.490333
 30
0.0
 10
58.416464
 20
28.233824
 30
0.0
  0
SPLINE
  5
1da
100
AcDbEntity
  8
Ebene_1
 62
7
100
AcDbSpline
 70
8
 71
3
 72
8
 73
4
 74
0
 40
0
 40
0
 40
0
 40
0
 40
1
 40
1
 40
1
 40
1
 10
58.416464
 20
28.233824
 30
0.0
 10
58.648374
 20
27.979068
 30
0.0
 10
58.764331
 20
27.632076
 30
0.0
 10
58.764334
 20
27.192848
 30
0.0
  0
SPLINE
  5
1db
100
AcDbEntity
  8
Ebene_1
 62
7
100
AcDbSpline
 70
8
 71
3
 72
8
 73
4
 74
0
 40
0
 40
0
 40
0
 40
0
 40
1
 40
1
 40
1
 40
1
 10
58.279422
 20
27.335158
 30
0.0
 10
58.275895
 20
27.600450
 30
0.0
 10
58.201238
 20
27.812159
 30
0.0
 10
58.055414
 20
27.970285
 30
0.0
  0
SPLINE
  5
1dc
100
AcDbEntity
  8
Ebene_1
 62
7
100
AcDbSpline
 70
8
 71
3
 72
8
 73
4
 74
0
 40
0
 40
0
 40
0
 40
0
 40
1
 40
1
 40
1
 40
1
 10
58.055414
 20
27.970285
 30
0.0
 10
57.911345
 20
28.128406
 30
0.0
 10
57.719841
 20
28.207468
 30
0.0
 10
57.480900
 20
28.207470
 30
0.0
  0
SPLINE
  5
1dd
100
AcDbEntity
  8
Ebene_1
 62
7
100
AcDbSpline
 70
8
 71
3
 72
8
 73
4
 74
0
 40
0
 40
0
 40
0
 40
0
 40
1
 40
1
 40
1
 40
1
 10
57.480900
 20
28.207470
 30
0.0
 10
57.210333
 20
28.207468
 30
0.0
 10
56.993353
 20
28.131042
 30
0.0
 10
56.829960
 20
27.978193
 30
0.0
  0
SPLINE
  5
1de
100
AcDbEntity
  8
Ebene_1
 62
7
100
AcDbSpline
 70
8
 71
3
 72
8
 73
4
 74
0
 40
0
 40
0
 40
0
 40
0
 40
1
 40
1
 40
1
 40
1
 10
56.829960
 20
27.978193
 30
0.0
 10
56.668323
 20
27.825336
 30
0.0
 10
56.575206
 20
27.610113
 30
0.0
 10
56.550608
 20
27.332522
 30
0.0
  0
LWPOLYLINE
  5
1df
100
AcDbEntity
  8
Ebene_1
 62
7
100
AcDbPolyline
 90
2
 70
0
 10
58.651013
 20
26.204576
 30
0.0
 10
58.651013
 20
25.746019
 30
0.0
  0
SPLINE
  5
1e0
100
AcDbEntity
  8
Ebene_1
 62
7
100
AcDbSpline
 70
8
 71
3
 72
8
 73
4
 74
0
 40
0
 40
0
 40
0
 40
0
 40
1
 40
1
 40
1
 40
1
 10
61.270588
 20
28.094150
 30
0.0
 10
61.216122
 20
28.125770
 30
0.0
 10
61.156387
 20
28.148610
 30
0.0
 10
61.091383
 20
28.162668
 30
0.0
  0
SPLINE
  5
1e1
100
AcDbEntity
  8
Ebene_1
 62
7
100
AcDbSpline
 70
8
 71
3
 72
8
 73
4
 74
0
 40
0
 40
0
 40
0
 40
0
 40
1
 40
1
 40
1
 40
1
 10
61.091383
 20
28.162668
 30
0.0
 10
61.028131
 20
28.178472
 30
0.0
 10
60.957855
 20
28.186374
 30
0.0
 10
60.880552
 20
28.186374
 30
0.0
  0
SPLINE
  5
1e2
100
AcDbEntity
  8
Ebene_1
 62
7
100
AcDbSpline
 70
8
 71
3
 72
8
 73
4
 74
0
 40
0
 40
0
 40
0
 40
0
 40
1
 40
1
 40
1
 40
1
 10
60.880552
 20
28.186374
 30
0.0
 10
60.606472
 20
28.186372
 30
0.0
 10
60.395640
 20
28.096769
 30
0.0
 10
60.248061
 20
27.917563
 30
0.0
  0
SPLINE
  5
1e3
100
AcDbEntity
  8
Ebene_1
 62
7
100
AcDbSpline
 70
8
 71
3
 72
8
 73
4
 74
0
 40
0
 40
0
 40
0
 40
0
 40
1
 40
1
 40
1
 40
1
 10
60.248061
 20
27.917563
 30
0.0
 10
60.102234
 20
27.740113
 30
0.0
 10
60.029321
 20
27.484479
 30
0.0
 10
60.029321
 20
27.150667
 30
0.0
  0
LWPOLYLINE
  5
1e4
100
AcDbEntity
  8
Ebene_1
 62
7
100
AcDbPolyline
 90
2
 70
0
 10
56.550608
 20
27.332522
 30
0.0
 10
58.279422
 20
27.335062
 30
0.0
  0
SPLINE
  5
1e5
100
AcDbEntity
  8
Ebene_1
 62
7
100
AcDbSpline
 70
8
 71
3
 72
8
 73
4
 74
0
 40
0
 40
0
 40
0
 40
0
 40
1
 40
1
 40
1
 40
1
 10
60.029321
 20
28.088864
 30
0.0
 10
60.131223
 20
28.268066
 30
0.0
 10
60.263871
 20
28.400716
 30
0.0
 10
60.427266
 20
28.486808
 30
0.0
  0
SPLINE
  5
1e6
100
AcDbEntity
  8
Ebene_1
 62
7
100
AcDbSpline
 70
8
 71
3
 72
8
 73
4
 74
0
 40
0
 40
0
 40
0
 40
0
 40
1
 40
1
 40
1
 40
1
 10
60.427266
 20
28.486808
 30
0.0
 10
60.590659
 20
28.574650
 30
0.0
 10
60.789191
 20
28.618572
 30
0.0
 10
61.022862
 20
28.618578
 30
0.0
  0
SPLINE
  5
1e7
100
AcDbEntity
  8
Ebene_1
 62
7
100
AcDbSpline
 70
8
 71
3
 72
8
 73
4
 74
0
 40
0
 40
0
 40
0
 40
0
 40
1
 40
1
 40
1
 40
1
 10
61.022862
 20
28.618578
 30
0.0
 10
61.056243
 20
28.618572
 30
0.0
 10
61.093138
 20
28.616038
 30
0.0
 10
61.133550
 20
28.610676
 30
0.0
  0
SPLINE
  5
1e8
100
AcDbEntity
  8
Ebene_1
 62
7
100
AcDbSpline
 70
8
 71
3
 72
8
 73
4
 74
0
 40
0
 40
0
 40
0
 40
0
 40
1
 40
1
 40
1
 40
1
 10
61.133550
 20
28.610676
 30
0.0
 10
61.173955
 20
28.607148
 30
0.0
 10
61.218758
 20
28.600995
 30
0.0
 10
61.267955
 20
28.592218
 30
0.0
  0
LWPOLYLINE
  5
1e9
100
AcDbEntity
  8
Ebene_1
 62
7
100
AcDbPolyline
 90
6
 70
0
 10
60.029321
 20
27.150667
 30
0.0
 10
60.029321
 20
25.595789
 30
0.0
 10
59.541777
 20
25.595789
 30
0.0
 10
59.541777
 20
28.547421
 30
0.0
 10
60.029321
 20
28.547421
 30
0.0
 10
60.029321
 20
28.088864
 30
0.0
  0
SPLINE
  5
1ea
100
AcDbEntity
  8
Ebene_1
 62
7
100
AcDbSpline
 70
8
 71
3
 72
8
 73
4
 74
0
 40
0
 40
0
 40
0
 40
0
 40
1
 40
1
 40
1
 40
1
 10
65.800817
 20
27.980826
 30
0.0
 10
65.922042
 20
28.198682
 30
0.0
 10
66.066989
 20
28.359441
 30
0.0
 10
66.235656
 20
28.463102
 30
0.0
  0
SPLINE
  5
1eb
100
AcDbEntity
  8
Ebene_1
 62
7
100
AcDbSpline
 70
8
 71
3
 72
8
 73
4
 74
0
 40
0
 40
0
 40
0
 40
0
 40
1
 40
1
 40
1
 40
1
 10
66.235656
 20
28.463102
 30
0.0
 10
66.404318
 20
28.566759
 30
0.0
 10
66.602850
 20
28.618586
 30
0.0
 10
66.831255
 20
28.618592
 30
0.0
  0
SPLINE
  5
1ec
100
AcDbEntity
  8
Ebene_1
 62
7
100
AcDbSpline
 70
8
 71
3
 72
8
 73
4
 74
0
 40
0
 40
0
 40
0
 40
0
 40
1
 40
1
 40
1
 40
1
 10
66.831255
 20
28.618592
 30
0.0
 10
67.138711
 20
28.618586
 30
0.0
 10
67.375896
 20
28.510538
 30
0.0
 10
67.542808
 20
28.294437
 30
0.0
  0
SPLINE
  5
1ed
100
AcDbEntity
  8
Ebene_1
 62
7
100
AcDbSpline
 70
8
 71
3
 72
8
 73
4
 74
0
 40
0
 40
0
 40
0
 40
0
 40
1
 40
1
 40
1
 40
1
 10
67.542808
 20
28.294437
 30
0.0
 10
67.709711
 20
28.080089
 30
0.0
 10
67.793164
 20
27.774386
 30
0.0
 10
67.793170
 20
27.377322
 30
0.0
  0
LWPOLYLINE
  5
1ee
100
AcDbEntity
  8
Ebene_1
 62
7
100
AcDbPolyline
 90
2
 70
0
 10
61.267955
 20
28.592218
 30
0.0
 10
61.270495
 20
28.094130
 30
0.0
  0
SPLINE
  5
1ef
100
AcDbEntity
  8
Ebene_1
 62
7
100
AcDbSpline
 70
8
 71
3
 72
8
 73
4
 74
0
 40
0
 40
0
 40
0
 40
0
 40
1
 40
1
 40
1
 40
1
 10
67.305623
 20
27.361512
 30
0.0
 10
67.305620
 20
27.644375
 30
0.0
 10
67.255548
 20
27.854326
 30
0.0
 10
67.155407
 20
27.991367
 30
0.0
  0
SPLINE
  5
1f0
100
AcDbEntity
  8
Ebene_1
 62
7
100
AcDbSpline
 70
8
 71
3
 72
8
 73
4
 74
0
 40
0
 40
0
 40
0
 40
0
 40
1
 40
1
 40
1
 40
1
 10
67.155407
 20
27.991367
 30
0.0
 10
67.055258
 20
28.128406
 30
0.0
 10
66.902406
 20
28.196927
 30
0.0
 10
66.696850
 20
28.196929
 30
0.0
  0
SPLINE
  5
1f1
100
AcDbEntity
  8
Ebene_1
 62
7
100
AcDbSpline
 70
8
 71
3
 72
8
 73
4
 74
0
 40
0
 40
0
 40
0
 40
0
 40
1
 40
1
 40
1
 40
1
 10
66.696850
 20
28.196929
 30
0.0
 10
66.445607
 20
28.196927
 30
0.0
 10
66.247072
 20
28.113474
 30
0.0
 10
66.101251
 20
27.946567
 30
0.0
  0
SPLINE
  5
1f2
100
AcDbEntity
  8
Ebene_1
 62
7
100
AcDbSpline
 70
8
 71
3
 72
8
 73
4
 74
0
 40
0
 40
0
 40
0
 40
0
 40
1
 40
1
 40
1
 40
1
 10
66.101251
 20
27.946567
 30
0.0
 10
65.955424
 20
27.779658
 30
0.0
 10
65.882512
 20
27.552136
 30
0.0
 10
65.882514
 20
27.264002
 30
0.0
  0
LWPOLYLINE
  5
1f3
100
AcDbEntity
  8
Ebene_1
 62
7
100
AcDbPolyline
 90
4
 70
0
 10
67.793170
 20
27.377322
 30
0.0
 10
67.793170
 20
25.595803
 30
0.0
 10
67.305623
 20
25.595803
 30
0.0
 10
67.305623
 20
27.361512
 30
0.0
  0
SPLINE
  5
1f4
100
AcDbEntity
  8
Ebene_1
 62
7
100
AcDbSpline
 70
8
 71
3
 72
8
 73
4
 74
0
 40
0
 40
0
 40
0
 40
0
 40
1
 40
1
 40
1
 40
1
 10
65.394967
 20
27.361512
 30
0.0
 10
65.394967
 20
27.646130
 30
0.0
 10
65.344892
 20
27.856084
 30
0.0
 10
65.244751
 20
27.991367
 30
0.0
  0
SPLINE
  5
1f5
100
AcDbEntity
  8
Ebene_1
 62
7
100
AcDbSpline
 70
8
 71
3
 72
8
 73
4
 74
0
 40
0
 40
0
 40
0
 40
0
 40
1
 40
1
 40
1
 40
1
 10
65.244751
 20
27.991367
 30
0.0
 10
65.144605
 20
28.128406
 30
0.0
 10
64.989995
 20
28.196927
 30
0.0
 10
64.780922
 20
28.196929
 30
0.0
  0
SPLINE
  5
1f6
100
AcDbEntity
  8
Ebene_1
 62
7
100
AcDbSpline
 70
8
 71
3
 72
8
 73
4
 74
0
 40
0
 40
0
 40
0
 40
0
 40
1
 40
1
 40
1
 40
1
 10
64.780922
 20
28.196929
 30
0.0
 10
64.533196
 20
28.196927
 30
0.0
 10
64.336419
 20
28.112593
 30
0.0
 10
64.190598
 20
27.943931
 30
0.0
  0
SPLINE
  5
1f7
100
AcDbEntity
  8
Ebene_1
 62
7
100
AcDbSpline
 70
8
 71
3
 72
8
 73
4
 74
0
 40
0
 40
0
 40
0
 40
0
 40
1
 40
1
 40
1
 40
1
 10
64.190598
 20
27.943931
 30
0.0
 10
64.044771
 20
27.777022
 30
0.0
 10
63.971859
 20
27.550378
 30
0.0
 10
63.971859
 20
27.264002
 30
0.0
  0
LWPOLYLINE
  5
1f8
100
AcDbEntity
  8
Ebene_1
 62
7
100
AcDbPolyline
 90
4
 70
0
 10
65.882514
 20
27.264002
 30
0.0
 10
65.882514
 20
25.595803
 30
0.0
 10
65.394967
 20
25.595803
 30
0.0
 10
65.394967
 20
27.361512
 30
0.0
  0
SPLINE
  5
1f9
100
AcDbEntity
  8
Ebene_1
 62
7
100
AcDbSpline
 70
8
 71
3
 72
8
 73
4
 74
0
 40
0
 40
0
 40
0
 40
0
 40
1
 40
1
 40
1
 40
1
 10
63.971859
 20
28.088878
 30
0.0
 10
64.082543
 20
28.269839
 30
0.0
 10
64.215193
 20
28.403364
 30
0.0
 10
64.369803
 20
28.489456
 30
0.0
  0
SPLINE
  5
1fa
100
AcDbEntity
  8
Ebene_1
 62
7
100
AcDbSpline
 70
8
 71
3
 72
8
 73
4
 74
0
 40
0
 40
0
 40
0
 40
0
 40
1
 40
1
 40
1
 40
1
 10
64.369803
 20
28.489456
 30
0.0
 10
64.524410
 20
28.575542
 30
0.0
 10
64.708010
 20
28.618586
 30
0.0
 10
64.920599
 20
28.618592
 30
0.0
  0
SPLINE
  5
1fb
100
AcDbEntity
  8
Ebene_1
 62
7
100
AcDbSpline
 70
8
 71
3
 72
8
 73
4
 74
0
 40
0
 40
0
 40
0
 40
0
 40
1
 40
1
 40
1
 40
1
 10
64.920599
 20
28.618592
 30
0.0
 10
65.134942
 20
28.618586
 30
0.0
 10
65.316783
 20
28.564123
 30
0.0
 10
65.466124
 20
28.455197
 30
0.0
  0
SPLINE
  5
1fc
100
AcDbEntity
  8
Ebene_1
 62
7
100
AcDbSpline
 70
8
 71
3
 72
8
 73
4
 74
0
 40
0
 40
0
 40
0
 40
0
 40
1
 40
1
 40
1
 40
1
 10
65.466124
 20
28.455197
 30
0.0
 10
65.617217
 20
28.346265
 30
0.0
 10
65.728782
 20
28.188141
 30
0.0
 10
65.800817
 20
27.980826
 30
0.0
  0
LWPOLYLINE
  5
1fd
100
AcDbEntity
  8
Ebene_1
 62
7
100
AcDbPolyline
 90
6
 70
0
 10
63.971859
 20
27.264002
 30
0.0
 10
63.971859
 20
25.595803
 30
0.0
 10
63.484314
 20
25.595803
 30
0.0
 10
63.484314
 20
28.547435
 30
0.0
 10
63.971859
 20
28.547435
 30
0.0
 10
63.971859
 20
28.088878
 30
0.0
  0
SPLINE
  5
1fe
100
AcDbEntity
  8
Ebene_1
 62
7
100
AcDbSpline
 70
8
 71
3
 72
8
 73
4
 74
0
 40
0
 40
0
 40
0
 40
0
 40
1
 40
1
 40
1
 40
1
 10
73.575209
 20
27.717287
 30
0.0
 10
73.829963
 20
27.662821
 30
0.0
 10
74.028495
 20
27.549500
 30
0.0
 10
74.170808
 20
27.377322
 30
0.0
  0
SPLINE
  5
1ff
100
AcDbEntity
  8
Ebene_1
 62
7
100
AcDbSpline
 70
8
 71
3
 72
8
 73
4
 74
0
 40
0
 40
0
 40
0
 40
0
 40
1
 40
1
 40
1
 40
1
 10
74.170808
 20
27.377322
 30
0.0
 10
74.314871
 20
27.205144
 30
0.0
 10
74.386906
 20
26.992555
 30
0.0
 10
74.386908
 20
26.739559
 30
0.0
  0
SPLINE
  5
200
100
AcDbEntity
  8
Ebene_1
 62
7
100
AcDbSpline
 70
8
 71
3
 72
8
 73
4
 74
0
 40
0
 40
0
 40
0
 40
0
 40
1
 40
1
 40
1
 40
1
 10
74.386908
 20
26.739559
 30
0.0
 10
74.386906
 20
26.351278
 30
0.0
 10
74.253381
 20
26.050844
 30
0.0
 10
73.986331
 20
25.838257
 30
0.0
  0
SPLINE
  5
201
100
AcDbEntity
  8
Ebene_1
 62
7
100
AcDbSpline
 70
8
 71
3
 72
8
 73
4
 74
0
 40
0
 40
0
 40
0
 40
0
 40
1
 40
1
 40
1
 40
1
 10
73.986331
 20
25.838257
 30
0.0
 10
73.719275
 20
25.625671
 30
0.0
 10
73.339779
 20
25.519377
 30
0.0
 10
72.847843
 20
25.519377
 30
0.0
  0
SPLINE
  5
202
100
AcDbEntity
  8
Ebene_1
 62
7
100
AcDbSpline
 70
8
 71
3
 72
8
 73
4
 74
0
 40
0
 40
0
 40
0
 40
0
 40
1
 40
1
 40
1
 40
1
 10
72.847843
 20
25.519377
 30
0.0
 10
72.682690
 20
25.519377
 30
0.0
 10
72.512270
 20
25.536057
 30
0.0
 10
72.336578
 20
25.569449
 30
0.0
  0
SPLINE
  5
203
100
AcDbEntity
  8
Ebene_1
 62
7
100
AcDbSpline
 70
8
 71
3
 72
8
 73
4
 74
0
 40
0
 40
0
 40
0
 40
0
 40
1
 40
1
 40
1
 40
1
 10
72.336578
 20
25.569449
 30
0.0
 10
72.162642
 20
25.601072
 30
0.0
 10
71.982559
 20
25.649388
 30
0.0
 10
71.796323
 20
25.714396
 30
0.0
  0
LWPOLYLINE
  5
204
100
AcDbEntity
  8
Ebene_1
 62
7
100
AcDbPolyline
 90
12
 70
0
 10
68.744547
 20
29.696464
 30
0.0
 10
69.232094
 20
29.696464
 30
0.0
 10
69.232094
 20
27.274543
 30
0.0
 10
70.678921
 20
28.547435
 30
0.0
 10
71.298237
 20
28.547435
 30
0.0
 10
69.732819
 20
27.166494
 30
0.0
 10
71.364122
 20
25.595803
 30
0.0
 10
70.731628
 20
25.595803
 30
0.0
 10
69.232094
 20
27.037357
 30
0.0
 10
69.232094
 20
25.595803
 30
0.0
 10
68.744547
 20
25.595803
 30
0.0
 10
68.744547
 20
29.696464
 30
0.0
  0
SPLINE
  5
205
100
AcDbEntity
  8
Ebene_1
 62
7
100
AcDbSpline
 70
8
 71
3
 72
8
 73
4
 74
0
 40
0
 40
0
 40
0
 40
0
 40
1
 40
1
 40
1
 40
1
 10
71.796323
 20
26.228294
 30
0.0
 10
71.943905
 20
26.142205
 30
0.0
 10
72.105543
 20
26.077198
 30
0.0
 10
72.281234
 20
26.033276
 30
0.0
  0
SPLINE
  5
206
100
AcDbEntity
  8
Ebene_1
 62
7
100
AcDbSpline
 70
8
 71
3
 72
8
 73
4
 74
0
 40
0
 40
0
 40
0
 40
0
 40
1
 40
1
 40
1
 40
1
 10
72.281234
 20
26.033276
 30
0.0
 10
72.456926
 20
25.989353
 30
0.0
 10
72.640526
 20
25.967391
 30
0.0
 10
72.832031
 20
25.967391
 30
0.0
  0
SPLINE
  5
207
100
AcDbEntity
  8
Ebene_1
 62
7
100
AcDbSpline
 70
8
 71
3
 72
8
 73
4
 74
0
 40
0
 40
0
 40
0
 40
0
 40
1
 40
1
 40
1
 40
1
 10
72.832031
 20
25.967391
 30
0.0
 10
73.165846
 20
25.967391
 30
0.0
 10
73.419719
 20
26.033276
 30
0.0
 10
73.593658
 20
26.165045
 30
0.0
  0
SPLINE
  5
208
100
AcDbEntity
  8
Ebene_1
 62
7
100
AcDbSpline
 70
8
 71
3
 72
8
 73
4
 74
0
 40
0
 40
0
 40
0
 40
0
 40
1
 40
1
 40
1
 40
1
 10
73.593658
 20
26.165045
 30
0.0
 10
73.769347
 20
26.296815
 30
0.0
 10
73.857194
 20
26.488319
 30
0.0
 10
73.857197
 20
26.739559
 30
0.0
  0
SPLINE
  5
209
100
AcDbEntity
  8
Ebene_1
 62
7
100
AcDbSpline
 70
8
 71
3
 72
8
 73
4
 74
0
 40
0
 40
0
 40
0
 40
0
 40
1
 40
1
 40
1
 40
1
 10
73.857197
 20
26.739559
 30
0.0
 10
73.857194
 20
26.971473
 30
0.0
 10
73.775497
 20
27.152436
 30
0.0
 10
73.612104
 20
27.282450
 30
0.0
  0
SPLINE
  5
20a
100
AcDbEntity
  8
Ebene_1
 62
7
100
AcDbSpline
 70
8
 71
3
 72
8
 73
4
 74
0
 40
0
 40
0
 40
0
 40
0
 40
1
 40
1
 40
1
 40
1
 10
73.612104
 20
27.282450
 30
0.0
 10
73.450467
 20
27.414217
 30
0.0
 10
73.224700
 20
27.480102
 30
0.0
 10
72.934810
 20
27.480105
 30
0.0
  0
LWPOLYLINE
  5
20b
100
AcDbEntity
  8
Ebene_1
 62
7
100
AcDbPolyline
 90
2
 70
0
 10
71.796323
 20
25.714396
 30
0.0
 10
71.796323
 20
26.228294
 30
0.0
  0
SPLINE
  5
20c
100
AcDbEntity
  8
Ebene_1
 62
7
100
AcDbSpline
 70
8
 71
3
 72
8
 73
4
 74
0
 40
0
 40
0
 40
0
 40
0
 40
1
 40
1
 40
1
 40
1
 10
72.955895
 20
27.917577
 30
0.0
 10
73.217673
 20
27.917575
 30
0.0
 10
73.417963
 20
27.969405
 30
0.0
 10
73.556763
 20
28.073065
 30
0.0
  0
SPLINE
  5
20d
100
AcDbEntity
  8
Ebene_1
 62
7
100
AcDbSpline
 70
8
 71
3
 72
8
 73
4
 74
0
 40
0
 40
0
 40
0
 40
0
 40
1
 40
1
 40
1
 40
1
 10
73.556763
 20
28.073065
 30
0.0
 10
73.695557
 20
28.178478
 30
0.0
 10
73.764956
 20
28.329574
 30
0.0
 10
73.764958
 20
28.526353
 30
0.0
  0
SPLINE
  5
20e
100
AcDbEntity
  8
Ebene_1
 62
7
100
AcDbSpline
 70
8
 71
3
 72
8
 73
4
 74
0
 40
0
 40
0
 40
0
 40
0
 40
1
 40
1
 40
1
 40
1
 10
73.764958
 20
28.526353
 30
0.0
 10
73.764956
 20
28.728396
 30
0.0
 10
73.692921
 20
28.883003
 30
0.0
 10
73.548855
 20
28.990180
 30
0.0
  0
SPLINE
  5
20f
100
AcDbEntity
  8
Ebene_1
 62
7
100
AcDbSpline
 70
8
 71
3
 72
8
 73
4
 74
0
 40
0
 40
0
 40
0
 40
0
 40
1
 40
1
 40
1
 40
1
 10
73.548855
 20
28.990180
 30
0.0
 10
73.406542
 20
29.099106
 30
0.0
 10
73.201863
 20
29.153570
 30
0.0
 10
72.934810
 20
29.153575
 30
0.0
  0
SPLINE
  5
210
100
AcDbEntity
  8
Ebene_1
 62
7
100
AcDbSpline
 70
8
 71
3
 72
8
 73
4
 74
0
 40
0
 40
0
 40
0
 40
0
 40
1
 40
1
 40
1
 40
1
 10
72.934810
 20
29.153575
 30
0.0
 10
72.788986
 20
29.153570
 30
0.0
 10
72.632618
 20
29.137771
 30
0.0
 10
72.465712
 20
29.106137
 30
0.0
  0
SPLINE
  5
211
100
AcDbEntity
  8
Ebene_1
 62
7
100
AcDbSpline
 70
8
 71
3
 72
8
 73
4
 74
0
 40
0
 40
0
 40
0
 40
0
 40
1
 40
1
 40
1
 40
1
 10
72.465712
 20
29.106137
 30
0.0
 10
72.298803
 20
29.074508
 30
0.0
 10
72.115206
 20
29.025317
 30
0.0
 10
71.914916
 20
28.958557
 30
0.0
  0
LWPOLYLINE
  5
212
100
AcDbEntity
  8
Ebene_1
 62
7
100
AcDbPolyline
 90
4
 70
0
 10
72.934810
 20
27.480105
 30
0.0
 10
72.476253
 20
27.480105
 30
0.0
 10
72.476253
 20
27.917577
 30
0.0
 10
72.955895
 20
27.917577
 30
0.0
  0
SPLINE
  5
213
100
AcDbEntity
  8
Ebene_1
 62
7
100
AcDbSpline
 70
8
 71
3
 72
8
 73
4
 74
0
 40
0
 40
0
 40
0
 40
0
 40
1
 40
1
 40
1
 40
1
 10
71.914916
 20
29.432925
 30
0.0
 10
72.116961
 20
29.489143
 30
0.0
 10
72.305830
 20
29.531310
 30
0.0
 10
72.481525
 20
29.559425
 30
0.0
  0
SPLINE
  5
214
100
AcDbEntity
  8
Ebene_1
 62
7
100
AcDbSpline
 70
8
 71
3
 72
8
 73
4
 74
0
 40
0
 40
0
 40
0
 40
0
 40
1
 40
1
 40
1
 40
1
 10
72.481525
 20
29.559425
 30
0.0
 10
72.658972
 20
29.587534
 30
0.0
 10
72.825881
 20
29.601586
 30
0.0
 10
72.982249
 20
29.601589
 30
0.0
  0
SPLINE
  5
215
100
AcDbEntity
  8
Ebene_1
 62
7
100
AcDbSpline
 70
8
 71
3
 72
8
 73
4
 74
0
 40
0
 40
0
 40
0
 40
0
 40
1
 40
1
 40
1
 40
1
 10
72.982249
 20
29.601589
 30
0.0
 10
73.386338
 20
29.601586
 30
0.0
 10
73.706098
 20
29.509347
 30
0.0
 10
73.941528
 20
29.324876
 30
0.0
  0
SPLINE
  5
216
100
AcDbEntity
  8
Ebene_1
 62
7
100
AcDbSpline
 70
8
 71
3
 72
8
 73
4
 74
0
 40
0
 40
0
 40
0
 40
0
 40
1
 40
1
 40
1
 40
1
 10
73.941528
 20
29.324876
 30
0.0
 10
74.176955
 20
29.142151
 30
0.0
 10
74.294667
 20
28.894425
 30
0.0
 10
74.294670
 20
28.581694
 30
0.0
  0
SPLINE
  5
217
100
AcDbEntity
  8
Ebene_1
 62
7
100
AcDbSpline
 70
8
 71
3
 72
8
 73
4
 74
0
 40
0
 40
0
 40
0
 40
0
 40
1
 40
1
 40
1
 40
1
 10
74.294670
 20
28.581694
 30
0.0
 10
74.294667
 20
28.363833
 30
0.0
 10
74.232296
 20
28.179358
 30
0.0
 10
74.107559
 20
28.028265
 30
0.0
  0
SPLINE
  5
218
100
AcDbEntity
  8
Ebene_1
 62
7
100
AcDbSpline
 70
8
 71
3
 72
8
 73
4
 74
0
 40
0
 40
0
 40
0
 40
0
 40
1
 40
1
 40
1
 40
1
 10
74.107559
 20
28.028265
 30
0.0
 10
73.982814
 20
27.878924
 30
0.0
 10
73.805364
 20
27.775264
 30
0.0
 10
73.575209
 20
27.717287
 30
0.0
  0
LWPOLYLINE
  5
219
100
AcDbEntity
  8
Ebene_1
 62
7
100
AcDbPolyline
 90
2
 70
0
 10
71.914916
 20
28.958557
 30
0.0
 10
71.914916
 20
29.432925
 30
0.0
  0
SPLINE
  5
21a
100
AcDbEntity
  8
Ebene_1
 62
7
100
AcDbSpline
 70
8
 71
3
 72
8
 73
4
 74
0
 40
0
 40
0
 40
0
 40
0
 40
1
 40
1
 40
1
 40
1
 10
9.527390
 20
8.408357
 30
0.0
 10
9.353454
 20
8.408354
 30
0.0
 10
9.232225
 20
8.373214
 30
0.0
 10
9.163708
 20
8.302941
 30
0.0
  0
SPLINE
  5
21b
100
AcDbEntity
  8
Ebene_1
 62
7
100
AcDbSpline
 70
8
 71
3
 72
8
 73
4
 74
0
 40
0
 40
0
 40
0
 40
0
 40
1
 40
1
 40
1
 40
1
 10
9.163708
 20
8.302941
 30
0.0
 10
9.096942
 20
8.232662
 30
0.0
 10
9.063561
 20
8.106162
 30
0.0
 10
9.063561
 20
7.923445
 30
0.0
  0
LWPOLYLINE
  5
21c
100
AcDbEntity
  8
Ebene_1
 62
7
100
AcDbPolyline
 90
3
 70
0
 10
9.991217
 20
8.811570
 30
0.0
 10
9.991217
 20
8.408357
 30
0.0
 10
9.527390
 20
8.408357
 30
0.0
  0
SPLINE
  5
21d
100
AcDbEntity
  8
Ebene_1
 62
7
100
AcDbSpline
 70
8
 71
3
 72
8
 73
4
 74
0
 40
0
 40
0
 40
0
 40
0
 40
1
 40
1
 40
1
 40
1
 10
8.576014
 20
7.868104
 30
0.0
 10
8.576014
 20
8.196645
 30
0.0
 10
8.652439
 20
8.435586
 30
0.0
 10
8.805294
 20
8.584929
 30
0.0
  0
SPLINE
  5
21e
100
AcDbEntity
  8
Ebene_1
 62
7
100
AcDbSpline
 70
8
 71
3
 72
8
 73
4
 74
0
 40
0
 40
0
 40
0
 40
0
 40
1
 40
1
 40
1
 40
1
 10
8.805294
 20
8.584929
 30
0.0
 10
8.958145
 20
8.736020
 30
0.0
 10
9.200600
 20
8.811568
 30
0.0
 10
9.532660
 20
8.811570
 30
0.0
  0
LWPOLYLINE
  5
21f
100
AcDbEntity
  8
Ebene_1
 62
7
100
AcDbPolyline
 90
12
 70
0
 10
9.063561
 20
7.923445
 30
0.0
 10
9.063561
 20
7.662542
 30
0.0
 10
9.862083
 20
7.662542
 30
0.0
 10
9.862083
 20
7.285682
 30
0.0
 10
9.063561
 20
7.285682
 30
0.0
 10
9.063561
 20
4.710910
 30
0.0
 10
8.576014
 20
4.710910
 30
0.0
 10
8.576014
 20
7.285682
 30
0.0
 10
8.112187
 20
7.285682
 30
0.0
 10
8.112187
 20
7.662542
 30
0.0
 10
8.576014
 20
7.662542
 30
0.0
 10
8.576014
 20
7.868104
 30
0.0
  0
SPLINE
  5
220
100
AcDbEntity
  8
Ebene_1
 62
7
100
AcDbSpline
 70
8
 71
3
 72
8
 73
4
 74
0
 40
0
 40
0
 40
0
 40
0
 40
1
 40
1
 40
1
 40
1
 10
11.538190
 20
7.322577
 30
0.0
 10
11.278164
 20
7.322574
 30
0.0
 10
11.072605
 20
7.220675
 30
0.0
 10
10.921509
 20
7.016874
 30
0.0
  0
SPLINE
  5
221
100
AcDbEntity
  8
Ebene_1
 62
7
100
AcDbSpline
 70
8
 71
3
 72
8
 73
4
 74
0
 40
0
 40
0
 40
0
 40
0
 40
1
 40
1
 40
1
 40
1
 10
10.921509
 20
7.016874
 30
0.0
 10
10.770413
 20
6.814826
 30
0.0
 10
10.694865
 20
6.537232
 30
0.0
 10
10.694865
 20
6.184090
 30
0.0
  0
SPLINE
  5
222
100
AcDbEntity
  8
Ebene_1
 62
7
100
AcDbSpline
 70
8
 71
3
 72
8
 73
4
 74
0
 40
0
 40
0
 40
0
 40
0
 40
1
 40
1
 40
1
 40
1
 10
10.694865
 20
6.184090
 30
0.0
 10
10.694865
 20
5.830948
 30
0.0
 10
10.769535
 20
5.552477
 30
0.0
 10
10.918873
 20
5.348673
 30
0.0
  0
SPLINE
  5
223
100
AcDbEntity
  8
Ebene_1
 62
7
100
AcDbSpline
 70
8
 71
3
 72
8
 73
4
 74
0
 40
0
 40
0
 40
0
 40
0
 40
1
 40
1
 40
1
 40
1
 10
10.918873
 20
5.348673
 30
0.0
 10
11.069969
 20
5.146627
 30
0.0
 10
11.276406
 20
5.045603
 30
0.0
 10
11.538190
 20
5.045603
 30
0.0
  0
SPLINE
  5
224
100
AcDbEntity
  8
Ebene_1
 62
7
100
AcDbSpline
 70
8
 71
3
 72
8
 73
4
 74
0
 40
0
 40
0
 40
0
 40
0
 40
1
 40
1
 40
1
 40
1
 10
11.538190
 20
5.045603
 30
0.0
 10
11.796457
 20
5.045603
 30
0.0
 10
12.001139
 20
5.147505
 30
0.0
 10
12.152235
 20
5.351309
 30
0.0
  0
SPLINE
  5
225
100
AcDbEntity
  8
Ebene_1
 62
7
100
AcDbSpline
 70
8
 71
3
 72
8
 73
4
 74
0
 40
0
 40
0
 40
0
 40
0
 40
1
 40
1
 40
1
 40
1
 10
12.152235
 20
5.351309
 30
0.0
 10
12.303328
 20
5.555110
 30
0.0
 10
12.378876
 20
5.832704
 30
0.0
 10
12.378879
 20
6.184090
 30
0.0
  0
SPLINE
  5
226
100
AcDbEntity
  8
Ebene_1
 62
7
100
AcDbSpline
 70
8
 71
3
 72
8
 73
4
 74
0
 40
0
 40
0
 40
0
 40
0
 40
1
 40
1
 40
1
 40
1
 10
12.378879
 20
6.184090
 30
0.0
 10
12.378876
 20
6.533718
 30
0.0
 10
12.303328
 20
6.810431
 30
0.0
 10
12.152235
 20
7.014238
 30
0.0
  0
SPLINE
  5
227
100
AcDbEntity
  8
Ebene_1
 62
7
100
AcDbSpline
 70
8
 71
3
 72
8
 73
4
 74
0
 40
0
 40
0
 40
0
 40
0
 40
1
 40
1
 40
1
 40
1
 10
12.152235
 20
7.014238
 30
0.0
 10
12.001139
 20
7.219795
 30
0.0
 10
11.796457
 20
7.322574
 30
0.0
 10
11.538190
 20
7.322577
 30
0.0
  0
SPLINE
  5
228
100
AcDbEntity
  8
Ebene_1
 62
7
100
AcDbSpline
 70
8
 71
3
 72
8
 73
4
 74
0
 40
0
 40
0
 40
0
 40
0
 40
1
 40
1
 40
1
 40
1
 10
11.538190
 20
7.733699
 30
0.0
 10
11.959850
 20
7.733696
 30
0.0
 10
12.291029
 20
7.596655
 30
0.0
 10
12.531731
 20
7.322577
 30
0.0
  0
SPLINE
  5
229
100
AcDbEntity
  8
Ebene_1
 62
7
100
AcDbSpline
 70
8
 71
3
 72
8
 73
4
 74
0
 40
0
 40
0
 40
0
 40
0
 40
1
 40
1
 40
1
 40
1
 10
12.531731
 20
7.322577
 30
0.0
 10
12.772427
 20
7.048494
 30
0.0
 10
12.892775
 20
6.669001
 30
0.0
 10
12.892778
 20
6.184090
 30
0.0
  0
SPLINE
  5
22a
100
AcDbEntity
  8
Ebene_1
 62
7
100
AcDbSpline
 70
8
 71
3
 72
8
 73
4
 74
0
 40
0
 40
0
 40
0
 40
0
 40
1
 40
1
 40
1
 40
1
 10
12.892778
 20
6.184090
 30
0.0
 10
12.892775
 20
5.700937
 30
0.0
 10
12.772427
 20
5.321441
 30
0.0
 10
12.531731
 20
5.045603
 30
0.0
  0
SPLINE
  5
22b
100
AcDbEntity
  8
Ebene_1
 62
7
100
AcDbSpline
 70
8
 71
3
 72
8
 73
4
 74
0
 40
0
 40
0
 40
0
 40
0
 40
1
 40
1
 40
1
 40
1
 10
12.531731
 20
5.045603
 30
0.0
 10
12.291029
 20
4.771523
 30
0.0
 10
11.959850
 20
4.634484
 30
0.0
 10
11.538190
 20
4.634484
 30
0.0
  0
SPLINE
  5
22c
100
AcDbEntity
  8
Ebene_1
 62
7
100
AcDbSpline
 70
8
 71
3
 72
8
 73
4
 74
0
 40
0
 40
0
 40
0
 40
0
 40
1
 40
1
 40
1
 40
1
 10
11.538190
 20
4.634484
 30
0.0
 10
11.114769
 20
4.634484
 30
0.0
 10
10.782712
 20
4.771523
 30
0.0
 10
10.542013
 20
5.045603
 30
0.0
  0
SPLINE
  5
22d
100
AcDbEntity
  8
Ebene_1
 62
7
100
AcDbSpline
 70
8
 71
3
 72
8
 73
4
 74
0
 40
0
 40
0
 40
0
 40
0
 40
1
 40
1
 40
1
 40
1
 10
10.542013
 20
5.045603
 30
0.0
 10
10.303073
 20
5.321441
 30
0.0
 10
10.183599
 20
5.700937
 30
0.0
 10
10.183602
 20
6.184090
 30
0.0
  0
SPLINE
  5
22e
100
AcDbEntity
  8
Ebene_1
 62
7
100
AcDbSpline
 70
8
 71
3
 72
8
 73
4
 74
0
 40
0
 40
0
 40
0
 40
0
 40
1
 40
1
 40
1
 40
1
 10
10.183602
 20
6.184090
 30
0.0
 10
10.183599
 20
6.669001
 30
0.0
 10
10.303073
 20
7.048494
 30
0.0
 10
10.542013
 20
7.322577
 30
0.0
  0
SPLINE
  5
22f
100
AcDbEntity
  8
Ebene_1
 62
7
100
AcDbSpline
 70
8
 71
3
 72
8
 73
4
 74
0
 40
0
 40
0
 40
0
 40
0
 40
1
 40
1
 40
1
 40
1
 10
10.542013
 20
7.322577
 30
0.0
 10
10.782712
 20
7.596655
 30
0.0
 10
11.114769
 20
7.733696
 30
0.0
 10
11.538190
 20
7.733699
 30
0.0
  0
LWPOLYLINE
  5
230
100
AcDbEntity
  8
Ebene_1
 62
7
100
AcDbPolyline
 90
2
 70
0
 10
9.532660
 20
8.811570
 30
0.0
 10
9.991217
 20
8.811570
 30
0.0
  0
LWPOLYLINE
  5
231
100
AcDbEntity
  8
Ebene_1
 62
7
100
AcDbPolyline
 90
5
 70
0
 10
13.693936
 20
8.811570
 30
0.0
 10
14.178847
 20
8.811570
 30
0.0
 10
14.178847
 20
4.710910
 30
0.0
 10
13.693936
 20
4.710910
 30
0.0
 10
13.693936
 20
8.811570
 30
0.0
  0
LWPOLYLINE
  5
232
100
AcDbEntity
  8
Ebene_1
 62
7
100
AcDbPolyline
 90
5
 70
0
 10
15.190837
 20
8.811570
 30
0.0
 10
15.675748
 20
8.811570
 30
0.0
 10
15.675748
 20
4.710910
 30
0.0
 10
15.190837
 20
4.710910
 30
0.0
 10
15.190837
 20
8.811570
 30
0.0
  0
SPLINE
  5
233
100
AcDbEntity
  8
Ebene_1
 62
7
100
AcDbSpline
 70
8
 71
3
 72
8
 73
4
 74
0
 40
0
 40
0
 40
0
 40
0
 40
1
 40
1
 40
1
 40
1
 10
21.223238
 20
6.194634
 30
0.0
 10
20.831440
 20
6.194631
 30
0.0
 10
20.559996
 20
6.149828
 30
0.0
 10
20.408903
 20
6.060228
 30
0.0
  0
SPLINE
  5
234
100
AcDbEntity
  8
Ebene_1
 62
7
100
AcDbSpline
 70
8
 71
3
 72
8
 73
4
 74
0
 40
0
 40
0
 40
0
 40
0
 40
1
 40
1
 40
1
 40
1
 10
20.408903
 20
6.060228
 30
0.0
 10
20.257807
 20
5.970623
 30
0.0
 10
20.182259
 20
5.817771
 30
0.0
 10
20.182259
 20
5.601671
 30
0.0
  0
SPLINE
  5
235
100
AcDbEntity
  8
Ebene_1
 62
7
100
AcDbSpline
 70
8
 71
3
 72
8
 73
4
 74
0
 40
0
 40
0
 40
0
 40
0
 40
1
 40
1
 40
1
 40
1
 10
20.182259
 20
5.601671
 30
0.0
 10
20.182259
 20
5.429490
 30
0.0
 10
20.238480
 20
5.292451
 30
0.0
 10
20.350923
 20
5.190549
 30
0.0
  0
SPLINE
  5
236
100
AcDbEntity
  8
Ebene_1
 62
7
100
AcDbSpline
 70
8
 71
3
 72
8
 73
4
 74
0
 40
0
 40
0
 40
0
 40
0
 40
1
 40
1
 40
1
 40
1
 10
20.350923
 20
5.190549
 30
0.0
 10
20.465121
 20
5.090406
 30
0.0
 10
20.619731
 20
5.040334
 30
0.0
 10
20.814752
 20
5.040334
 30
0.0
  0
SPLINE
  5
237
100
AcDbEntity
  8
Ebene_1
 62
7
100
AcDbSpline
 70
8
 71
3
 72
8
 73
4
 74
0
 40
0
 40
0
 40
0
 40
0
 40
1
 40
1
 40
1
 40
1
 10
20.814752
 20
5.040334
 30
0.0
 10
21.083561
 20
5.040334
 30
0.0
 10
21.298783
 20
5.135205
 30
0.0
 10
21.460420
 20
5.324955
 30
0.0
  0
SPLINE
  5
238
100
AcDbEntity
  8
Ebene_1
 62
7
100
AcDbSpline
 70
8
 71
3
 72
8
 73
4
 74
0
 40
0
 40
0
 40
0
 40
0
 40
1
 40
1
 40
1
 40
1
 10
21.460420
 20
5.324955
 30
0.0
 10
21.623813
 20
5.516459
 30
0.0
 10
21.705511
 20
5.770335
 30
0.0
 10
21.705514
 20
6.086582
 30
0.0
  0
LWPOLYLINE
  5
239
100
AcDbEntity
  8
Ebene_1
 62
7
100
AcDbPolyline
 90
8
 70
0
 10
16.339865
 20
7.662542
 30
0.0
 10
16.853766
 20
7.662542
 30
0.0
 10
17.776150
 20
5.185280
 30
0.0
 10
18.698535
 20
7.662542
 30
0.0
 10
19.212436
 20
7.662542
 30
0.0
 10
18.105574
 20
4.710910
 30
0.0
 10
17.446727
 20
4.710910
 30
0.0
 10
16.339865
 20
7.662542
 30
0.0
  0
LWPOLYLINE
  5
23a
100
AcDbEntity
  8
Ebene_1
 62
7
100
AcDbPolyline
 90
3
 70
0
 10
21.705514
 20
6.086582
 30
0.0
 10
21.705514
 20
6.194634
 30
0.0
 10
21.223238
 20
6.194634
 30
0.0
  0
SPLINE
  5
23b
100
AcDbEntity
  8
Ebene_1
 62
7
100
AcDbSpline
 70
8
 71
3
 72
8
 73
4
 74
0
 40
0
 40
0
 40
0
 40
0
 40
1
 40
1
 40
1
 40
1
 10
21.705514
 20
5.158926
 30
0.0
 10
21.594823
 20
4.979718
 30
0.0
 10
21.456907
 20
4.847071
 30
0.0
 10
21.291756
 20
4.760982
 30
0.0
  0
SPLINE
  5
23c
100
AcDbEntity
  8
Ebene_1
 62
7
100
AcDbSpline
 70
8
 71
3
 72
8
 73
4
 74
0
 40
0
 40
0
 40
0
 40
0
 40
1
 40
1
 40
1
 40
1
 10
21.291756
 20
4.760982
 30
0.0
 10
21.126605
 20
4.676651
 30
0.0
 10
20.924557
 20
4.634484
 30
0.0
 10
20.685619
 20
4.634484
 30
0.0
  0
SPLINE
  5
23d
100
AcDbEntity
  8
Ebene_1
 62
7
100
AcDbSpline
 70
8
 71
3
 72
8
 73
4
 74
0
 40
0
 40
0
 40
0
 40
0
 40
1
 40
1
 40
1
 40
1
 10
20.685619
 20
4.634484
 30
0.0
 10
20.383427
 20
4.634484
 30
0.0
 10
20.142728
 20
4.718815
 30
0.0
 10
19.963522
 20
4.887479
 30
0.0
  0
SPLINE
  5
23e
100
AcDbEntity
  8
Ebene_1
 62
7
100
AcDbSpline
 70
8
 71
3
 72
8
 73
4
 74
0
 40
0
 40
0
 40
0
 40
0
 40
1
 40
1
 40
1
 40
1
 10
19.963522
 20
4.887479
 30
0.0
 10
19.786072
 20
5.057902
 30
0.0
 10
19.697347
 20
5.285424
 30
0.0
 10
19.697347
 20
5.570045
 30
0.0
  0
SPLINE
  5
23f
100
AcDbEntity
  8
Ebene_1
 62
7
100
AcDbSpline
 70
8
 71
3
 72
8
 73
4
 74
0
 40
0
 40
0
 40
0
 40
0
 40
1
 40
1
 40
1
 40
1
 10
19.697347
 20
5.570045
 30
0.0
 10
19.697347
 20
5.902102
 30
0.0
 10
19.808035
 20
6.152464
 30
0.0
 10
20.029407
 20
6.321131
 30
0.0
  0
SPLINE
  5
240
100
AcDbEntity
  8
Ebene_1
 62
7
100
AcDbSpline
 70
8
 71
3
 72
8
 73
4
 74
0
 40
0
 40
0
 40
0
 40
0
 40
1
 40
1
 40
1
 40
1
 10
20.029407
 20
6.321131
 30
0.0
 10
20.252535
 20
6.489793
 30
0.0
 10
20.584595
 20
6.574127
 30
0.0
 10
21.025584
 20
6.574130
 30
0.0
  0
LWPOLYLINE
  5
241
100
AcDbEntity
  8
Ebene_1
 62
7
100
AcDbPolyline
 90
4
 70
0
 10
22.190425
 20
6.394921
 30
0.0
 10
22.190425
 20
4.710910
 30
0.0
 10
21.705514
 20
4.710910
 30
0.0
 10
21.705514
 20
5.158926
 30
0.0
  0
SPLINE
  5
242
100
AcDbEntity
  8
Ebene_1
 62
7
100
AcDbSpline
 70
8
 71
3
 72
8
 73
4
 74
0
 40
0
 40
0
 40
0
 40
0
 40
1
 40
1
 40
1
 40
1
 10
21.705514
 20
6.621566
 30
0.0
 10
21.705511
 20
6.844693
 30
0.0
 10
21.631718
 20
7.016871
 30
0.0
 10
21.484141
 20
7.138100
 30
0.0
  0
SPLINE
  5
243
100
AcDbEntity
  8
Ebene_1
 62
7
100
AcDbSpline
 70
8
 71
3
 72
8
 73
4
 74
0
 40
0
 40
0
 40
0
 40
0
 40
1
 40
1
 40
1
 40
1
 10
21.484141
 20
7.138100
 30
0.0
 10
21.338314
 20
7.261084
 30
0.0
 10
21.132752
 20
7.322574
 30
0.0
 10
20.867460
 20
7.322577
 30
0.0
  0
SPLINE
  5
244
100
AcDbEntity
  8
Ebene_1
 62
7
100
AcDbSpline
 70
8
 71
3
 72
8
 73
4
 74
0
 40
0
 40
0
 40
0
 40
0
 40
1
 40
1
 40
1
 40
1
 10
20.867460
 20
7.322577
 30
0.0
 10
20.698793
 20
7.322574
 30
0.0
 10
20.534520
 20
7.302370
 30
0.0
 10
20.374641
 20
7.261964
 30
0.0
  0
SPLINE
  5
245
100
AcDbEntity
  8
Ebene_1
 62
7
100
AcDbSpline
 70
8
 71
3
 72
8
 73
4
 74
0
 40
0
 40
0
 40
0
 40
0
 40
1
 40
1
 40
1
 40
1
 10
20.374641
 20
7.261964
 30
0.0
 10
20.214762
 20
7.221553
 30
0.0
 10
20.061030
 20
7.160937
 30
0.0
 10
19.913450
 20
7.080123
 30
0.0
  0
LWPOLYLINE
  5
246
100
AcDbEntity
  8
Ebene_1
 62
7
100
AcDbPolyline
 90
3
 70
0
 10
21.025584
 20
6.574130
 30
0.0
 10
21.705514
 20
6.574130
 30
0.0
 10
21.705514
 20
6.621566
 30
0.0
  0
SPLINE
  5
247
100
AcDbEntity
  8
Ebene_1
 62
7
100
AcDbSpline
 70
8
 71
3
 72
8
 73
4
 74
0
 40
0
 40
0
 40
0
 40
0
 40
1
 40
1
 40
1
 40
1
 10
19.913450
 20
7.528139
 30
0.0
 10
20.090898
 20
7.596655
 30
0.0
 10
20.263076
 20
7.647607
 30
0.0
 10
20.429985
 20
7.680991
 30
0.0
  0
SPLINE
  5
248
100
AcDbEntity
  8
Ebene_1
 62
7
100
AcDbSpline
 70
8
 71
3
 72
8
 73
4
 74
0
 40
0
 40
0
 40
0
 40
0
 40
1
 40
1
 40
1
 40
1
 10
20.429985
 20
7.680991
 30
0.0
 10
20.596891
 20
7.716125
 30
0.0
 10
20.759406
 20
7.733696
 30
0.0
 10
20.917532
 20
7.733699
 30
0.0
  0
SPLINE
  5
249
100
AcDbEntity
  8
Ebene_1
 62
7
100
AcDbSpline
 70
8
 71
3
 72
8
 73
4
 74
0
 40
0
 40
0
 40
0
 40
0
 40
1
 40
1
 40
1
 40
1
 10
20.917532
 20
7.733699
 30
0.0
 10
21.344464
 20
7.733696
 30
0.0
 10
21.663344
 20
7.623008
 30
0.0
 10
21.874178
 20
7.401639
 30
0.0
  0
SPLINE
  5
24a
100
AcDbEntity
  8
Ebene_1
 62
7
100
AcDbSpline
 70
8
 71
3
 72
8
 73
4
 74
0
 40
0
 40
0
 40
0
 40
0
 40
1
 40
1
 40
1
 40
1
 10
21.874178
 20
7.401639
 30
0.0
 10
22.085006
 20
7.180264
 30
0.0
 10
22.190422
 20
6.844693
 30
0.0
 10
22.190425
 20
6.394921
 30
0.0
  0
LWPOLYLINE
  5
24b
100
AcDbEntity
  8
Ebene_1
 62
7
100
AcDbPolyline
 90
2
 70
0
 10
19.913450
 20
7.080123
 30
0.0
 10
19.913450
 20
7.528139
 30
0.0
  0
LWPOLYLINE
  5
24c
100
AcDbEntity
  8
Ebene_1
 62
7
100
AcDbPolyline
 90
5
 70
0
 10
23.191871
 20
8.811570
 30
0.0
 10
23.676782
 20
8.811570
 30
0.0
 10
23.676782
 20
4.710910
 30
0.0
 10
23.191871
 20
4.710910
 30
0.0
 10
23.191871
 20
8.811570
 30
0.0
  0
SPLINE
  5
24d
100
AcDbEntity
  8
Ebene_1
 62
7
100
AcDbSpline
 70
8
 71
3
 72
8
 73
4
 74
0
 40
0
 40
0
 40
0
 40
0
 40
1
 40
1
 40
1
 40
1
 10
26.570438
 20
7.117018
 30
0.0
 10
26.433393
 20
7.187291
 30
0.0
 10
26.291083
 20
7.239999
 30
0.0
 10
26.143503
 20
7.275141
 30
0.0
  0
SPLINE
  5
24e
100
AcDbEntity
  8
Ebene_1
 62
7
100
AcDbSpline
 70
8
 71
3
 72
8
 73
4
 74
0
 40
0
 40
0
 40
0
 40
0
 40
1
 40
1
 40
1
 40
1
 10
26.143503
 20
7.275141
 30
0.0
 10
25.995921
 20
7.310278
 30
0.0
 10
25.843069
 20
7.327846
 30
0.0
 10
25.684948
 20
7.327849
 30
0.0
  0
SPLINE
  5
24f
100
AcDbEntity
  8
Ebene_1
 62
7
100
AcDbSpline
 70
8
 71
3
 72
8
 73
4
 74
0
 40
0
 40
0
 40
0
 40
0
 40
1
 40
1
 40
1
 40
1
 10
25.684948
 20
7.327849
 30
0.0
 10
25.444247
 20
7.327846
 30
0.0
 10
25.263283
 20
7.290951
 30
0.0
 10
25.142057
 20
7.217162
 30
0.0
  0
SPLINE
  5
250
100
AcDbEntity
  8
Ebene_1
 62
7
100
AcDbSpline
 70
8
 71
3
 72
8
 73
4
 74
0
 40
0
 40
0
 40
0
 40
0
 40
1
 40
1
 40
1
 40
1
 10
25.142057
 20
7.217162
 30
0.0
 10
25.022587
 20
7.143369
 30
0.0
 10
24.962849
 20
7.032684
 30
0.0
 10
24.962852
 20
6.885105
 30
0.0
  0
SPLINE
  5
251
100
AcDbEntity
  8
Ebene_1
 62
7
100
AcDbSpline
 70
8
 71
3
 72
8
 73
4
 74
0
 40
0
 40
0
 40
0
 40
0
 40
1
 40
1
 40
1
 40
1
 10
24.962852
 20
6.885105
 30
0.0
 10
24.962849
 20
6.772659
 30
0.0
 10
25.005894
 20
6.683934
 30
0.0
 10
25.091985
 20
6.618930
 30
0.0
  0
SPLINE
  5
252
100
AcDbEntity
  8
Ebene_1
 62
7
100
AcDbSpline
 70
8
 71
3
 72
8
 73
4
 74
0
 40
0
 40
0
 40
0
 40
0
 40
1
 40
1
 40
1
 40
1
 10
25.091985
 20
6.618930
 30
0.0
 10
25.178075
 20
6.555678
 30
0.0
 10
25.351130
 20
6.495065
 30
0.0
 10
25.611156
 20
6.437088
 30
0.0
  0
LWPOLYLINE
  5
253
100
AcDbEntity
  8
Ebene_1
 62
7
100
AcDbPolyline
 90
2
 70
0
 10
26.570438
 20
7.575575
 30
0.0
 10
26.570438
 20
7.117018
 30
0.0
  0
SPLINE
  5
254
100
AcDbEntity
  8
Ebene_1
 62
7
100
AcDbSpline
 70
8
 71
3
 72
8
 73
4
 74
0
 40
0
 40
0
 40
0
 40
0
 40
1
 40
1
 40
1
 40
1
 10
25.777184
 20
6.400193
 30
0.0
 10
26.121541
 20
6.326401
 30
0.0
 10
26.365753
 20
6.221863
 30
0.0
 10
26.509822
 20
6.086582
 30
0.0
  0
SPLINE
  5
255
100
AcDbEntity
  8
Ebene_1
 62
7
100
AcDbSpline
 70
8
 71
3
 72
8
 73
4
 74
0
 40
0
 40
0
 40
0
 40
0
 40
1
 40
1
 40
1
 40
1
 10
26.509822
 20
6.086582
 30
0.0
 10
26.655646
 20
5.953054
 30
0.0
 10
26.728558
 20
5.765941
 30
0.0
 10
26.728561
 20
5.525245
 30
0.0
  0
SPLINE
  5
256
100
AcDbEntity
  8
Ebene_1
 62
7
100
AcDbSpline
 70
8
 71
3
 72
8
 73
4
 74
0
 40
0
 40
0
 40
0
 40
0
 40
1
 40
1
 40
1
 40
1
 10
26.728561
 20
5.525245
 30
0.0
 10
26.728558
 20
5.251162
 30
0.0
 10
26.619629
 20
5.034184
 30
0.0
 10
26.401773
 20
4.874302
 30
0.0
  0
SPLINE
  5
257
100
AcDbEntity
  8
Ebene_1
 62
7
100
AcDbSpline
 70
8
 71
3
 72
8
 73
4
 74
0
 40
0
 40
0
 40
0
 40
0
 40
1
 40
1
 40
1
 40
1
 10
26.401773
 20
4.874302
 30
0.0
 10
26.185670
 20
4.714423
 30
0.0
 10
25.887869
 20
4.634484
 30
0.0
 10
25.508376
 20
4.634484
 30
0.0
  0
SPLINE
  5
258
100
AcDbEntity
  8
Ebene_1
 62
7
100
AcDbSpline
 70
8
 71
3
 72
8
 73
4
 74
0
 40
0
 40
0
 40
0
 40
0
 40
1
 40
1
 40
1
 40
1
 10
25.508376
 20
4.634484
 30
0.0
 10
25.350253
 20
4.634484
 30
0.0
 10
25.185102
 20
4.650288
 30
0.0
 10
25.012924
 20
4.681920
 30
0.0
  0
SPLINE
  5
259
100
AcDbEntity
  8
Ebene_1
 62
7
100
AcDbSpline
 70
8
 71
3
 72
8
 73
4
 74
0
 40
0
 40
0
 40
0
 40
0
 40
1
 40
1
 40
1
 40
1
 10
25.012924
 20
4.681920
 30
0.0
 10
24.842501
 20
4.711787
 30
0.0
 10
24.662418
 20
4.757468
 30
0.0
 10
24.472669
 20
4.818961
 30
0.0
  0
LWPOLYLINE
  5
25a
100
AcDbEntity
  8
Ebene_1
 62
7
100
AcDbPolyline
 90
2
 70
0
 10
25.611156
 20
6.437088
 30
0.0
 10
25.777184
 20
6.400193
 30
0.0
  0
SPLINE
  5
25b
100
AcDbEntity
  8
Ebene_1
 62
7
100
AcDbSpline
 70
8
 71
3
 72
8
 73
4
 74
0
 40
0
 40
0
 40
0
 40
0
 40
1
 40
1
 40
1
 40
1
 10
24.472669
 20
5.319683
 30
0.0
 10
24.651874
 20
5.226566
 30
0.0
 10
24.828446
 20
5.156290
 30
0.0
 10
25.002383
 20
5.108854
 30
0.0
  0
SPLINE
  5
25c
100
AcDbEntity
  8
Ebene_1
 62
7
100
AcDbSpline
 70
8
 71
3
 72
8
 73
4
 74
0
 40
0
 40
0
 40
0
 40
0
 40
1
 40
1
 40
1
 40
1
 10
25.002383
 20
5.108854
 30
0.0
 10
25.176316
 20
5.063174
 30
0.0
 10
25.348494
 20
5.040334
 30
0.0
 10
25.518917
 20
5.040334
 30
0.0
  0
SPLINE
  5
25d
100
AcDbEntity
  8
Ebene_1
 62
7
100
AcDbSpline
 70
8
 71
3
 72
8
 73
4
 74
0
 40
0
 40
0
 40
0
 40
0
 40
1
 40
1
 40
1
 40
1
 10
25.518917
 20
5.040334
 30
0.0
 10
25.747317
 20
5.040334
 30
0.0
 10
25.923009
 20
5.078984
 30
0.0
 10
26.045995
 20
5.156290
 30
0.0
  0
SPLINE
  5
25e
100
AcDbEntity
  8
Ebene_1
 62
7
100
AcDbSpline
 70
8
 71
3
 72
8
 73
4
 74
0
 40
0
 40
0
 40
0
 40
0
 40
1
 40
1
 40
1
 40
1
 10
26.045995
 20
5.156290
 30
0.0
 10
26.168977
 20
5.235352
 30
0.0
 10
26.230470
 20
5.346037
 30
0.0
 10
26.230473
 20
5.488350
 30
0.0
  0
SPLINE
  5
25f
100
AcDbEntity
  8
Ebene_1
 62
7
100
AcDbSpline
 70
8
 71
3
 72
8
 73
4
 74
0
 40
0
 40
0
 40
0
 40
0
 40
1
 40
1
 40
1
 40
1
 10
26.230473
 20
5.488350
 30
0.0
 10
26.230470
 20
5.620117
 30
0.0
 10
26.185670
 20
5.721141
 30
0.0
 10
26.096067
 20
5.791417
 30
0.0
  0
SPLINE
  5
260
100
AcDbEntity
  8
Ebene_1
 62
7
100
AcDbSpline
 70
8
 71
3
 72
8
 73
4
 74
0
 40
0
 40
0
 40
0
 40
0
 40
1
 40
1
 40
1
 40
1
 10
26.096067
 20
5.791417
 30
0.0
 10
26.008220
 20
5.861693
 30
0.0
 10
25.814079
 20
5.929336
 30
0.0
 10
25.513648
 20
5.994344
 30
0.0
  0
LWPOLYLINE
  5
261
100
AcDbEntity
  8
Ebene_1
 62
7
100
AcDbPolyline
 90
2
 70
0
 10
24.472669
 20
4.818961
 30
0.0
 10
24.472669
 20
5.319683
 30
0.0
  0
SPLINE
  5
262
100
AcDbEntity
  8
Ebene_1
 62
7
100
AcDbSpline
 70
8
 71
3
 72
8
 73
4
 74
0
 40
0
 40
0
 40
0
 40
0
 40
1
 40
1
 40
1
 40
1
 10
25.344984
 20
6.033874
 30
0.0
 10
25.044547
 20
6.097120
 30
0.0
 10
24.827569
 20
6.193753
 30
0.0
 10
24.694041
 20
6.323767
 30
0.0
  0
SPLINE
  5
263
100
AcDbEntity
  8
Ebene_1
 62
7
100
AcDbSpline
 70
8
 71
3
 72
8
 73
4
 74
0
 40
0
 40
0
 40
0
 40
0
 40
1
 40
1
 40
1
 40
1
 10
24.694041
 20
6.323767
 30
0.0
 10
24.560516
 20
6.455534
 30
0.0
 10
24.493751
 20
6.635617
 30
0.0
 10
24.493753
 20
6.864020
 30
0.0
  0
SPLINE
  5
264
100
AcDbEntity
  8
Ebene_1
 62
7
100
AcDbSpline
 70
8
 71
3
 72
8
 73
4
 74
0
 40
0
 40
0
 40
0
 40
0
 40
1
 40
1
 40
1
 40
1
 10
24.493753
 20
6.864020
 30
0.0
 10
24.493751
 20
7.141614
 30
0.0
 10
24.592139
 20
7.355956
 30
0.0
 10
24.788916
 20
7.507055
 30
0.0
  0
SPLINE
  5
265
100
AcDbEntity
  8
Ebene_1
 62
7
100
AcDbSpline
 70
8
 71
3
 72
8
 73
4
 74
0
 40
0
 40
0
 40
0
 40
0
 40
1
 40
1
 40
1
 40
1
 10
24.788916
 20
7.507055
 30
0.0
 10
24.985689
 20
7.658148
 30
0.0
 10
25.265041
 20
7.733696
 30
0.0
 10
25.626969
 20
7.733699
 30
0.0
  0
SPLINE
  5
266
100
AcDbEntity
  8
Ebene_1
 62
7
100
AcDbSpline
 70
8
 71
3
 72
8
 73
4
 74
0
 40
0
 40
0
 40
0
 40
0
 40
1
 40
1
 40
1
 40
1
 10
25.626969
 20
7.733699
 30
0.0
 10
25.806174
 20
7.733696
 30
0.0
 10
25.974839
 20
7.720519
 30
0.0
 10
26.132962
 20
7.694168
 30
0.0
  0
SPLINE
  5
267
100
AcDbEntity
  8
Ebene_1
 62
7
100
AcDbSpline
 70
8
 71
3
 72
8
 73
4
 74
0
 40
0
 40
0
 40
0
 40
0
 40
1
 40
1
 40
1
 40
1
 10
26.132962
 20
7.694168
 30
0.0
 10
26.291083
 20
7.667808
 30
0.0
 10
26.436910
 20
7.628280
 30
0.0
 10
26.570438
 20
7.575575
 30
0.0
  0
LWPOLYLINE
  5
268
100
AcDbEntity
  8
Ebene_1
 62
7
100
AcDbPolyline
 90
2
 70
0
 10
25.513648
 20
5.994344
 30
0.0
 10
25.344984
 20
6.033874
 30
0.0
  0
SPLINE
  5
269
100
AcDbEntity
  8
Ebene_1
 62
7
100
AcDbSpline
 70
8
 71
3
 72
8
 73
4
 74
0
 40
0
 40
0
 40
0
 40
0
 40
1
 40
1
 40
1
 40
1
 10
29.627486
 20
7.095936
 30
0.0
 10
29.490444
 20
7.171481
 30
0.0
 10
29.352525
 20
7.227703
 30
0.0
 10
29.213731
 20
7.264600
 30
0.0
  0
SPLINE
  5
26a
100
AcDbEntity
  8
Ebene_1
 62
7
100
AcDbSpline
 70
8
 71
3
 72
8
 73
4
 74
0
 40
0
 40
0
 40
0
 40
0
 40
1
 40
1
 40
1
 40
1
 10
29.213731
 20
7.264600
 30
0.0
 10
29.076690
 20
7.303251
 30
0.0
 10
28.937893
 20
7.322574
 30
0.0
 10
28.797340
 20
7.322577
 30
0.0
  0
SPLINE
  5
26b
100
AcDbEntity
  8
Ebene_1
 62
7
100
AcDbSpline
 70
8
 71
3
 72
8
 73
4
 74
0
 40
0
 40
0
 40
0
 40
0
 40
1
 40
1
 40
1
 40
1
 10
28.797340
 20
7.322577
 30
0.0
 10
28.482849
 20
7.322574
 30
0.0
 10
28.238636
 20
7.222431
 30
0.0
 10
28.064703
 20
7.022143
 30
0.0
  0
SPLINE
  5
26c
100
AcDbEntity
  8
Ebene_1
 62
7
100
AcDbSpline
 70
8
 71
3
 72
8
 73
4
 74
0
 40
0
 40
0
 40
0
 40
0
 40
1
 40
1
 40
1
 40
1
 10
28.064703
 20
7.022143
 30
0.0
 10
27.890766
 20
6.823608
 30
0.0
 10
27.803797
 20
6.544259
 30
0.0
 10
27.803800
 20
6.184090
 30
0.0
  0
SPLINE
  5
26d
100
AcDbEntity
  8
Ebene_1
 62
7
100
AcDbSpline
 70
8
 71
3
 72
8
 73
4
 74
0
 40
0
 40
0
 40
0
 40
0
 40
1
 40
1
 40
1
 40
1
 10
27.803800
 20
6.184090
 30
0.0
 10
27.803797
 20
5.823921
 30
0.0
 10
27.890766
 20
5.543691
 30
0.0
 10
28.064703
 20
5.343404
 30
0.0
  0
SPLINE
  5
26e
100
AcDbEntity
  8
Ebene_1
 62
7
100
AcDbSpline
 70
8
 71
3
 72
8
 73
4
 74
0
 40
0
 40
0
 40
0
 40
0
 40
1
 40
1
 40
1
 40
1
 10
28.064703
 20
5.343404
 30
0.0
 10
28.238636
 20
5.144869
 30
0.0
 10
28.482849
 20
5.045603
 30
0.0
 10
28.797340
 20
5.045603
 30
0.0
  0
SPLINE
  5
26f
100
AcDbEntity
  8
Ebene_1
 62
7
100
AcDbSpline
 70
8
 71
3
 72
8
 73
4
 74
0
 40
0
 40
0
 40
0
 40
0
 40
1
 40
1
 40
1
 40
1
 10
28.797340
 20
5.045603
 30
0.0
 10
28.937893
 20
5.045603
 30
0.0
 10
29.076690
 20
5.064060
 30
0.0
 10
29.213731
 20
5.100947
 30
0.0
  0
SPLINE
  5
270
100
AcDbEntity
  8
Ebene_1
 62
7
100
AcDbSpline
 70
8
 71
3
 72
8
 73
4
 74
0
 40
0
 40
0
 40
0
 40
0
 40
1
 40
1
 40
1
 40
1
 10
29.213731
 20
5.100947
 30
0.0
 10
29.352525
 20
5.139600
 30
0.0
 10
29.490444
 20
5.196699
 30
0.0
 10
29.627486
 20
5.272247
 30
0.0
  0
LWPOLYLINE
  5
271
100
AcDbEntity
  8
Ebene_1
 62
7
100
AcDbPolyline
 90
2
 70
0
 10
29.627486
 20
7.549221
 30
0.0
 10
29.627486
 20
7.095936
 30
0.0
  0
SPLINE
  5
272
100
AcDbEntity
  8
Ebene_1
 62
7
100
AcDbSpline
 70
8
 71
3
 72
8
 73
4
 74
0
 40
0
 40
0
 40
0
 40
0
 40
1
 40
1
 40
1
 40
1
 10
29.627486
 20
4.824230
 30
0.0
 10
29.492200
 20
4.760982
 30
0.0
 10
29.351647
 20
4.713546
 30
0.0
 10
29.205823
 20
4.681920
 30
0.0
  0
SPLINE
  5
273
100
AcDbEntity
  8
Ebene_1
 62
7
100
AcDbSpline
 70
8
 71
3
 72
8
 73
4
 74
0
 40
0
 40
0
 40
0
 40
0
 40
1
 40
1
 40
1
 40
1
 10
29.205823
 20
4.681920
 30
0.0
 10
29.061754
 20
4.650297
 30
0.0
 10
28.908025
 20
4.634484
 30
0.0
 10
28.744632
 20
4.634484
 30
0.0
  0
SPLINE
  5
274
100
AcDbEntity
  8
Ebene_1
 62
7
100
AcDbSpline
 70
8
 71
3
 72
8
 73
4
 74
0
 40
0
 40
0
 40
0
 40
0
 40
1
 40
1
 40
1
 40
1
 10
28.744632
 20
4.634484
 30
0.0
 10
28.300130
 20
4.634484
 30
0.0
 10
27.946988
 20
4.774159
 30
0.0
 10
27.685207
 20
5.053511
 30
0.0
  0
SPLINE
  5
275
100
AcDbEntity
  8
Ebene_1
 62
7
100
AcDbSpline
 70
8
 71
3
 72
8
 73
4
 74
0
 40
0
 40
0
 40
0
 40
0
 40
1
 40
1
 40
1
 40
1
 10
27.685207
 20
5.053511
 30
0.0
 10
27.423423
 20
5.332860
 30
0.0
 10
27.292534
 20
5.709720
 30
0.0
 10
27.292534
 20
6.184090
 30
0.0
  0
SPLINE
  5
276
100
AcDbEntity
  8
Ebene_1
 62
7
100
AcDbSpline
 70
8
 71
3
 72
8
 73
4
 74
0
 40
0
 40
0
 40
0
 40
0
 40
1
 40
1
 40
1
 40
1
 10
27.292534
 20
6.184090
 30
0.0
 10
27.292534
 20
6.665485
 30
0.0
 10
27.424301
 20
7.044103
 30
0.0
 10
27.687840
 20
7.319941
 30
0.0
  0
SPLINE
  5
277
100
AcDbEntity
  8
Ebene_1
 62
7
100
AcDbSpline
 70
8
 71
3
 72
8
 73
4
 74
0
 40
0
 40
0
 40
0
 40
0
 40
1
 40
1
 40
1
 40
1
 10
27.687840
 20
7.319941
 30
0.0
 10
27.953137
 20
7.595777
 30
0.0
 10
28.315940
 20
7.733696
 30
0.0
 10
28.776255
 20
7.733699
 30
0.0
  0
SPLINE
  5
278
100
AcDbEntity
  8
Ebene_1
 62
7
100
AcDbSpline
 70
8
 71
3
 72
8
 73
4
 74
0
 40
0
 40
0
 40
0
 40
0
 40
1
 40
1
 40
1
 40
1
 10
28.776255
 20
7.733699
 30
0.0
 10
28.925593
 20
7.733696
 30
0.0
 10
29.071418
 20
7.717894
 30
0.0
 10
29.213731
 20
7.686260
 30
0.0
  0
SPLINE
  5
279
100
AcDbEntity
  8
Ebene_1
 62
7
100
AcDbSpline
 70
8
 71
3
 72
8
 73
4
 74
0
 40
0
 40
0
 40
0
 40
0
 40
1
 40
1
 40
1
 40
1
 10
29.213731
 20
7.686260
 30
0.0
 10
29.356039
 20
7.656390
 30
0.0
 10
29.493958
 20
7.610712
 30
0.0
 10
29.627486
 20
7.549221
 30
0.0
  0
LWPOLYLINE
  5
27a
100
AcDbEntity
  8
Ebene_1
 62
7
100
AcDbPolyline
 90
2
 70
0
 10
29.627486
 20
5.272247
 30
0.0
 10
29.627486
 20
4.824230
 30
0.0
  0
SPLINE
  5
27b
100
AcDbEntity
  8
Ebene_1
 62
7
100
AcDbSpline
 70
8
 71
3
 72
8
 73
4
 74
0
 40
0
 40
0
 40
0
 40
0
 40
1
 40
1
 40
1
 40
1
 10
32.444713
 20
6.476619
 30
0.0
 10
32.444710
 20
6.755968
 30
0.0
 10
32.390247
 20
6.965041
 30
0.0
 10
32.281320
 20
7.103841
 30
0.0
  0
SPLINE
  5
27c
100
AcDbEntity
  8
Ebene_1
 62
7
100
AcDbSpline
 70
8
 71
3
 72
8
 73
4
 74
0
 40
0
 40
0
 40
0
 40
0
 40
1
 40
1
 40
1
 40
1
 10
32.281320
 20
7.103841
 30
0.0
 10
32.172388
 20
7.242635
 30
0.0
 10
32.008993
 20
7.312033
 30
0.0
 10
31.791137
 20
7.312036
 30
0.0
  0
SPLINE
  5
27d
100
AcDbEntity
  8
Ebene_1
 62
7
100
AcDbSpline
 70
8
 71
3
 72
8
 73
4
 74
0
 40
0
 40
0
 40
0
 40
0
 40
1
 40
1
 40
1
 40
1
 10
31.791137
 20
7.312036
 30
0.0
 10
31.529353
 20
7.312033
 30
0.0
 10
31.322916
 20
7.228580
 30
0.0
 10
31.171823
 20
7.061674
 30
0.0
  0
SPLINE
  5
27e
100
AcDbEntity
  8
Ebene_1
 62
7
100
AcDbSpline
 70
8
 71
3
 72
8
 73
4
 74
0
 40
0
 40
0
 40
0
 40
0
 40
1
 40
1
 40
1
 40
1
 10
31.171823
 20
7.061674
 30
0.0
 10
31.020724
 20
6.894765
 30
0.0
 10
30.945176
 20
6.667243
 30
0.0
 10
30.945178
 20
6.379108
 30
0.0
  0
LWPOLYLINE
  5
27f
100
AcDbEntity
  8
Ebene_1
 62
7
100
AcDbPolyline
 90
4
 70
0
 10
32.929624
 20
6.492432
 30
0.0
 10
32.929624
 20
4.710910
 30
0.0
 10
32.444713
 20
4.710910
 30
0.0
 10
32.444713
 20
6.476619
 30
0.0
  0
SPLINE
  5
280
100
AcDbEntity
  8
Ebene_1
 62
7
100
AcDbSpline
 70
8
 71
3
 72
8
 73
4
 74
0
 40
0
 40
0
 40
0
 40
0
 40
1
 40
1
 40
1
 40
1
 10
30.945178
 20
7.203985
 30
0.0
 10
31.061135
 20
7.381432
 30
0.0
 10
31.197296
 20
7.514079
 30
0.0
 10
31.353664
 20
7.601929
 30
0.0
  0
SPLINE
  5
281
100
AcDbEntity
  8
Ebene_1
 62
7
100
AcDbSpline
 70
8
 71
3
 72
8
 73
4
 74
0
 40
0
 40
0
 40
0
 40
0
 40
1
 40
1
 40
1
 40
1
 10
31.353664
 20
7.601929
 30
0.0
 10
31.511785
 20
7.689771
 30
0.0
 10
31.693626
 20
7.733696
 30
0.0
 10
31.899188
 20
7.733699
 30
0.0
  0
SPLINE
  5
282
100
AcDbEntity
  8
Ebene_1
 62
7
100
AcDbSpline
 70
8
 71
3
 72
8
 73
4
 74
0
 40
0
 40
0
 40
0
 40
0
 40
1
 40
1
 40
1
 40
1
 10
31.899188
 20
7.733699
 30
0.0
 10
32.238273
 20
7.733696
 30
0.0
 10
32.494782
 20
7.628280
 30
0.0
 10
32.668721
 20
7.417452
 30
0.0
  0
SPLINE
  5
283
100
AcDbEntity
  8
Ebene_1
 62
7
100
AcDbSpline
 70
8
 71
3
 72
8
 73
4
 74
0
 40
0
 40
0
 40
0
 40
0
 40
1
 40
1
 40
1
 40
1
 10
32.668721
 20
7.417452
 30
0.0
 10
32.842654
 20
7.208376
 30
0.0
 10
32.929621
 20
6.900034
 30
0.0
 10
32.929624
 20
6.492432
 30
0.0
  0
LWPOLYLINE
  5
284
100
AcDbEntity
  8
Ebene_1
 62
7
100
AcDbPolyline
 90
6
 70
0
 10
30.945178
 20
6.379108
 30
0.0
 10
30.945178
 20
4.710910
 30
0.0
 10
30.457631
 20
4.710910
 30
0.0
 10
30.457631
 20
8.811570
 30
0.0
 10
30.945178
 20
8.811570
 30
0.0
 10
30.945178
 20
7.203985
 30
0.0
  0
LWPOLYLINE
  5
285
100
AcDbEntity
  8
Ebene_1
 62
7
100
AcDbPolyline
 90
5
 70
0
 10
33.970603
 20
5.380299
 30
0.0
 10
34.526669
 20
5.380299
 30
0.0
 10
34.526669
 20
4.710910
 30
0.0
 10
33.970603
 20
4.710910
 30
0.0
 10
33.970603
 20
5.380299
 30
0.0
  0
SPLINE
  5
286
100
AcDbEntity
  8
Ebene_1
 62
7
100
AcDbSpline
 70
8
 71
3
 72
8
 73
4
 74
0
 40
0
 40
0
 40
0
 40
0
 40
1
 40
1
 40
1
 40
1
 10
37.562635
 20
5.153654
 30
0.0
 10
37.460733
 20
4.977963
 30
0.0
 10
37.331599
 20
4.847071
 30
0.0
 10
37.175234
 20
4.760982
 30
0.0
  0
SPLINE
  5
287
100
AcDbEntity
  8
Ebene_1
 62
7
100
AcDbSpline
 70
8
 71
3
 72
8
 73
4
 74
0
 40
0
 40
0
 40
0
 40
0
 40
1
 40
1
 40
1
 40
1
 10
37.175234
 20
4.760982
 30
0.0
 10
37.020624
 20
4.676651
 30
0.0
 10
36.834389
 20
4.634484
 30
0.0
 10
36.616533
 20
4.634484
 30
0.0
  0
SPLINE
  5
288
100
AcDbEntity
  8
Ebene_1
 62
7
100
AcDbSpline
 70
8
 71
3
 72
8
 73
4
 74
0
 40
0
 40
0
 40
0
 40
0
 40
1
 40
1
 40
1
 40
1
 10
36.616533
 20
4.634484
 30
0.0
 10
36.259874
 20
4.634484
 30
0.0
 10
35.969104
 20
4.776795
 30
0.0
 10
35.744221
 20
5.061416
 30
0.0
  0
SPLINE
  5
289
100
AcDbEntity
  8
Ebene_1
 62
7
100
AcDbSpline
 70
8
 71
3
 72
8
 73
4
 74
0
 40
0
 40
0
 40
0
 40
0
 40
1
 40
1
 40
1
 40
1
 10
35.744221
 20
5.061416
 30
0.0
 10
35.521090
 20
5.346037
 30
0.0
 10
35.409525
 20
5.720261
 30
0.0
 10
35.409525
 20
6.184090
 30
0.0
  0
SPLINE
  5
28a
100
AcDbEntity
  8
Ebene_1
 62
7
100
AcDbSpline
 70
8
 71
3
 72
8
 73
4
 74
0
 40
0
 40
0
 40
0
 40
0
 40
1
 40
1
 40
1
 40
1
 10
35.409525
 20
6.184090
 30
0.0
 10
35.409525
 20
6.647917
 30
0.0
 10
35.521090
 20
7.022140
 30
0.0
 10
35.744221
 20
7.306764
 30
0.0
  0
SPLINE
  5
28b
100
AcDbEntity
  8
Ebene_1
 62
7
100
AcDbSpline
 70
8
 71
3
 72
8
 73
4
 74
0
 40
0
 40
0
 40
0
 40
0
 40
1
 40
1
 40
1
 40
1
 10
35.744221
 20
7.306764
 30
0.0
 10
35.969104
 20
7.591385
 30
0.0
 10
36.259874
 20
7.733696
 30
0.0
 10
36.616533
 20
7.733699
 30
0.0
  0
SPLINE
  5
28c
100
AcDbEntity
  8
Ebene_1
 62
7
100
AcDbSpline
 70
8
 71
3
 72
8
 73
4
 74
0
 40
0
 40
0
 40
0
 40
0
 40
1
 40
1
 40
1
 40
1
 10
36.616533
 20
7.733699
 30
0.0
 10
36.834389
 20
7.733696
 30
0.0
 10
37.020624
 20
7.690652
 30
0.0
 10
37.175234
 20
7.604565
 30
0.0
  0
SPLINE
  5
28d
100
AcDbEntity
  8
Ebene_1
 62
7
100
AcDbSpline
 70
8
 71
3
 72
8
 73
4
 74
0
 40
0
 40
0
 40
0
 40
0
 40
1
 40
1
 40
1
 40
1
 10
37.175234
 20
7.604565
 30
0.0
 10
37.331599
 20
7.520229
 30
0.0
 10
37.460733
 20
7.390217
 30
0.0
 10
37.562635
 20
7.214529
 30
0.0
  0
SPLINE
  5
28e
100
AcDbEntity
  8
Ebene_1
 62
7
100
AcDbSpline
 70
8
 71
3
 72
8
 73
4
 74
0
 40
0
 40
0
 40
0
 40
0
 40
1
 40
1
 40
1
 40
1
 10
35.910249
 20
6.184090
 30
0.0
 10
35.910249
 20
5.827435
 30
0.0
 10
35.983161
 20
5.547205
 30
0.0
 10
36.128985
 20
5.343404
 30
0.0
  0
SPLINE
  5
28f
100
AcDbEntity
  8
Ebene_1
 62
7
100
AcDbSpline
 70
8
 71
3
 72
8
 73
4
 74
0
 40
0
 40
0
 40
0
 40
0
 40
1
 40
1
 40
1
 40
1
 10
36.128985
 20
5.343404
 30
0.0
 10
36.276565
 20
5.141355
 30
0.0
 10
36.478614
 20
5.040334
 30
0.0
 10
36.735125
 20
5.040334
 30
0.0
  0
SPLINE
  5
290
100
AcDbEntity
  8
Ebene_1
 62
7
100
AcDbSpline
 70
8
 71
3
 72
8
 73
4
 74
0
 40
0
 40
0
 40
0
 40
0
 40
1
 40
1
 40
1
 40
1
 10
36.735125
 20
5.040334
 30
0.0
 10
36.991634
 20
5.040334
 30
0.0
 10
37.193680
 20
5.141355
 30
0.0
 10
37.341262
 20
5.343404
 30
0.0
  0
SPLINE
  5
291
100
AcDbEntity
  8
Ebene_1
 62
7
100
AcDbSpline
 70
8
 71
3
 72
8
 73
4
 74
0
 40
0
 40
0
 40
0
 40
0
 40
1
 40
1
 40
1
 40
1
 10
37.341262
 20
5.343404
 30
0.0
 10
37.488842
 20
5.547205
 30
0.0
 10
37.562635
 20
5.827435
 30
0.0
 10
37.562635
 20
6.184090
 30
0.0
  0
SPLINE
  5
292
100
AcDbEntity
  8
Ebene_1
 62
7
100
AcDbSpline
 70
8
 71
3
 72
8
 73
4
 74
0
 40
0
 40
0
 40
0
 40
0
 40
1
 40
1
 40
1
 40
1
 10
37.562635
 20
6.184090
 30
0.0
 10
37.562635
 20
6.540746
 30
0.0
 10
37.488842
 20
6.820095
 30
0.0
 10
37.341262
 20
7.022143
 30
0.0
  0
SPLINE
  5
293
100
AcDbEntity
  8
Ebene_1
 62
7
100
AcDbSpline
 70
8
 71
3
 72
8
 73
4
 74
0
 40
0
 40
0
 40
0
 40
0
 40
1
 40
1
 40
1
 40
1
 10
37.341262
 20
7.022143
 30
0.0
 10
37.193680
 20
7.225944
 30
0.0
 10
36.991634
 20
7.327846
 30
0.0
 10
36.735125
 20
7.327849
 30
0.0
  0
SPLINE
  5
294
100
AcDbEntity
  8
Ebene_1
 62
7
100
AcDbSpline
 70
8
 71
3
 72
8
 73
4
 74
0
 40
0
 40
0
 40
0
 40
0
 40
1
 40
1
 40
1
 40
1
 10
36.735125
 20
7.327849
 30
0.0
 10
36.478614
 20
7.327846
 30
0.0
 10
36.276565
 20
7.225944
 30
0.0
 10
36.128985
 20
7.022143
 30
0.0
  0
SPLINE
  5
295
100
AcDbEntity
  8
Ebene_1
 62
7
100
AcDbSpline
 70
8
 71
3
 72
8
 73
4
 74
0
 40
0
 40
0
 40
0
 40
0
 40
1
 40
1
 40
1
 40
1
 10
36.128985
 20
7.022143
 30
0.0
 10
35.983161
 20
6.820095
 30
0.0
 10
35.910249
 20
6.540746
 30
0.0
 10
35.910249
 20
6.184090
 30
0.0
  0
LWPOLYLINE
  5
296
100
AcDbEntity
  8
Ebene_1
 62
7
100
AcDbPolyline
 90
6
 70
0
 10
37.562635
 20
7.214529
 30
0.0
 10
37.562635
 20
8.811570
 30
0.0
 10
38.047546
 20
8.811570
 30
0.0
 10
38.047546
 20
4.710910
 30
0.0
 10
37.562635
 20
4.710910
 30
0.0
 10
37.562635
 20
5.153654
 30
0.0
  0
SPLINE
  5
297
100
AcDbEntity
  8
Ebene_1
 62
7
100
AcDbSpline
 70
8
 71
3
 72
8
 73
4
 74
0
 40
0
 40
0
 40
0
 40
0
 40
1
 40
1
 40
1
 40
1
 10
39.341521
 20
6.070769
 30
0.0
 10
39.362603
 20
5.736951
 30
0.0
 10
39.462747
 20
5.482198
 30
0.0
 10
39.641955
 20
5.306506
 30
0.0
  0
SPLINE
  5
298
100
AcDbEntity
  8
Ebene_1
 62
7
100
AcDbSpline
 70
8
 71
3
 72
8
 73
4
 74
0
 40
0
 40
0
 40
0
 40
0
 40
1
 40
1
 40
1
 40
1
 10
39.641955
 20
5.306506
 30
0.0
 10
39.822916
 20
5.132572
 30
0.0
 10
40.074156
 20
5.045603
 30
0.0
 10
40.395675
 20
5.045603
 30
0.0
  0
SPLINE
  5
299
100
AcDbEntity
  8
Ebene_1
 62
7
100
AcDbSpline
 70
8
 71
3
 72
8
 73
4
 74
0
 40
0
 40
0
 40
0
 40
0
 40
1
 40
1
 40
1
 40
1
 10
40.395675
 20
5.045603
 30
0.0
 10
40.581907
 20
5.045603
 30
0.0
 10
40.761991
 20
5.068435
 30
0.0
 10
40.935930
 20
5.114123
 30
0.0
  0
SPLINE
  5
29a
100
AcDbEntity
  8
Ebene_1
 62
7
100
AcDbSpline
 70
8
 71
3
 72
8
 73
4
 74
0
 40
0
 40
0
 40
0
 40
0
 40
1
 40
1
 40
1
 40
1
 10
40.935930
 20
5.114123
 30
0.0
 10
41.111619
 20
5.159804
 30
0.0
 10
41.285555
 20
5.228325
 30
0.0
 10
41.457736
 20
5.319683
 30
0.0
  0
LWPOLYLINE
  5
29b
100
AcDbEntity
  8
Ebene_1
 62
7
100
AcDbPolyline
 90
3
 70
0
 10
41.571057
 20
6.307955
 30
0.0
 10
41.571057
 20
6.070769
 30
0.0
 10
39.341521
 20
6.070769
 30
0.0
  0
SPLINE
  5
29c
100
AcDbEntity
  8
Ebene_1
 62
7
100
AcDbSpline
 70
8
 71
3
 72
8
 73
4
 74
0
 40
0
 40
0
 40
0
 40
0
 40
1
 40
1
 40
1
 40
1
 10
41.457736
 20
4.861125
 30
0.0
 10
41.283797
 20
4.787336
 30
0.0
 10
41.105469
 20
4.731114
 30
0.0
 10
40.922753
 20
4.692461
 30
0.0
  0
SPLINE
  5
29d
100
AcDbEntity
  8
Ebene_1
 62
7
100
AcDbSpline
 70
8
 71
3
 72
8
 73
4
 74
0
 40
0
 40
0
 40
0
 40
0
 40
1
 40
1
 40
1
 40
1
 10
40.922753
 20
4.692461
 30
0.0
 10
40.740031
 20
4.653811
 30
0.0
 10
40.554676
 20
4.634484
 30
0.0
 10
40.366685
 20
4.634484
 30
0.0
  0
SPLINE
  5
29e
100
AcDbEntity
  8
Ebene_1
 62
7
100
AcDbSpline
 70
8
 71
3
 72
8
 73
4
 74
0
 40
0
 40
0
 40
0
 40
0
 40
1
 40
1
 40
1
 40
1
 10
40.366685
 20
4.634484
 30
0.0
 10
39.895828
 20
4.634484
 30
0.0
 10
39.522482
 20
4.771523
 30
0.0
 10
39.246646
 20
5.045603
 30
0.0
  0
SPLINE
  5
29f
100
AcDbEntity
  8
Ebene_1
 62
7
100
AcDbSpline
 70
8
 71
3
 72
8
 73
4
 74
0
 40
0
 40
0
 40
0
 40
0
 40
1
 40
1
 40
1
 40
1
 10
39.246646
 20
5.045603
 30
0.0
 10
38.972566
 20
5.319683
 30
0.0
 10
38.835525
 20
5.690393
 30
0.0
 10
38.835525
 20
6.157736
 30
0.0
  0
SPLINE
  5
2a0
100
AcDbEntity
  8
Ebene_1
 62
7
100
AcDbSpline
 70
8
 71
3
 72
8
 73
4
 74
0
 40
0
 40
0
 40
0
 40
0
 40
1
 40
1
 40
1
 40
1
 10
38.835525
 20
6.157736
 30
0.0
 10
38.835525
 20
6.640889
 30
0.0
 10
38.965539
 20
7.023899
 30
0.0
 10
39.225564
 20
7.306764
 30
0.0
  0
SPLINE
  5
2a1
100
AcDbEntity
  8
Ebene_1
 62
7
100
AcDbSpline
 70
8
 71
3
 72
8
 73
4
 74
0
 40
0
 40
0
 40
0
 40
0
 40
1
 40
1
 40
1
 40
1
 10
39.225564
 20
7.306764
 30
0.0
 10
39.487345
 20
7.591385
 30
0.0
 10
39.839606
 20
7.733696
 30
0.0
 10
40.282354
 20
7.733699
 30
0.0
  0
SPLINE
  5
2a2
100
AcDbEntity
  8
Ebene_1
 62
7
100
AcDbSpline
 70
8
 71
3
 72
8
 73
4
 74
0
 40
0
 40
0
 40
0
 40
0
 40
1
 40
1
 40
1
 40
1
 10
40.282354
 20
7.733699
 30
0.0
 10
40.679415
 20
7.733696
 30
0.0
 10
40.993026
 20
7.605440
 30
0.0
 10
41.223187
 20
7.348931
 30
0.0
  0
SPLINE
  5
2a3
100
AcDbEntity
  8
Ebene_1
 62
7
100
AcDbSpline
 70
8
 71
3
 72
8
 73
4
 74
0
 40
0
 40
0
 40
0
 40
0
 40
1
 40
1
 40
1
 40
1
 10
41.223187
 20
7.348931
 30
0.0
 10
41.455097
 20
7.094175
 30
0.0
 10
41.571054
 20
6.747183
 30
0.0
 10
41.571057
 20
6.307955
 30
0.0
  0
SPLINE
  5
2a4
100
AcDbEntity
  8
Ebene_1
 62
7
100
AcDbSpline
 70
8
 71
3
 72
8
 73
4
 74
0
 40
0
 40
0
 40
0
 40
0
 40
1
 40
1
 40
1
 40
1
 10
41.086145
 20
6.450265
 30
0.0
 10
41.082618
 20
6.715560
 30
0.0
 10
41.007961
 20
6.927269
 30
0.0
 10
40.862140
 20
7.085392
 30
0.0
  0
SPLINE
  5
2a5
100
AcDbEntity
  8
Ebene_1
 62
7
100
AcDbSpline
 70
8
 71
3
 72
8
 73
4
 74
0
 40
0
 40
0
 40
0
 40
0
 40
1
 40
1
 40
1
 40
1
 10
40.862140
 20
7.085392
 30
0.0
 10
40.718068
 20
7.243513
 30
0.0
 10
40.526564
 20
7.322574
 30
0.0
 10
40.287623
 20
7.322577
 30
0.0
  0
SPLINE
  5
2a6
100
AcDbEntity
  8
Ebene_1
 62
7
100
AcDbSpline
 70
8
 71
3
 72
8
 73
4
 74
0
 40
0
 40
0
 40
0
 40
0
 40
1
 40
1
 40
1
 40
1
 10
40.287623
 20
7.322577
 30
0.0
 10
40.017057
 20
7.322574
 30
0.0
 10
39.800076
 20
7.246149
 30
0.0
 10
39.636683
 20
7.093300
 30
0.0
  0
SPLINE
  5
2a7
100
AcDbEntity
  8
Ebene_1
 62
7
100
AcDbSpline
 70
8
 71
3
 72
8
 73
4
 74
0
 40
0
 40
0
 40
0
 40
0
 40
1
 40
1
 40
1
 40
1
 10
39.636683
 20
7.093300
 30
0.0
 10
39.475046
 20
6.940446
 30
0.0
 10
39.381930
 20
6.725223
 30
0.0
 10
39.357334
 20
6.447629
 30
0.0
  0
LWPOLYLINE
  5
2a8
100
AcDbEntity
  8
Ebene_1
 62
7
100
AcDbPolyline
 90
2
 70
0
 10
41.457736
 20
5.319683
 30
0.0
 10
41.457736
 20
4.861125
 30
0.0
  0
LWPOLYLINE
  5
2a9
100
AcDbEntity
  8
Ebene_1
 62
7
100
AcDbPolyline
 90
2
 70
0
 10
39.357334
 20
6.447629
 30
0.0
 10
41.086145
 20
6.450169
 30
0.0
  0
SPLINE
  5
2aa
100
AcDbEntity
  8
Ebene_1
 62
7
100
AcDbSpline
 70
8
 71
3
 72
8
 73
4
 74
0
 40
0
 40
0
 40
0
 40
0
 40
1
 40
1
 40
1
 40
1
 10
45.901000
 20
7.209257
 30
0.0
 10
45.846534
 20
7.240880
 30
0.0
 10
45.786799
 20
7.263720
 30
0.0
 10
45.721795
 20
7.277777
 30
0.0
  0
SPLINE
  5
2ab
100
AcDbEntity
  8
Ebene_1
 62
7
100
AcDbSpline
 70
8
 71
3
 72
8
 73
4
 74
0
 40
0
 40
0
 40
0
 40
0
 40
1
 40
1
 40
1
 40
1
 10
45.721795
 20
7.277777
 30
0.0
 10
45.658543
 20
7.293582
 30
0.0
 10
45.588264
 20
7.301484
 30
0.0
 10
45.510964
 20
7.301484
 30
0.0
  0
SPLINE
  5
2ac
100
AcDbEntity
  8
Ebene_1
 62
7
100
AcDbSpline
 70
8
 71
3
 72
8
 73
4
 74
0
 40
0
 40
0
 40
0
 40
0
 40
1
 40
1
 40
1
 40
1
 10
45.510964
 20
7.301484
 30
0.0
 10
45.236881
 20
7.301481
 30
0.0
 10
45.026049
 20
7.211878
 30
0.0
 10
44.878470
 20
7.032673
 30
0.0
  0
SPLINE
  5
2ad
100
AcDbEntity
  8
Ebene_1
 62
7
100
AcDbSpline
 70
8
 71
3
 72
8
 73
4
 74
0
 40
0
 40
0
 40
0
 40
0
 40
1
 40
1
 40
1
 40
1
 10
44.878470
 20
7.032673
 30
0.0
 10
44.732643
 20
6.855223
 30
0.0
 10
44.659731
 20
6.599592
 30
0.0
 10
44.659733
 20
6.265776
 30
0.0
  0
LWPOLYLINE
  5
2ae
100
AcDbEntity
  8
Ebene_1
 62
7
100
AcDbPolyline
 90
5
 70
0
 10
43.228717
 20
8.645542
 30
0.0
 10
43.676731
 20
8.645542
 30
0.0
 10
42.306330
 20
4.210185
 30
0.0
 10
41.858314
 20
4.210185
 30
0.0
 10
43.228717
 20
8.645542
 30
0.0
  0
SPLINE
  5
2af
100
AcDbEntity
  8
Ebene_1
 62
7
100
AcDbSpline
 70
8
 71
3
 72
8
 73
4
 74
0
 40
0
 40
0
 40
0
 40
0
 40
1
 40
1
 40
1
 40
1
 10
44.659733
 20
7.203973
 30
0.0
 10
44.761633
 20
7.383179
 30
0.0
 10
44.894280
 20
7.515826
 30
0.0
 10
45.057675
 20
7.601918
 30
0.0
  0
SPLINE
  5
2b0
100
AcDbEntity
  8
Ebene_1
 62
7
100
AcDbSpline
 70
8
 71
3
 72
8
 73
4
 74
0
 40
0
 40
0
 40
0
 40
0
 40
1
 40
1
 40
1
 40
1
 10
45.057675
 20
7.601918
 30
0.0
 10
45.221068
 20
7.689760
 30
0.0
 10
45.419600
 20
7.733685
 30
0.0
 10
45.653274
 20
7.733688
 30
0.0
  0
SPLINE
  5
2b1
100
AcDbEntity
  8
Ebene_1
 62
7
100
AcDbSpline
 70
8
 71
3
 72
8
 73
4
 74
0
 40
0
 40
0
 40
0
 40
0
 40
1
 40
1
 40
1
 40
1
 10
45.653274
 20
7.733688
 30
0.0
 10
45.686653
 20
7.733685
 30
0.0
 10
45.723548
 20
7.731148
 30
0.0
 10
45.763959
 20
7.725785
 30
0.0
  0
SPLINE
  5
2b2
100
AcDbEntity
  8
Ebene_1
 62
7
100
AcDbSpline
 70
8
 71
3
 72
8
 73
4
 74
0
 40
0
 40
0
 40
0
 40
0
 40
1
 40
1
 40
1
 40
1
 10
45.763959
 20
7.725785
 30
0.0
 10
45.804368
 20
7.722258
 30
0.0
 10
45.849167
 20
7.716105
 30
0.0
 10
45.898364
 20
7.707328
 30
0.0
  0
LWPOLYLINE
  5
2b3
100
AcDbEntity
  8
Ebene_1
 62
7
100
AcDbPolyline
 90
6
 70
0
 10
44.659733
 20
6.265776
 30
0.0
 10
44.659733
 20
4.710898
 30
0.0
 10
44.172186
 20
4.710898
 30
0.0
 10
44.172186
 20
7.662531
 30
0.0
 10
44.659733
 20
7.662531
 30
0.0
 10
44.659733
 20
7.203973
 30
0.0
  0
SPLINE
  5
2b4
100
AcDbEntity
  8
Ebene_1
 62
7
100
AcDbSpline
 70
8
 71
3
 72
8
 73
4
 74
0
 40
0
 40
0
 40
0
 40
0
 40
1
 40
1
 40
1
 40
1
 10
47.756312
 20
6.194634
 30
0.0
 10
47.364517
 20
6.194631
 30
0.0
 10
47.093073
 20
6.149828
 30
0.0
 10
46.941980
 20
6.060228
 30
0.0
  0
SPLINE
  5
2b5
100
AcDbEntity
  8
Ebene_1
 62
7
100
AcDbSpline
 70
8
 71
3
 72
8
 73
4
 74
0
 40
0
 40
0
 40
0
 40
0
 40
1
 40
1
 40
1
 40
1
 10
46.941980
 20
6.060228
 30
0.0
 10
46.790884
 20
5.970623
 30
0.0
 10
46.715336
 20
5.817771
 30
0.0
 10
46.715336
 20
5.601671
 30
0.0
  0
SPLINE
  5
2b6
100
AcDbEntity
  8
Ebene_1
 62
7
100
AcDbSpline
 70
8
 71
3
 72
8
 73
4
 74
0
 40
0
 40
0
 40
0
 40
0
 40
1
 40
1
 40
1
 40
1
 10
46.715336
 20
5.601671
 30
0.0
 10
46.715336
 20
5.429490
 30
0.0
 10
46.771557
 20
5.292451
 30
0.0
 10
46.884000
 20
5.190549
 30
0.0
  0
SPLINE
  5
2b7
100
AcDbEntity
  8
Ebene_1
 62
7
100
AcDbSpline
 70
8
 71
3
 72
8
 73
4
 74
0
 40
0
 40
0
 40
0
 40
0
 40
1
 40
1
 40
1
 40
1
 10
46.884000
 20
5.190549
 30
0.0
 10
46.998199
 20
5.090406
 30
0.0
 10
47.152808
 20
5.040334
 30
0.0
 10
47.347830
 20
5.040334
 30
0.0
  0
SPLINE
  5
2b8
100
AcDbEntity
  8
Ebene_1
 62
7
100
AcDbSpline
 70
8
 71
3
 72
8
 73
4
 74
0
 40
0
 40
0
 40
0
 40
0
 40
1
 40
1
 40
1
 40
1
 10
47.347830
 20
5.040334
 30
0.0
 10
47.616638
 20
5.040334
 30
0.0
 10
47.831860
 20
5.135205
 30
0.0
 10
47.993498
 20
5.324955
 30
0.0
  0
SPLINE
  5
2b9
100
AcDbEntity
  8
Ebene_1
 62
7
100
AcDbSpline
 70
8
 71
3
 72
8
 73
4
 74
0
 40
0
 40
0
 40
0
 40
0
 40
1
 40
1
 40
1
 40
1
 10
47.993498
 20
5.324955
 30
0.0
 10
48.156890
 20
5.516459
 30
0.0
 10
48.238588
 20
5.770335
 30
0.0
 10
48.238591
 20
6.086582
 30
0.0
  0
LWPOLYLINE
  5
2ba
100
AcDbEntity
  8
Ebene_1
 62
7
100
AcDbPolyline
 90
2
 70
0
 10
45.898364
 20
7.707328
 30
0.0
 10
45.900904
 20
7.209240
 30
0.0
  0
LWPOLYLINE
  5
2bb
100
AcDbEntity
  8
Ebene_1
 62
7
100
AcDbPolyline
 90
3
 70
0
 10
48.238591
 20
6.086582
 30
0.0
 10
48.238591
 20
6.194634
 30
0.0
 10
47.756312
 20
6.194634
 30
0.0
  0
SPLINE
  5
2bc
100
AcDbEntity
  8
Ebene_1
 62
7
100
AcDbSpline
 70
8
 71
3
 72
8
 73
4
 74
0
 40
0
 40
0
 40
0
 40
0
 40
1
 40
1
 40
1
 40
1
 10
48.238591
 20
5.158926
 30
0.0
 10
48.127900
 20
4.979718
 30
0.0
 10
47.989981
 20
4.847071
 30
0.0
 10
47.824833
 20
4.760982
 30
0.0
  0
SPLINE
  5
2bd
100
AcDbEntity
  8
Ebene_1
 62
7
100
AcDbSpline
 70
8
 71
3
 72
8
 73
4
 74
0
 40
0
 40
0
 40
0
 40
0
 40
1
 40
1
 40
1
 40
1
 10
47.824833
 20
4.760982
 30
0.0
 10
47.659682
 20
4.676651
 30
0.0
 10
47.457634
 20
4.634484
 30
0.0
 10
47.218696
 20
4.634484
 30
0.0
  0
SPLINE
  5
2be
100
AcDbEntity
  8
Ebene_1
 62
7
100
AcDbSpline
 70
8
 71
3
 72
8
 73
4
 74
0
 40
0
 40
0
 40
0
 40
0
 40
1
 40
1
 40
1
 40
1
 10
47.218696
 20
4.634484
 30
0.0
 10
46.916504
 20
4.634484
 30
0.0
 10
46.675805
 20
4.718815
 30
0.0
 10
46.496599
 20
4.887479
 30
0.0
  0
SPLINE
  5
2bf
100
AcDbEntity
  8
Ebene_1
 62
7
100
AcDbSpline
 70
8
 71
3
 72
8
 73
4
 74
0
 40
0
 40
0
 40
0
 40
0
 40
1
 40
1
 40
1
 40
1
 10
46.496599
 20
4.887479
 30
0.0
 10
46.319149
 20
5.057902
 30
0.0
 10
46.230424
 20
5.285424
 30
0.0
 10
46.230424
 20
5.570045
 30
0.0
  0
SPLINE
  5
2c0
100
AcDbEntity
  8
Ebene_1
 62
7
100
AcDbSpline
 70
8
 71
3
 72
8
 73
4
 74
0
 40
0
 40
0
 40
0
 40
0
 40
1
 40
1
 40
1
 40
1
 10
46.230424
 20
5.570045
 30
0.0
 10
46.230424
 20
5.902102
 30
0.0
 10
46.341109
 20
6.152464
 30
0.0
 10
46.562484
 20
6.321131
 30
0.0
  0
SPLINE
  5
2c1
100
AcDbEntity
  8
Ebene_1
 62
7
100
AcDbSpline
 70
8
 71
3
 72
8
 73
4
 74
0
 40
0
 40
0
 40
0
 40
0
 40
1
 40
1
 40
1
 40
1
 10
46.562484
 20
6.321131
 30
0.0
 10
46.785612
 20
6.489793
 30
0.0
 10
47.117672
 20
6.574127
 30
0.0
 10
47.558661
 20
6.574130
 30
0.0
  0
LWPOLYLINE
  5
2c2
100
AcDbEntity
  8
Ebene_1
 62
7
100
AcDbPolyline
 90
4
 70
0
 10
48.723499
 20
6.394921
 30
0.0
 10
48.723499
 20
4.710910
 30
0.0
 10
48.238591
 20
4.710910
 30
0.0
 10
48.238591
 20
5.158926
 30
0.0
  0
SPLINE
  5
2c3
100
AcDbEntity
  8
Ebene_1
 62
7
100
AcDbSpline
 70
8
 71
3
 72
8
 73
4
 74
0
 40
0
 40
0
 40
0
 40
0
 40
1
 40
1
 40
1
 40
1
 10
48.238591
 20
6.621566
 30
0.0
 10
48.238588
 20
6.844693
 30
0.0
 10
48.164795
 20
7.016871
 30
0.0
 10
48.017216
 20
7.138100
 30
0.0
  0
SPLINE
  5
2c4
100
AcDbEntity
  8
Ebene_1
 62
7
100
AcDbSpline
 70
8
 71
3
 72
8
 73
4
 74
0
 40
0
 40
0
 40
0
 40
0
 40
1
 40
1
 40
1
 40
1
 10
48.017216
 20
7.138100
 30
0.0
 10
47.871391
 20
7.261084
 30
0.0
 10
47.665829
 20
7.322574
 30
0.0
 10
47.400537
 20
7.322577
 30
0.0
  0
SPLINE
  5
2c5
100
AcDbEntity
  8
Ebene_1
 62
7
100
AcDbSpline
 70
8
 71
3
 72
8
 73
4
 74
0
 40
0
 40
0
 40
0
 40
0
 40
1
 40
1
 40
1
 40
1
 10
47.400537
 20
7.322577
 30
0.0
 10
47.231870
 20
7.322574
 30
0.0
 10
47.067597
 20
7.302370
 30
0.0
 10
46.907718
 20
7.261964
 30
0.0
  0
SPLINE
  5
2c6
100
AcDbEntity
  8
Ebene_1
 62
7
100
AcDbSpline
 70
8
 71
3
 72
8
 73
4
 74
0
 40
0
 40
0
 40
0
 40
0
 40
1
 40
1
 40
1
 40
1
 10
46.907718
 20
7.261964
 30
0.0
 10
46.747839
 20
7.221553
 30
0.0
 10
46.594107
 20
7.160937
 30
0.0
 10
46.446527
 20
7.080123
 30
0.0
  0
LWPOLYLINE
  5
2c7
100
AcDbEntity
  8
Ebene_1
 62
7
100
AcDbPolyline
 90
3
 70
0
 10
47.558661
 20
6.574130
 30
0.0
 10
48.238591
 20
6.574130
 30
0.0
 10
48.238591
 20
6.621566
 30
0.0
  0
SPLINE
  5
2c8
100
AcDbEntity
  8
Ebene_1
 62
7
100
AcDbSpline
 70
8
 71
3
 72
8
 73
4
 74
0
 40
0
 40
0
 40
0
 40
0
 40
1
 40
1
 40
1
 40
1
 10
46.446527
 20
7.528139
 30
0.0
 10
46.623975
 20
7.596655
 30
0.0
 10
46.796153
 20
7.647607
 30
0.0
 10
46.963062
 20
7.680991
 30
0.0
  0
SPLINE
  5
2c9
100
AcDbEntity
  8
Ebene_1
 62
7
100
AcDbSpline
 70
8
 71
3
 72
8
 73
4
 74
0
 40
0
 40
0
 40
0
 40
0
 40
1
 40
1
 40
1
 40
1
 10
46.963062
 20
7.680991
 30
0.0
 10
47.129968
 20
7.716125
 30
0.0
 10
47.292483
 20
7.733696
 30
0.0
 10
47.450609
 20
7.733699
 30
0.0
  0
SPLINE
  5
2ca
100
AcDbEntity
  8
Ebene_1
 62
7
100
AcDbSpline
 70
8
 71
3
 72
8
 73
4
 74
0
 40
0
 40
0
 40
0
 40
0
 40
1
 40
1
 40
1
 40
1
 10
47.450609
 20
7.733699
 30
0.0
 10
47.877538
 20
7.733696
 30
0.0
 10
48.196421
 20
7.623008
 30
0.0
 10
48.407255
 20
7.401639
 30
0.0
  0
SPLINE
  5
2cb
100
AcDbEntity
  8
Ebene_1
 62
7
100
AcDbSpline
 70
8
 71
3
 72
8
 73
4
 74
0
 40
0
 40
0
 40
0
 40
0
 40
1
 40
1
 40
1
 40
1
 10
48.407255
 20
7.401639
 30
0.0
 10
48.618084
 20
7.180264
 30
0.0
 10
48.723496
 20
6.844693
 30
0.0
 10
48.723499
 20
6.394921
 30
0.0
  0
LWPOLYLINE
  5
2cc
100
AcDbEntity
  8
Ebene_1
 62
7
100
AcDbPolyline
 90
2
 70
0
 10
46.446527
 20
7.080123
 30
0.0
 10
46.446527
 20
7.528139
 30
0.0
  0
LWPOLYLINE
  5
2cd
100
AcDbEntity
  8
Ebene_1
 62
7
100
AcDbPolyline
 90
5
 70
0
 10
49.724945
 20
7.662542
 30
0.0
 10
50.209856
 20
7.662542
 30
0.0
 10
50.209856
 20
4.710910
 30
0.0
 10
49.724945
 20
4.710910
 30
0.0
 10
49.724945
 20
7.662542
 30
0.0
  0
LWPOLYLINE
  5
2ce
100
AcDbEntity
  8
Ebene_1
 62
7
100
AcDbPolyline
 90
5
 70
0
 10
49.724945
 20
8.811570
 30
0.0
 10
50.209856
 20
8.811570
 30
0.0
 10
50.209856
 20
8.197525
 30
0.0
 10
49.724945
 20
8.197525
 30
0.0
 10
49.724945
 20
8.811570
 30
0.0
  0
LWPOLYLINE
  5
2cf
100
AcDbEntity
  8
Ebene_1
 62
7
100
AcDbPolyline
 90
5
 70
0
 10
51.221843
 20
8.811570
 30
0.0
 10
51.706755
 20
8.811570
 30
0.0
 10
51.706755
 20
4.710910
 30
0.0
 10
51.221843
 20
4.710910
 30
0.0
 10
51.221843
 20
8.811570
 30
0.0
  0
ENDSEC
  0
SECTION
  2
OBJECTS
  0
DICTIONARY
  5
C
330
0
100
AcDbDictionary
  3
ACAD_GROUP
350
D
  3
ACAD_MLINESTYLE
350
17
  0
DICTIONARY
  5
D
330
C
100
AcDbDictionary
  0
DICTIONARY
  5
1A
330
C
100
AcDbDictionary
  0
DICTIONARY
  5
17
330
C
100
AcDbDictionary
  3
STANDARD
350
18
  0
DICTIONARY
  5
19
330
C
100
AcDbDictionary
  0
ENDSEC
  0
EOF
